<?xml version="1.0" encoding="utf-8"?>
<!-- Generator: Adobe Illustrator 23.1.0, SVG Export Plug-In . SVG Version: 6.00 Build 0)  -->
<svg version="1.1" id="Layer_1" xmlns="http://www.w3.org/2000/svg" xmlns:xlink="http://www.w3.org/1999/xlink" x="0px" y="0px"
	 viewBox="0 0 5000 1470" style="enable-background:new 0 0 5000 5000;" xml:space="preserve">
<style type="text/css">
	.st0{fill:#E2E2E2;}
</style>
<path class="st0" d="M927.78,1765.2c-12.15,0-23.42,1.78-24.6,3.85c-1.19,2.37-11.26,2.96-22.82,1.48
	c-18.38-2.37-19.86-2.07-15.12,4.45c9.19,12.15,1.48,16.89-21.34,13.93c-17.19-2.37-21.34-1.78-23.42,3.85
	c-1.78,5.04-3.85,5.63-7.41,2.37c-3.56-3.26-5.93-3.26-7.71,0c-1.48,2.37-8.6,4.45-16.3,4.45c-8,0-12.75,1.78-11.26,4.15
	c1.19,2.37-1.19,4.15-5.93,4.15c-5.34,0-7.41-1.78-5.63-5.34c1.48-2.96-0.59-1.19-4.74,3.85c-3.85,5.04-14.52,11.26-23.71,13.93
	c-9.19,2.67-17.49,6.52-18.97,9.19c-1.48,2.67,1.19,3.26,7.71,1.48c7.71-2.07,10.08-1.19,10.08,3.85c0,8.89-13.63,18.38-34.38,23.42
	c-21.04,5.04-25.19,9.19-9.48,9.19c14.23,0,24.3,3.85,24.3,8.89c0,2.07-3.56,3.85-7.71,3.85c-4.15,0-8.6,1.78-9.78,3.85
	c-3.26,5.93,8.3,14.23,16.3,11.86c3.85-1.19,18.38-2.67,32.31-3.26l25.19-0.89l14.82,23.12c8,12.75,14.82,26.97,14.82,31.71
	c0,6.52,0.89,7.11,3.56,2.67c1.78-3.26,5.34-4.45,7.71-2.96c5.93,4.15,5.63,19.56-0.59,19.86c-2.67,0.3-0.89,2.37,3.85,4.74
	c10.08,5.34,10.97,27.86,1.19,36.46c-5.04,4.74-4.74,5.04,1.48,2.67c6.82-2.67,6.82-2.07,0.89,10.37c-7.71,16.3-7.71,17.78,0,17.78
	c3.85,0,5.34,2.37,4.15,5.93c-3.26,8.89,13.34,32.6,28.75,41.2c7.41,4.15,14.82,7.71,16.3,8c4.74,0.89,15.12-13.04,12.75-16.89
	c-3.26-5.93,12.75-37.35,22.53-44.46c4.74-3.26,13.63-7.41,19.86-9.19c6.22-1.78,12.45-7.11,14.23-12.45
	c4.15-12.15,26.08-23.42,45.65-24.01c8.3-0.3,21.34-2.96,28.75-5.93l13.63-5.63l-14.52-0.3c-16.01-0.3-16.6-1.19-10.67-13.34
	c4.45-9.19,17.78-11.26,20.45-2.96c0.89,2.96,3.26,3.85,5.34,1.78c4.45-4.74-9.48-15.71-19.86-15.71c-4.74,0-9.78-4.45-12.45-10.67
	c-4.15-9.78-3.85-10.67,4.74-10.67c5.04,0,9.48-1.78,9.48-4.15c0-6.52,10.97-5.04,22.53,3.26c10.08,7.11,10.37,7.11,5.34,0
	c-4.74-6.52-4.15-7.71,3.85-10.97l9.19-3.56l-8.3-5.63c-4.45-3.26-7.41-8.3-6.22-11.26s0-5.63-2.67-5.63
	c-9.48,0,0.89-8.6,10.67-8.89c5.93-0.3,7.71-1.19,4.15-2.37c-10.08-2.96-11.56-18.08-2.67-27.86c5.93-6.52,6.82-9.48,3.26-12.15
	c-7.71-5.34-0.59-12.75,12.15-12.75c6.22,0,11.56-1.78,11.56-4.15c0-2.37,2.96-4.45,6.82-4.45s9.48-2.07,12.75-4.45
	c6.52-4.74-55.43-2.67-62.54,2.37c-2.07,1.48-4.15,0.59-4.15-1.78c0-6.82-37.05-5.34-54.54,2.37c-8.6,3.85-18.67,5.93-22.53,5.04
	c-10.97-2.96,28.16-20.45,54.83-24.6c26.97-4.15,33.2-8.3,12.75-8.3c-8.6,0-13.63-1.78-12.15-4.15c2.96-5.04-14.23-5.04-45.05-0.3
	c-24.6,3.85-27.86,2.67-17.19-6.22C949.42,1766.09,948.24,1765.49,927.78,1765.2L927.78,1765.2z M3427.32,1765.2
	c-12.15,0-23.42,1.78-24.6,3.85c-1.19,2.37-11.26,2.96-22.82,1.48c-18.38-2.37-19.86-2.07-15.12,4.45
	c9.19,12.15,1.48,16.89-21.34,13.93c-17.19-2.37-21.34-1.78-23.42,3.85c-1.78,5.04-3.85,5.63-7.41,2.37c-3.56-3.26-5.93-3.26-7.71,0
	c-1.48,2.37-8.6,4.45-16.3,4.45c-8,0-12.75,1.78-11.26,4.15c1.19,2.37-1.19,4.15-5.93,4.15c-5.34,0-7.41-1.78-5.63-5.34
	c1.48-2.96-0.59-1.19-4.74,3.85s-14.52,11.26-23.71,13.93s-17.49,6.52-18.97,9.19c-1.48,2.67,1.19,3.26,7.71,1.48
	c7.71-2.07,10.08-1.19,10.08,3.85c0,8.89-13.63,18.38-34.38,23.42c-21.04,5.04-25.19,9.19-9.48,9.19c14.23,0,24.3,3.85,24.3,8.89
	c0,2.07-3.56,3.85-7.71,3.85s-8.6,1.78-9.78,3.85c-3.26,5.93,8.3,14.23,16.3,11.86c3.85-1.19,18.38-2.67,32.31-3.26l25.19-0.89
	l14.82,23.12c8,12.75,14.82,26.97,14.82,31.71c0,6.52,0.89,7.11,3.56,2.67c1.78-3.26,5.34-4.45,7.71-2.96
	c5.93,4.15,5.63,19.56-0.59,19.86c-2.67,0.3-0.89,2.37,3.85,4.74c10.08,5.34,10.97,27.86,1.19,36.46c-5.04,4.74-4.74,5.04,1.48,2.67
	c6.82-2.67,6.82-2.07,0.89,10.37c-7.71,16.3-7.71,17.78,0,17.78c3.85,0,5.34,2.37,4.15,5.93c-3.26,8.89,13.34,32.6,28.75,41.2
	c7.41,4.15,14.82,7.71,16.3,8c4.74,0.89,15.12-13.04,12.75-16.89c-3.26-5.93,12.75-37.35,22.53-44.46
	c4.74-3.26,13.63-7.41,19.86-9.19c6.22-1.78,12.45-7.11,14.23-12.45c4.15-12.15,26.08-23.42,45.65-24.01
	c8.3-0.3,21.34-2.96,28.75-5.93l13.63-5.63l-14.52-0.3c-16.01-0.3-16.6-1.19-10.67-13.34c4.45-9.19,17.78-11.26,20.45-2.96
	c0.89,2.96,3.26,3.85,5.34,1.78c4.45-4.74-9.48-15.71-19.86-15.71c-4.74,0-9.78-4.45-12.45-10.67c-4.15-9.78-3.85-10.67,4.74-10.67
	c5.04,0,9.48-1.78,9.48-4.15c0-6.52,10.97-5.04,22.53,3.26c10.08,7.11,10.37,7.11,5.34,0c-4.74-6.52-4.15-7.71,3.85-10.97l9.19-3.56
	l-8.3-5.63c-4.45-3.26-7.41-8.3-6.22-11.26c1.19-2.96,0-5.63-2.67-5.63c-9.48,0,0.89-8.6,10.67-8.89c5.93-0.3,7.71-1.19,4.15-2.37
	c-10.08-2.96-11.56-18.08-2.67-27.86c5.93-6.52,6.82-9.48,3.26-12.15c-7.71-5.34-0.59-12.75,12.15-12.75
	c6.22,0,11.56-1.78,11.56-4.15c0-2.37,2.96-4.45,6.82-4.45c3.85,0,9.48-2.07,12.75-4.45c6.52-4.74-55.43-2.67-62.54,2.37
	c-2.07,1.48-4.15,0.59-4.15-1.78c0-6.82-37.05-5.34-54.54,2.37c-8.6,3.85-18.67,5.93-22.53,5.04c-10.97-2.96,28.16-20.45,54.83-24.6
	c26.97-4.15,33.2-8.3,12.75-8.3c-8.6,0-13.63-1.78-12.15-4.15c2.96-5.04-14.23-5.04-45.05-0.3c-24.6,3.85-27.86,2.67-17.19-6.22
	C3448.96,1766.09,3447.77,1765.49,3427.32,1765.2L3427.32,1765.2z M641.46,1767.27c-8.89,0-16.3,0.3-20.16,1.19
	c-5.04,1.19-10.08,5.34-11.26,9.48c-1.19,4.45-7.41,8.6-14.82,10.08c-28.75,5.34-37.94,8.3-37.94,11.26
	c0,13.63,50.98,21.64,70.84,10.97l13.04-7.11l-9.78,8.89c-8.3,7.41-8.6,8.6-2.07,6.52c4.45-1.19,1.78,0.89-5.63,4.45
	c-7.71,3.85-18.08,5.93-24.3,4.45c-21.04-4.74-16.01,10.67,5.63,16.6c13.63,3.85,10.08,10.67-5.34,10.67
	c-10.97,0-33.79-19.56-29.05-24.9c2.07-2.37-27.57-17.78-34.09-17.78c-2.07,0-2.96,2.96-1.78,6.52c1.48,4.45-0.3,6.52-5.34,6.52
	c-13.93,0-8.3,11.86,6.82,14.82c13.93,2.96,14.23,3.26,6.82,9.19c-6.52,5.34-6.82,6.82-1.78,10.08c5.93,4.15,18.08,1.78,25.49-4.74
	c5.04-4.45,30.53,11.56,27.27,17.19c-2.67,4.74-13.63,0.89-13.63-4.74c0-2.37-1.78-2.96-3.85-1.48c-2.07,1.48-2.67,5.34-1.48,8.89
	c1.48,4.45,0.3,5.63-4.15,3.56c-3.56-1.48-6.22-0.59-6.22,1.78c0,2.67,10.67,5.04,24.3,5.93c13.34,0.89,26.97,1.78,30.23,2.07
	c3.26,0.3,9.19-0.89,13.63-2.67c6.52-2.67,5.93-3.56-4.74-5.93c-16.3-3.56-16.01-11.56,0.3-11.56c7.11,0,17.19-3.26,22.23-7.41
	l9.48-7.41l-9.78-2.67c-9.78-2.67-9.48-2.67,3.26-10.08c7.11-4.15,16.01-6.82,19.56-6.22c7.71,1.48,51.57-22.53,51.57-28.16
	c0-2.07-2.67-1.48-5.63,1.48c-3.26,2.96-8.89,4.45-12.75,3.26c-5.93-1.48-5.34-2.67,2.67-6.22c43.57-19.86,41.79-18.38,33.49-24.9
	c-4.15-3.56-11.26-5.04-16.6-3.56c-5.04,1.48-11.26,0.59-14.23-1.78C708.45,1771.12,667.84,1767.57,641.46,1767.27L641.46,1767.27z
	 M3141,1767.27c-8.89,0-16.3,0.3-20.16,1.19c-5.04,1.19-10.08,5.34-11.26,9.48c-1.19,4.45-7.41,8.6-14.82,10.08
	c-28.75,5.34-37.94,8.3-37.94,11.26c0,13.63,50.98,21.64,70.84,10.97l13.04-7.11l-9.78,8.89c-8.3,7.41-8.6,8.6-2.07,6.52
	c4.45-1.19,1.78,0.89-5.63,4.45c-7.71,3.85-18.08,5.93-24.3,4.45c-21.04-4.74-16.01,10.67,5.63,16.6
	c13.63,3.85,10.08,10.67-5.34,10.67c-10.97,0-33.79-19.56-29.05-24.9c2.07-2.37-27.57-17.78-34.09-17.78
	c-2.07,0-2.96,2.96-1.78,6.52c1.48,4.45-0.3,6.52-5.34,6.52c-13.93,0-8.3,11.86,6.82,14.82c13.93,2.96,14.23,3.26,6.82,9.19
	c-6.52,5.34-6.82,6.82-1.78,10.08c5.93,4.15,18.08,1.78,25.49-4.74c5.04-4.45,30.53,11.56,27.27,17.19
	c-2.67,4.74-13.63,0.89-13.63-4.74c0-2.37-1.78-2.96-3.85-1.48c-2.07,1.48-2.67,5.34-1.48,8.89c1.48,4.45,0.3,5.63-4.15,3.56
	c-3.56-1.48-6.22-0.59-6.22,1.78c0,2.67,10.67,5.04,24.3,5.93c13.34,0.89,26.97,1.78,30.23,2.07c3.26,0.3,9.19-0.89,13.63-2.67
	c6.52-2.67,5.93-3.56-4.74-5.93c-16.3-3.56-16.01-11.56,0.3-11.56c7.11,0,17.19-3.26,22.23-7.41l9.48-7.41l-9.78-2.67
	c-9.78-2.67-9.48-2.67,3.26-10.08c7.11-4.15,16.01-6.82,19.56-6.22c7.71,1.48,51.57-22.53,51.57-28.16c0-2.07-2.67-1.48-5.63,1.48
	c-3.26,2.96-8.89,4.45-12.75,3.26c-5.93-1.48-5.34-2.67,2.67-6.22c43.57-19.86,41.79-18.38,33.49-24.9
	c-4.15-3.56-11.26-5.04-16.6-3.56c-5.04,1.48-11.26,0.59-14.23-1.78C3208.28,1771.12,3167.67,1767.57,3141,1767.27L3141,1767.27z
	 M834.72,1769.35c-2.07,0-3.85,1.78-3.85,4.15c0,2.37,1.78,4.15,3.85,4.15c2.07,0,3.85-2.07,3.85-4.15
	C838.57,1771.42,836.79,1769.35,834.72,1769.35z M854.57,1769.35c-2.37,0-4.15,1.78-4.15,4.15c0,2.37,0.89,4.15,1.78,4.15
	c0.89,0,2.67-2.07,4.15-4.15C857.83,1771.42,856.65,1769.35,854.57,1769.35z M3334.25,1769.35c-2.07,0-3.85,1.78-3.85,4.15
	c0,2.37,1.78,4.15,3.85,4.15s3.85-2.07,3.85-4.15C3338.1,1771.42,3336.62,1769.35,3334.25,1769.35z M3354.11,1769.35
	c-2.37,0-4.15,1.78-4.15,4.15c0,2.37,0.89,4.15,1.78,4.15s2.67-2.07,4.15-4.15C3357.37,1771.42,3356.48,1769.35,3354.11,1769.35z
	 M1063.83,1790.69c-0.89,0-2.67,1.78-4.15,4.15c-1.19,2.37-0.59,4.15,1.78,4.15s4.15-1.78,4.15-4.15
	C1065.61,1792.76,1064.72,1790.69,1063.83,1790.69z M3563.37,1790.69c-0.89,0-2.67,1.78-4.15,4.15c-1.19,2.37-0.59,4.15,1.78,4.15
	c2.37,0,4.15-1.78,4.15-4.15C3565.14,1792.76,3564.26,1790.69,3563.37,1790.69z M1597.05,1797.5c-0.89-0.59-2.96,0.89-5.34,3.56
	c-3.26,3.56-5.93,7.71-5.93,9.48s2.67,0.59,5.93-2.37c3.26-2.96,5.93-7.11,5.93-9.48C1597.35,1797.8,1597.35,1797.5,1597.05,1797.5
	L1597.05,1797.5z M4096.59,1797.5c-0.89-0.59-2.96,0.89-5.34,3.56c-3.26,3.56-5.93,7.71-5.93,9.48s2.67,0.59,5.93-2.37
	c3.26-2.96,5.93-7.11,5.93-9.48C4097.18,1797.8,4096.88,1797.5,4096.59,1797.5z M1566.23,1805.21c-6.52,0.3-11.86,1.78-11.86,3.56
	s5.34,3.26,11.86,3.26c6.52,0,11.86-1.78,11.86-3.56C1577.79,1806.4,1572.75,1804.91,1566.23,1805.21L1566.23,1805.21z
	 M4065.76,1805.21c-6.52,0.3-11.86,1.78-11.86,3.56s5.34,3.26,11.86,3.26c6.52,0,11.86-1.78,11.86-3.56
	C4077.62,1806.4,4072.28,1804.91,4065.76,1805.21L4065.76,1805.21z M1846.62,1809.95c-7.41-0.59-18.38,5.63-18.38,11.26
	c0,5.93,24.3,2.96,26.38-2.96c0.89-2.67-1.48-5.93-4.74-7.41C1848.7,1810.25,1847.81,1809.95,1846.62,1809.95L1846.62,1809.95z
	 M4346.16,1809.95c-7.41-0.59-18.38,5.63-18.38,11.26c0,5.93,24.3,2.96,26.38-2.96c0.89-2.67-1.48-5.93-4.74-7.41
	C4348.53,1810.25,4347.34,1809.95,4346.16,1809.95L4346.16,1809.95z M1514.66,1812.32c-2.67-0.3-6.52,0.89-10.37,3.56
	c-4.15,2.96-4.15,4.45,0,8c2.67,2.37,7.71,5.34,10.97,6.52c8,2.96,10.97-0.59,4.15-5.04c-2.96-2.07-4.15-5.63-2.67-8.3
	C1518.51,1814.1,1517.32,1812.62,1514.66,1812.32L1514.66,1812.32z M4014.49,1812.32c-2.67-0.3-6.52,0.89-10.37,3.56
	c-4.15,2.96-4.15,4.45,0,8c2.67,2.37,7.71,5.34,10.97,6.52c8,2.96,10.97-0.59,4.15-5.04c-2.96-2.07-4.15-5.63-2.67-8.3
	C4018.34,1814.1,4016.86,1812.62,4014.49,1812.32L4014.49,1812.32z M1630.84,1812.62c-2.37,0-5.34,1.19-6.82,2.96
	c-2.96,3.26-1.48,3.85,5.04,1.78c5.34-1.48,7.11-3.56,4.15-4.45C1632.62,1812.92,1631.73,1812.62,1630.84,1812.62L1630.84,1812.62z
	 M4130.67,1812.62c-2.37,0-5.34,1.19-6.82,2.96c-2.96,3.26-1.48,3.85,5.04,1.78c5.34-1.48,7.11-3.56,4.15-4.45
	C4132.16,1812.92,4131.27,1812.62,4130.67,1812.62z M1611.87,1813.51c-0.59,0-1.78,0.3-3.85,1.19c-3.56,1.48-6.52,4.45-6.52,6.52
	c0,5.63,2.37,4.74,8-2.67C1611.87,1814.99,1612.76,1813.51,1611.87,1813.51L1611.87,1813.51z M4111.41,1813.51
	c-0.59,0-1.78,0.3-3.85,1.19c-3.56,1.48-6.52,4.45-6.52,6.52c0,5.63,2.37,4.74,8-2.67
	C4111.7,1814.99,4112.59,1813.51,4111.41,1813.51L4111.41,1813.51z M1533.03,1813.51c-6.52,0-6.82,3.56-3.56,13.34
	c1.19,3.85,5.34,6.82,8.89,6.82c5.04,0,5.34-0.89,1.19-3.56c-4.15-2.96-4.15-4.15,0.89-6.22c3.26-1.48,7.11-0.89,8,0.89
	c2.96,5.04,21.34,4.45,24.3-0.89c1.48-2.67,0-3.56-3.56-2.07c-3.26,1.48-7.71,0.89-9.48-0.89c-1.78-1.78-10.08-4.74-18.08-6.22
	C1538.07,1813.81,1535.11,1813.51,1533.03,1813.51L1533.03,1813.51z M4032.57,1813.51c-6.52,0-6.82,3.56-3.56,13.34
	c1.19,3.85,5.34,6.82,8.89,6.82c5.04,0,5.34-0.89,1.19-3.56c-4.15-2.96-4.15-4.15,0.89-6.22c3.26-1.48,7.11-0.89,8,0.89
	c2.96,5.04,21.34,4.45,24.3-0.89c1.48-2.67,0-3.56-3.56-2.07c-3.26,1.48-7.71,0.89-9.48-0.89c-1.78-1.78-10.08-4.74-18.08-6.22
	C4037.9,1813.81,4034.94,1813.51,4032.57,1813.51L4032.57,1813.51z M1584.01,1816.47c-3.56,0-4.74,2.37-3.56,6.52
	c1.19,3.56,3.85,5.34,5.63,4.15C1591.72,1822.99,1590.24,1816.47,1584.01,1816.47L1584.01,1816.47z M4083.55,1816.47
	c-3.56,0-4.74,2.37-3.56,6.52c1.19,3.56,3.85,5.34,5.63,4.15C4091.55,1822.99,4090.07,1816.47,4083.55,1816.47L4083.55,1816.47z
	 M1409.73,1825.07c-2.07,0-3.85,1.78-3.85,4.15c0,2.37,1.78,4.15,3.85,4.15s3.85-1.78,3.85-4.15
	C1413.58,1826.85,1412.1,1825.07,1409.73,1825.07z M1443.22,1825.07c-0.89,0-2.96,1.78-4.15,4.15c-1.19,2.37-0.59,4.15,1.78,4.15
	c2.37,0,4.15-1.78,4.15-4.15C1445,1826.85,1444.41,1825.07,1443.22,1825.07z M3909.56,1825.07c-2.07,0-3.85,1.78-3.85,4.15
	c0,2.37,1.78,4.15,3.85,4.15c2.07,0,3.85-1.78,3.85-4.15C3913.41,1826.85,3911.63,1825.07,3909.56,1825.07z M3943.05,1825.07
	c-0.89,0-2.96,1.78-4.15,4.15c-1.19,2.37-0.59,4.15,1.78,4.15c2.37,0,4.15-1.78,4.15-4.15
	C3944.83,1826.85,3943.94,1825.07,3943.05,1825.07z M1349.86,1825.07c-5.63,0.3-10.37,1.78-10.37,4.45s-2.07,3.85-4.74,2.67
	s-8-3.56-11.86-5.34c-4.74-2.07-6.82-0.89-6.82,3.56c0,4.15,4.45,7.11,12.75,8.3c7.11,0.89,14.82,2.07,17.49,2.37
	c2.67,0.3,9.19-1.48,14.82-4.45c7.41-3.56,8.6-5.93,5.04-8.6C1362.31,1825.96,1355.79,1824.77,1349.86,1825.07L1349.86,1825.07z
	 M3849.69,1825.07c-5.63,0.3-10.37,1.78-10.37,4.45s-2.07,3.85-4.74,2.67c-2.67-1.19-8-3.56-11.86-5.34
	c-4.74-2.07-6.82-0.89-6.82,3.56c0,4.15,4.45,7.11,12.75,8.3c7.11,0.89,14.82,2.07,17.49,2.37s9.19-1.48,14.82-4.45
	c7.41-3.56,8.6-5.93,5.04-8.6C3861.84,1825.96,3855.32,1824.77,3849.69,1825.07L3849.69,1825.07z M1869.74,1830.4
	c-0.89,0.3-2.07,2.07-4.15,5.04c-4.74,7.11-5.93,7.11-8,1.48c-1.78-4.74-7.41-6.52-19.27-6.52c-21.04,0.3-16.6,6.82,11.56,16.89
	c10.67,3.85,19.86,7.11,20.45,7.41c0.59,0.3,0.89-5.93,0.89-13.34C1871.22,1832.78,1870.93,1829.81,1869.74,1830.4z M4369.28,1830.4
	c-0.89,0.3-2.07,2.07-4.15,5.04c-4.74,7.11-5.93,7.11-8,1.48c-1.78-4.74-7.41-6.52-19.27-6.52c-21.04,0.3-16.6,6.82,11.56,16.89
	c10.67,3.85,19.86,7.11,20.45,7.41s0.89-5.93,0.89-13.34C4370.76,1832.78,4370.76,1829.81,4369.28,1830.4L4369.28,1830.4z
	 M1273.09,1833.66c-4.74,0-7.11,1.78-5.63,4.45c1.48,2.37,0.3,7.71-2.67,11.56c-4.45,5.93-4.45,6.52,1.48,4.15
	c3.56-1.48,7.71-0.59,9.19,1.78c1.78,2.96,3.85,2.96,6.82-0.3c2.37-2.67,8-4.45,12.15-4.45c7.71,0,7.71,0.3,0.89,5.93
	c-5.34,4.45-5.63,6.22-2.07,7.71c4.15,1.48,4.15,2.96,0,8.6c-4.15,5.34-4.15,7.11,0,8.89c8.6,3.85,10.37,3.26,12.75-5.04
	c5.63-19.27,29.64-27.57,29.64-10.37c0,3.56,1.78,5.63,3.85,4.74c9.48-3.56,4.15-9.78-19.27-23.42
	c-17.78-10.37-26.08-13.34-29.05-10.08c-5.34,5.63-15.71,5.93-12.45,0.3C1280.2,1835.44,1277.54,1833.66,1273.09,1833.66
	L1273.09,1833.66z M3772.62,1833.66c-4.74,0-7.11,1.78-5.63,4.45c1.48,2.37,0.3,7.71-2.67,11.56c-4.45,5.93-4.45,6.52,1.48,4.15
	c3.56-1.48,7.71-0.59,9.19,1.78c1.78,2.96,3.85,2.96,6.82-0.3c2.37-2.67,8-4.45,12.15-4.45c7.71,0,7.71,0.3,0.89,5.93
	c-5.34,4.45-5.63,6.22-2.07,7.71c4.15,1.48,4.15,2.96,0,8.6c-4.15,5.34-4.15,7.11,0,8.89c8.6,3.85,10.37,3.26,12.75-5.04
	c5.63-19.27,29.64-27.57,29.64-10.37c0,3.56,1.78,5.63,3.85,4.74c9.48-3.56,4.15-9.78-19.27-23.42
	c-17.78-10.37-26.08-13.34-29.05-10.08c-5.34,5.63-15.71,5.93-12.45,0.3C3780.03,1835.44,3777.37,1833.66,3772.62,1833.66
	L3772.62,1833.66z M455.32,1840.19c-4.74,0,1.19,5.34,16.3,14.23c17.78,10.37,22.53,10.67,13.04,0.3
	c-4.45-4.74-13.93-10.37-21.04-12.75C459.77,1840.78,457.1,1840.19,455.32,1840.19L455.32,1840.19z M2955.16,1840.19
	c-4.74,0,1.19,5.34,16.3,14.23c17.78,10.37,22.53,10.67,13.04,0.3c-4.45-4.74-13.93-10.37-21.04-12.75
	C2959.3,1840.78,2956.64,1840.19,2955.16,1840.19L2955.16,1840.19z M1899.38,1843.74c-8,0.3-20.16,8.89-20.16,15.41
	c0,1.78,7.11,0.89,15.71-1.48c17.49-5.04,19.86-9.48,7.41-13.63C1901.46,1843.74,1900.57,1843.74,1899.38,1843.74L1899.38,1843.74z
	 M4398.92,1843.74c-8,0.3-20.16,8.89-20.16,15.41c0,1.78,7.11,0.89,15.71-1.48c17.49-5.04,19.86-9.48,7.41-13.63
	C4401.29,1843.74,4400.1,1843.74,4398.92,1843.74L4398.92,1843.74z M409.98,1855.3c-8,0.3-8.89,1.19-3.26,2.67
	c7.11,2.07,6.82,2.67-2.07,8c-5.34,3.26-7.11,5.93-4.45,5.93c7.41,0.3,20.16-8,20.16-12.75
	C420.65,1856.78,415.9,1855.01,409.98,1855.3L409.98,1855.3z M2909.51,1855.3c-8,0.3-8.89,1.19-3.26,2.67
	c7.11,2.07,6.82,2.67-2.07,8c-5.34,3.26-7.11,5.93-4.45,5.93c7.41,0.3,20.16-8,20.16-12.75
	C2920.18,1856.78,2915.44,1855.01,2909.51,1855.3L2909.51,1855.3z M510.16,1857.08c-2.07-0.3-3.56,0.59-3.56,2.37
	c0,2.37,2.67,4.15,5.93,4.15c3.26,0,5.93-0.89,5.93-1.78c0-0.89-2.67-2.67-5.93-4.15C511.64,1857.38,511.05,1857.08,510.16,1857.08z
	 M3009.99,1857.08c-2.07-0.3-3.56,0.59-3.56,2.37c0,2.37,2.67,4.15,5.93,4.15s5.93-0.89,5.93-1.78c0-0.89-2.67-2.67-5.93-4.15
	C3011.47,1857.38,3010.58,1857.08,3009.99,1857.08z M1907.68,1867.75c-3.85,0-8.89,1.78-11.86,5.04c-2.67,2.96-4.74,8.3-4.74,12.45
	c0,5.93-5.04,8-26.38,10.08c-43.27,4.74-77.06,10.97-80.92,15.12c-2.07,2.37-1.48,6.52,1.48,10.37c4.45,5.93,2.07,6.52-18.97,6.52
	c-13.04,0-24.01,1.19-24.01,2.67c0,1.48,5.34,8,12.15,14.82c11.86,12.15,13.34,21.04,4.15,24.3c-2.67,0.89-4.74-2.37-4.74-7.41
	c0-10.08-13.34-17.49-30.53-17.19c-9.48,0-9.78,0.59-3.56,5.93c8.3,6.82,8.89,11.26,1.19,11.26c-2.96,0-9.19-5.04-13.63-10.97
	l-8-10.97l-2.37,10.67c-3.56,16.01,0.89,26.08,14.23,31.42c6.52,2.67,13.04,8.89,14.23,13.63c1.19,4.74,3.56,8.89,5.63,8.89
	c1.78,0,3.56,1.78,3.56,4.15c0,8.6-12.15,3.85-16.3-6.52c-5.93-13.93-13.34-13.63-20.45,1.48c-9.19,19.27-16.6,24.3-28.16,18.38
	c-5.34-2.67-8.89-6.82-7.41-9.19c1.48-2.96,4.74-2.96,9.78,0c6.22,3.56,8,2.07,11.86-10.37c2.67-8.89,3.26-24.6,1.78-40.61
	c-2.37-22.82-3.85-25.79-10.97-25.79c-5.04,0-11.56,5.93-16.89,14.82l-8.6,14.52l8,11.26c10.37,14.52,4.15,23.42-9.19,13.04
	c-11.86-8.89-34.09-8.89-43.27,0.3c-5.93,5.93-8,6.22-10.67,1.78c-2.67-4.45-5.63-4.15-15.71,1.48c-8.6,5.04-13.93,5.63-17.19,2.67
	c-5.63-5.04-25.79,1.48-42.98,13.63c-11.56,8.3-18.97,6.52-17.49-4.74c0.59-3.85-1.78-7.71-5.04-8.3
	c-4.74-1.19-5.63,1.78-4.45,13.63c1.48,14.52,1.19,15.12-10.37,15.12c-8.3,0-13.34,2.96-16.3,8.89c-3.26,6.82-6.52,8.3-14.52,6.22
	c-8.89-2.37-9.48-2.07-5.04,3.85c4.45,5.63,3.85,6.82-2.67,6.82c-4.15,0-10.08-3.26-13.04-7.41c-7.71-10.37-16.01-27.27-14.52-29.05
	c0.59-0.89,8.3,0.59,17.19,3.26c17.78,5.04,38.24,1.48,35.86-6.52c-2.67-9.19-50.98-32.9-66.99-32.9c-13.04,0-14.52-0.89-10.37-6.52
	c3.85-5.04,3.85-6.52-0.59-6.82c-2.96-0.3-12.75-0.89-21.93-1.78c-9.19-0.59-16.6,0.3-16.6,2.67c0,2.07-4.45,3.85-9.78,3.85
	c-5.34,0-9.78,1.78-9.78,4.15c0,2.37-6.22,5.34-13.63,6.82c-7.41,1.48-13.63,5.04-13.63,7.71c0,5.34-26.97,32.9-32.31,32.9
	c-1.78,0-2.37,1.78-1.19,3.85c1.19,2.07-1.19,5.34-5.63,6.82c-5.93,2.07-7.11,4.45-4.15,10.08c4.74,9.48-1.78,22.53-9.78,19.27
	c-3.26-1.48-10.08,1.78-15.41,7.41c-7.11,7.41-9.48,14.23-9.48,28.16c0,22.23,3.85,25.49,19.86,16.6
	c6.82-3.85,12.75-6.22,13.63-5.33c0.59,0.89,4.74,10.37,9.19,21.34c7.71,19.86,8,19.86,19.86,15.12c7.71-3.26,11.86-8,11.86-13.34
	c0-4.45,2.96-11.86,6.52-16.01c5.34-6.52,5.63-9.78,1.78-19.86c-5.93-15.41,0-32.01,13.93-38.83c5.04-2.67,9.48-7.41,9.48-10.97
	c0-8,10.67-19.56,18.08-19.56c11.56,0,10.37,13.34-2.07,27.57c-10.08,11.26-12.15,17.19-11.26,28.45
	c1.48,15.41,2.37,16.01,30.53,10.37c13.34-2.67,27.86,2.96,22.53,8.6c-1.48,1.48-10.67,3.85-20.75,5.04l-18.08,2.37l2.37,14.52
	c2.37,13.93,2.07,14.52-7.41,11.86c-8.3-2.37-10.08-1.19-10.08,6.22c0,11.56-14.23,25.79-23.42,23.42
	c-3.85-1.19-12.45,0.89-18.97,4.74c-7.41,4.15-12.75,5.04-14.52,2.37c-1.19-2.37-6.52-4.15-11.86-4.15
	c-10.37,0-16.01-7.11-14.23-18.08c0.59-4.15-0.89-7.41-3.26-7.41c-2.67,0-3.85,5.93-3.26,15.71c1.19,14.52,0.3,16.01-11.26,19.27
	c-7.11,2.07-15.41,8.3-18.97,14.23c-3.56,5.93-8.6,10.67-11.26,10.67s-7.71,3.56-11.26,8c-3.56,4.45-13.04,11.56-21.34,15.71
	l-14.82,7.71l8.89,10.67c9.78,11.56,11.86,32.31,4.15,37.94c-2.67,1.78-14.52,3.56-26.08,3.56H1124l-1.48,26.38
	c-1.48,26.38-1.48,26.38,11.86,33.49c12.45,6.52,14.23,6.52,28.45-0.89c9.78-5.04,15.41-10.97,16.3-17.49
	c0.59-5.34,6.22-12.45,12.15-16.01c5.93-3.56,12.15-10.97,13.34-16.89c1.78-8,5.04-10.97,12.15-10.97c5.34,0,13.93-2.07,19.27-4.74
	c8.89-4.45,11.86-2.67,34.38,19.56c13.63,13.34,25.79,27.57,27.27,31.42c1.78,5.04,2.67,3.85,2.96-4.74
	c0.3-8.3,1.78-11.26,5.04-9.19c2.67,1.48,0.59-1.19-4.74-5.93c-5.34-4.74-10.97-8.89-12.15-8.89c-5.63-0.3-22.23-33.2-18.97-38.53
	c2.37-4.15,9.19,0.3,26.97,17.19c13.04,12.45,23.71,24.9,23.71,27.86c0,6.22,14.82,27.86,18.67,27.27c8.3-1.19,9.19,1.19,2.37,6.82
	c-4.15,3.56-5.63,6.22-3.26,6.52c2.37,0,6.52-2.67,9.19-6.22c3.85-5.04,3.85-7.71,0-12.75c-6.82-8.89,0.89-18.38,16.89-20.16
	c10.67-1.19,12.75-3.26,14.52-16.3c1.19-8.3,5.34-20.16,9.19-26.68c10.37-17.19,27.86-21.04,27.86-6.22c0,2.67,3.56,5.63,7.71,6.52
	c6.22,1.48,6.82,0.59,2.96-4.74c-3.85-5.04-2.96-7.11,5.34-11.26c14.82-7.41,18.38-6.22,16.6,5.63c-1.48,7.71,1.48,13.93,11.26,24.3
	c7.11,7.71,13.04,16.3,13.04,19.27c0,8-17.49,11.56-31.71,6.22c-18.08-6.82-29.34-5.93-50.68,4.74
	c-14.52,7.11-19.27,11.86-19.27,18.97c0,16.89,9.19,21.93,37.35,21.04l25.79-0.89l-2.67,17.49c-1.48,9.48-5.63,23.12-9.19,29.94
	c-6.22,11.86-8,12.45-27.57,11.56c-11.56-0.59-27.86-3.85-36.46-7.41c-21.64-8.3-26.97-7.71-36.16,4.45l-8,10.67l-29.34-16.3
	c-26.08-14.52-29.34-17.49-29.64-28.75c-0.59-24.01,0-23.42-24.01-20.75c-12.45,1.48-34.68,6.22-49.2,10.97
	c-14.82,4.74-29.34,7.41-32.31,6.22c-8.3-3.56-32.6,27.27-32.6,41.5c0,7.11-4.45,16.6-10.67,23.42
	c-5.93,6.22-16.3,19.86-23.42,29.64c-11.26,16.01-12.75,21.34-12.75,44.76c0,14.82-1.78,32.9-3.56,40.9
	c-3.26,12.45-2.07,16.89,11.86,40.31c8.6,14.23,15.41,28.45,15.41,31.42c0,2.96,5.34,10.37,12.15,16.3
	c10.08,9.19,16.01,10.97,35.86,10.97c13.04,0,33.2-3.26,44.76-7.11c20.45-7.11,21.04-7.11,29.64,1.78
	c4.74,5.04,14.23,9.48,20.45,10.37l11.86,1.48l0.59,31.42c0.59,20.45,2.67,33.79,6.52,38.53c9.48,11.86,22.23,46.24,22.23,60.47
	c0,7.41-2.96,23.12-6.52,34.98c-6.22,20.75-6.22,22.82,1.78,47.72c4.45,14.52,8.89,33.49,10.08,42.39
	c1.19,8.89,7.71,29.34,14.52,45.65c7.71,18.38,11.56,32.31,9.78,37.94c-1.78,5.93-0.3,10.08,4.45,13.04
	c3.85,2.37,9.78,3.56,12.75,2.67c3.26-0.89,13.93-2.96,23.42-4.45c9.78-1.48,21.64-5.63,26.68-9.19
	c11.86-8.3,32.01-43.27,32.01-56.02c0-5.63,4.74-14.82,10.37-20.45c9.19-9.19,10.08-12.75,8-29.64
	c-2.37-18.67-2.07-19.27,17.49-37.35l19.86-18.38l-2.07-27.86c-1.19-15.41-3.56-34.97-5.63-43.57
	c-5.34-21.64,4.45-43.87,33.79-77.66c22.82-26.08,35.27-48.31,45.94-80.92c5.04-15.71,5.04-16.6-1.48-13.93
	c-3.85,1.48-14.82,3.85-24.9,5.34c-17.78,2.37-18.08,2.07-29.64-16.3c-31.12-50.09-35.57-58.69-40.01-78.55
	c-2.67-11.86-10.37-32.31-16.89-45.65c-6.82-13.34-10.97-25.79-9.19-27.56c1.78-1.78,4.74-0.3,6.52,2.96
	c2.67,4.74,3.56,4.74,3.56,0.59c0-10.08,8.6,0,16.6,19.86c4.45,10.67,10.37,22.23,13.34,25.49s5.34,10.08,5.34,15.41
	s5.34,17.19,11.56,26.68c6.22,9.48,12.75,25.19,14.23,34.97c3.26,22.53,8.3,22.82,45.35,2.37c36.16-19.86,47.72-29.34,59.87-49.5
	l10.08-16.6l-13.63-13.93c-13.34-13.63-13.63-13.93-22.53-6.22c-14.82,12.45-20.16,9.19-33.49-19.86
	c-14.82-31.71-14.52-30.53-6.82-33.49c3.56-1.48,10.97,3.56,18.97,12.75c8.89,10.37,16.89,15.41,24.9,16.01
	c6.52,0.3,14.82,3.85,18.38,8c4.74,5.33,13.04,7.41,29.34,7.41c17.78,0,25.19,2.07,35.57,10.67c7.41,5.93,15.71,10.67,18.67,10.67
	c3.56,0,4.45,2.96,2.96,8.6c-2.67,9.48,1.78,11.26,8.89,3.56c5.63-6.22,7.41-1.48,10.08,29.34c2.07,21.93,23.42,84.47,30.23,89.22
	c5.04,3.56,15.12-24.9,15.12-42.98c0-13.34,3.56-18.97,26.38-43.57c20.45-21.93,42.39-37.94,54.24-39.72
	c0.3,0,5.04,7.71,10.67,16.89s10.37,22.82,10.37,29.94c0,12.75,8.3,18.08,13.63,8.6c1.19-2.37,3.85-4.15,5.34-4.15
	c3.26,0,11.86,37.05,12.75,54.83c0.3,8.89,0.89,9.48,2.37,2.96c2.67-11.56,8.6-19.27,15.12-19.27c7.41,0,25.19,21.93,25.19,31.12
	c0,6.52,2.07,5.93,13.93-4.15c13.04-10.97,13.93-13.34,12.45-31.12c-0.89-11.86-5.93-26.38-12.75-37.64l-10.97-18.38l10.08-11.26
	c8.6-9.48,11.26-10.37,16.3-5.63c3.26,2.96,6.22,3.56,6.22,1.19c0-2.37,9.48-7.41,21.04-11.56c26.38-9.19,29.94-12.15,47.13-40.61
	c10.37-17.49,12.75-24.6,9.48-28.75c-2.37-2.96-2.96-5.63-1.48-5.63c1.48,0,0.89-2.67-1.78-5.93c-3.26-4.45-3.26-6.82-0.3-8.89
	c2.96-2.07,2.37-5.93-1.78-13.04c-8.3-13.93-7.71-21.34,3.26-30.83l9.48-8.3h-12.15c-15.41,0-25.19-8.89-18.67-17.19
	c5.93-7.71,26.68-19.86,29.34-16.89c1.19,1.19-0.3,6.52-2.96,12.15l-4.74,8.6l8.6-8.3c6.82-6.52,10.08-7.41,15.12-3.85
	c3.56,2.67,6.22,7.41,5.63,10.97c-0.59,3.56,1.78,8.89,4.74,11.86c3.26,2.96,5.93,10.08,5.93,15.41c0,10.97,2.67,12.15,11.56,5.93
	c5.04-3.56,5.04-6.52-1.19-24.3l-6.82-20.16l16.6-18.38c10.37-11.56,18.97-17.49,22.82-16.3c6.82,2.37,20.75-11.86,36.16-37.35
	c11.56-18.97,20.16-54.54,16.89-69.36c-2.07-8.6-4.15-10.08-13.04-8.3c-6.22,1.19-13.93-0.59-18.38-4.45
	c-7.41-6.22-7.11-6.82,5.93-21.64c7.41-8.3,20.75-20.45,29.94-26.97c15.41-10.97,18.67-11.86,51.57-10.67l35.27,1.19l13.34-14.82
	c16.3-17.78,36.16-21.04,31.71-5.04l-2.67,9.48l9.19-8.6c5.04-4.74,11.26-11.56,13.93-14.82c5.63-7.71,11.26-3.26,6.52,5.34
	c-1.78,3.26-14.82,17.19-28.75,30.53c-13.93,13.63-26.97,28.75-28.75,33.79c-3.26,8.89-0.89,42.39,3.56,50.09
	c2.37,4.15,18.38-15.12,22.53-26.97c1.48-4.15,5.34-7.41,8.6-7.41c3.56,0,5.34-1.78,4.15-3.85c-1.19-2.07,0.3-6.82,3.56-10.37
	c4.45-4.74,5.04-9.19,2.37-16.6c-2.07-6.22-2.07-13.04,0.3-17.49c5.93-11.56,26.68-21.34,40.61-18.67
	c9.19,1.48,18.97-1.19,35.57-10.37c12.75-7.11,26.08-11.86,29.94-10.67c9.78,2.67,8.89-12.75-0.89-19.56
	c-10.97-7.41-9.78-11.86,3.56-11.86c8.3,0,11.86-2.37,13.63-9.19c1.78-8,3.26-8.3,8.3-3.56c3.26,2.96,7.11,4.45,8.6,2.96
	c1.48-1.48,8.6,1.78,16.6,6.82l14.23,9.48l10.97-11.56c10.67-11.26,10.67-11.56,3.26-16.01c-9.78-5.63-20.16-5.93-20.16-0.3
	c0,2.37-1.78,4.15-3.85,4.15c-2.07,0-3.85-2.67-3.85-6.22c0-15.41-36.16-32.6-80.92-38.83c-18.08-2.37-20.16-1.78-19.56,5.04
	c0.3,5.63-1.48,7.41-7.11,6.22c-4.45-0.89-19.86-2.67-34.38-4.45c-21.93-2.37-27.86-4.74-33.79-13.04
	c-6.22-9.19-9.19-10.08-27.27-7.71c-20.75,2.67-32.6-1.19-41.79-13.93c-3.85-5.04-6.52-5.34-14.82-1.19
	c-14.52,7.11-19.86,6.82-13.93-1.19c4.15-5.63,2.07-6.52-15.12-6.52c-15.41,0-20.16,1.48-20.16,6.52c0,8-15.41,15.12-23.42,10.67
	c-7.41-4.15-31.42-0.3-31.42,4.74c0,8-12.15,3.26-24.3-9.48c-8.3-8.6-10.97-13.93-8-15.41c13.93-6.22,1.19-10.37-31.42-9.78
	c-65.5,0.59-68.76,0.3-71.43-8.89c-1.19-4.45-5.34-8.3-8.89-8.3c-5.63,0-5.63,1.19,1.19,6.82c7.71,6.52,7.71,6.52-1.48,3.56
	c-6.22-2.07-8.3-1.48-6.52,1.78c1.48,2.67-1.48,6.52-7.71,8.89c-12.75,5.34-25.49,5.63-25.49,0.3c0-4.74,30.23-24.6,41.2-26.68
	c8.3-1.78,10.67-12.15,4.15-17.49c-2.37-1.78-12.75-3.26-23.71-3.26c-21.34,0-32.01-4.74-27.57-12.45
	C1914.2,1869.23,1911.53,1867.75,1907.68,1867.75L1907.68,1867.75z M4407.51,1867.75c-3.85,0-8.89,1.78-11.86,5.04
	c-2.67,2.96-4.74,8.3-4.74,12.45c0,5.93-5.04,8-26.38,10.08c-43.27,4.74-77.06,10.97-80.92,15.12c-2.07,2.37-1.48,6.52,1.48,10.37
	c4.45,5.93,2.07,6.52-18.97,6.52c-13.04,0-24.01,1.19-24.01,2.67c0,1.48,5.34,8,12.15,14.82c11.86,12.15,13.34,21.04,4.15,24.3
	c-2.67,0.89-4.74-2.37-4.74-7.41c0-10.08-13.34-17.49-30.53-17.19c-9.48,0-9.78,0.59-3.56,5.93c8.3,6.82,8.89,11.26,1.19,11.26
	c-2.96,0-9.19-5.04-13.63-10.97l-8-10.97l-2.37,10.67c-3.56,16.01,0.89,26.08,14.23,31.42c6.52,2.67,13.04,8.89,14.23,13.63
	s3.56,8.89,5.63,8.89c1.78,0,3.56,1.78,3.56,4.15c0,8.6-12.15,3.85-16.3-6.52c-5.93-13.93-13.34-13.63-20.45,1.48
	c-9.19,19.27-16.6,24.3-28.16,18.38c-5.34-2.67-8.89-6.82-7.41-9.19c1.48-2.96,4.74-2.96,9.78,0c6.22,3.56,8,2.07,11.86-10.37
	c2.67-8.89,3.26-24.6,1.78-40.61c-2.37-22.82-3.85-25.79-10.97-25.79c-5.04,0-11.56,5.93-16.89,14.82l-8.6,14.52l8,11.26
	c10.37,14.52,4.15,23.42-9.19,13.04c-11.86-8.89-34.09-8.89-43.27,0.3c-5.93,5.93-8,6.22-10.67,1.78
	c-2.67-4.45-5.63-4.15-15.71,1.48c-8.6,5.04-13.93,5.63-17.19,2.67c-5.63-5.04-25.79,1.48-42.98,13.63
	c-11.56,8.3-18.97,6.52-17.49-4.74c0.59-3.85-1.78-7.71-5.04-8.3c-4.74-1.19-5.63,1.78-4.45,13.63
	c1.48,14.52,1.19,15.12-10.37,15.12c-8.3,0-13.34,2.96-16.3,8.89c-3.26,6.82-6.52,8.3-14.52,6.22c-8.89-2.37-9.48-2.07-5.04,3.85
	c4.45,5.63,3.85,6.82-2.67,6.82c-4.15,0-10.08-3.26-13.04-7.41c-7.71-10.37-16.01-27.27-14.52-29.05c0.59-0.89,8.3,0.59,17.19,3.26
	c17.78,5.04,38.24,1.48,35.86-6.52c-2.67-9.19-50.98-32.9-66.99-32.9c-13.04,0-14.52-0.89-10.37-6.52c3.85-5.04,3.85-6.52-0.59-6.82
	c-2.96-0.3-12.75-0.89-21.93-1.78c-9.19-0.89-16.6,0.3-16.6,2.67c0,2.07-4.45,3.85-9.78,3.85c-5.34,0-9.78,1.78-9.78,4.15
	c0,2.37-6.22,5.34-13.63,6.82c-7.41,1.48-13.63,5.04-13.63,7.71c0,5.34-26.97,32.9-32.31,32.9c-1.78,0-2.37,1.78-1.19,3.85
	c1.19,2.07-1.19,5.34-5.63,6.82c-5.93,2.07-7.11,4.45-4.15,10.08c4.74,9.48-1.78,22.53-9.78,19.27c-3.26-1.48-10.08,1.78-15.41,7.41
	c-7.11,7.41-9.48,14.23-9.48,28.16c0,22.23,3.85,25.49,19.86,16.6c6.82-3.85,12.75-6.22,13.63-5.33c0.59,0.89,4.74,10.37,9.19,21.34
	c7.71,19.86,8,19.86,19.86,15.12c7.71-3.26,11.86-8,11.86-13.34c0-4.45,2.96-11.86,6.52-16.01c5.34-6.52,5.63-9.78,1.78-19.86
	c-5.93-15.41,0-32.01,13.93-38.83c5.04-2.67,9.48-7.41,9.48-10.97c0-8,10.67-19.56,18.08-19.56c11.56,0,10.37,13.34-2.07,27.57
	c-10.08,11.26-12.15,17.19-11.26,28.45c1.48,15.41,2.37,16.01,30.53,10.37c13.34-2.67,27.86,2.96,22.53,8.6
	c-1.48,1.48-10.67,3.85-20.75,5.04l-18.08,2.37l2.37,14.52c2.37,13.93,2.07,14.52-7.41,11.86c-8.3-2.37-10.08-1.19-10.08,6.22
	c0,11.56-14.23,25.79-23.42,23.42c-3.85-1.19-12.45,0.89-18.97,4.74c-7.41,4.15-12.75,5.04-14.52,2.37
	c-1.19-2.37-6.52-4.15-11.86-4.15c-10.37,0-16.01-7.11-14.23-18.08c0.59-4.15-0.89-7.41-3.26-7.41c-2.67,0-3.85,5.93-3.26,15.71
	c1.19,14.52,0.3,16.01-11.26,19.27c-7.11,2.07-15.41,8.3-18.97,14.23c-3.56,5.93-8.6,10.67-11.26,10.67c-2.67,0-7.71,3.56-11.26,8
	c-3.56,4.45-13.04,11.56-21.34,15.71l-14.82,7.71l8.89,10.67c9.78,11.56,11.86,32.31,4.15,37.94c-2.67,1.78-14.52,3.56-26.08,3.56
	h-21.04l-1.48,26.38c-1.48,26.38-1.48,26.38,11.86,33.49c12.45,6.52,14.23,6.52,28.45-0.89c9.78-5.04,15.41-10.97,16.3-17.49
	c0.59-5.34,6.22-12.45,12.15-16.01c5.93-3.56,12.15-10.97,13.34-16.89c1.78-8,5.04-10.97,12.15-10.97c5.34,0,13.93-2.07,19.27-4.74
	c8.89-4.45,11.86-2.67,34.38,19.56c13.63,13.34,25.79,27.57,27.27,31.42c1.78,5.04,2.67,3.85,2.96-4.74
	c0.3-8.3,1.78-11.26,5.04-9.19c2.67,1.48,0.59-1.19-4.74-5.93c-5.34-4.74-10.97-8.89-12.15-8.89c-5.63-0.3-22.23-33.2-18.97-38.53
	c2.37-4.15,9.19,0.3,26.97,17.19c13.04,12.45,23.71,24.9,23.71,27.86c0,6.22,14.82,27.86,18.67,27.27c8.3-1.19,9.19,1.19,2.37,6.82
	c-4.15,3.56-5.63,6.22-3.26,6.52c2.37,0,6.52-2.67,9.19-6.22c3.85-5.04,3.85-7.71,0-12.75c-6.82-8.89,0.89-18.38,16.89-20.16
	c10.67-1.19,12.75-3.26,14.52-16.3c1.19-8.3,5.34-20.16,9.19-26.68c10.37-17.19,27.86-21.04,27.86-6.22c0,2.67,3.56,5.63,7.71,6.52
	c6.22,1.48,6.82,0.59,2.96-4.74c-3.85-5.04-2.96-7.11,5.34-11.26c14.82-7.41,18.38-6.22,16.6,5.63c-1.48,7.71,1.48,13.93,11.26,24.3
	c7.11,7.71,13.04,16.3,13.04,19.27c0,8-17.49,11.56-31.71,6.22c-18.08-6.82-29.34-5.93-50.68,4.74
	c-14.52,7.11-19.27,11.86-19.27,18.97c0,16.89,9.19,21.93,37.35,21.04l25.79-0.89l-2.67,17.49c-1.48,9.48-5.63,23.12-9.19,29.94
	c-6.22,11.86-8,12.45-27.57,11.56c-11.56-0.59-27.86-3.85-36.46-7.41c-21.64-8.3-26.97-7.71-36.16,4.45l-8,10.67l-29.34-16.3
	c-26.08-14.52-29.34-17.49-29.64-28.75c-0.59-24.01,0-23.42-24.01-20.75c-12.45,1.48-34.68,6.22-49.2,10.97
	c-14.82,4.74-29.34,7.41-32.31,6.22c-8.3-3.56-32.6,27.27-32.6,41.5c0,7.11-4.45,16.6-10.67,23.42
	c-5.93,6.22-16.3,19.86-23.42,29.64c-11.26,16.01-12.75,21.34-12.75,44.76c0,14.82-1.78,32.9-3.56,40.9
	c-3.26,12.45-2.07,16.89,11.86,40.31c8.6,14.23,15.41,28.45,15.41,31.42c0,2.96,5.34,10.37,12.15,16.3
	c10.08,9.19,16.01,10.97,35.86,10.97c13.04,0,33.2-3.26,44.76-7.11c20.45-7.11,21.04-7.11,29.64,1.78
	c4.74,5.04,14.23,9.48,20.45,10.37l11.86,1.48l0.59,31.42c0.59,20.45,2.67,33.79,6.52,38.53c9.48,11.86,22.23,46.24,22.23,60.47
	c0,7.41-2.96,23.12-6.52,34.98c-6.22,20.75-6.22,22.82,1.78,47.72c4.45,14.52,8.89,33.49,10.08,42.39
	c1.19,8.89,7.71,29.34,14.52,45.65c7.71,18.38,11.56,32.31,9.78,37.94c-1.78,5.93-0.3,10.08,4.45,13.04
	c3.85,2.37,9.78,3.56,12.75,2.67c3.26-0.89,13.93-2.96,23.42-4.45c9.78-1.48,21.64-5.63,26.68-9.19
	c11.86-8.3,32.01-43.27,32.01-56.02c0-5.63,4.74-14.82,10.37-20.45c9.19-9.19,10.08-12.75,8-29.64
	c-2.37-18.67-2.07-19.27,17.49-37.35l19.86-18.38l-2.07-27.86c-1.19-15.41-3.56-34.97-5.63-43.57
	c-5.34-21.64,4.45-43.87,33.79-77.66c22.82-26.08,35.27-48.31,45.94-80.92c5.04-15.71,5.04-16.6-1.48-13.93
	c-3.85,1.48-14.82,3.85-24.9,5.34c-17.78,2.37-18.08,2.07-29.64-16.3c-31.12-50.09-35.57-58.69-40.01-78.55
	c-2.67-11.86-10.37-32.31-16.89-45.65c-6.82-13.34-10.97-25.79-9.19-27.56s4.74-0.3,6.52,2.96c2.67,4.74,3.56,4.74,3.56,0.59
	c0-10.08,8.6,0,16.6,19.86c4.45,10.67,10.37,22.23,13.34,25.49c2.96,3.26,5.34,10.08,5.34,15.41s5.34,17.19,11.56,26.68
	c6.22,9.48,12.75,25.19,14.23,34.97c3.26,22.53,8.3,22.82,45.35,2.37c36.16-19.86,47.72-29.34,59.87-49.5l10.08-16.6l-13.63-13.93
	c-13.34-13.63-13.63-13.93-22.53-6.22c-14.82,12.45-20.16,9.19-33.49-19.86c-14.82-31.71-14.52-30.53-6.82-33.49
	c3.56-1.48,10.97,3.56,18.97,12.75c8.89,10.37,16.89,15.41,24.9,16.01c6.52,0.3,14.82,3.85,18.38,8c4.74,5.33,13.04,7.41,29.34,7.41
	c17.78,0,25.19,2.07,35.57,10.67c7.41,5.93,15.71,10.67,18.67,10.67c3.56,0,4.45,2.96,2.96,8.6c-2.67,9.48,1.78,11.26,8.89,3.56
	c5.63-6.22,7.41-1.48,10.08,29.34c2.07,21.93,23.42,84.47,30.23,89.22c5.04,3.56,15.12-24.9,15.12-42.98
	c0-13.34,3.56-18.97,26.38-43.57c20.45-21.93,42.39-37.94,54.24-39.72c0.3,0,5.04,7.71,10.67,16.89
	c5.63,9.48,10.37,22.82,10.37,29.94c0,12.75,8.3,18.08,13.63,8.6c1.19-2.37,3.85-4.15,5.34-4.15c3.26,0,11.86,37.05,12.75,54.83
	c0.3,8.89,0.89,9.48,2.37,2.96c2.67-11.56,8.6-19.27,15.12-19.27c7.41,0,25.19,21.93,25.19,31.12c0,6.52,2.07,5.93,13.93-4.15
	c13.04-10.97,13.93-13.34,12.45-31.12c-0.89-11.86-5.93-26.38-12.75-37.64l-10.97-18.38l10.08-11.26c8.6-9.48,11.26-10.37,16.3-5.63
	c3.26,2.96,6.22,3.56,6.22,1.19c0-2.37,9.48-7.41,21.04-11.56c26.38-9.19,29.94-12.15,47.13-40.61
	c10.37-17.49,12.75-24.6,9.48-28.75c-2.37-2.96-2.96-5.63-1.48-5.63c1.48,0,0.89-2.67-1.78-5.93c-3.26-4.45-3.26-6.82-0.3-8.89
	c2.96-2.07,2.37-5.93-1.78-13.04c-8.3-13.93-7.71-21.34,3.26-30.83l9.48-8.3h-11.26c-15.41,0-25.19-8.89-18.67-17.19
	c5.93-7.71,26.68-19.86,29.34-16.89c1.19,1.19-0.3,6.52-2.96,12.15l-4.74,10.08l8.6-8.3c6.82-6.52,10.08-7.41,15.12-3.85
	c3.56,2.67,6.22,7.41,5.63,10.97s1.78,8.89,4.74,11.86c3.26,2.96,5.93,10.08,5.93,15.41c0,10.97,2.67,12.15,11.56,5.93
	c5.04-3.56,5.04-6.52-1.19-24.3l-6.82-20.16l16.6-18.38c10.37-11.56,18.97-17.49,22.82-16.3c6.82,2.37,20.75-11.86,36.16-37.35
	c11.56-18.97,20.16-54.54,16.89-69.36c-2.07-8.6-4.15-10.08-13.04-8.3c-6.22,1.19-13.93-0.59-18.38-4.45
	c-7.41-6.22-7.11-6.82,5.93-21.64c7.41-8.3,20.75-20.45,29.94-26.97c15.41-10.97,18.67-11.86,51.57-10.67l35.27,1.19l13.34-14.82
	c16.3-17.78,36.16-21.04,31.71-5.04l-2.67,9.48l9.19-8.6c5.04-4.74,11.26-11.56,13.93-14.82c5.63-7.71,11.26-3.26,6.52,5.34
	c-1.78,3.26-14.82,17.19-28.75,30.53c-13.93,13.63-26.97,28.75-28.75,33.79c-3.26,8.89-0.89,42.39,3.56,50.09
	c2.37,4.15,18.38-15.12,22.53-26.97c1.48-4.15,5.34-7.41,8.6-7.41c3.56,0,5.34-1.78,4.15-3.85c-1.19-2.07,0.3-6.82,3.56-10.37
	c4.45-4.74,5.04-9.19,2.37-16.6c-2.07-6.22-2.07-13.04,0.3-17.49c5.93-11.56,26.68-21.34,40.61-18.67
	c9.19,1.48,18.97-1.19,35.57-10.37c12.75-7.11,26.08-11.86,29.94-10.67c9.78,2.67,8.89-12.75-0.89-19.56
	c-10.97-7.41-9.78-11.86,3.56-11.86c8.3,0,11.86-2.37,13.63-9.19c1.78-8,3.26-8.3,8.3-3.56c3.26,2.96,7.11,4.45,8.6,2.96
	c1.19-1.48,8.6,1.78,16.6,6.82l14.23,9.48l10.97-11.56c10.67-11.26,10.67-11.56,3.26-16.01c-9.78-5.63-20.16-5.93-20.16-0.3
	c0,2.37-1.78,4.15-3.85,4.15c-2.07,0-3.85-2.67-3.85-6.22c0-15.41-36.16-32.6-80.92-38.83c-18.08-2.37-20.16-1.78-19.56,5.04
	c0.3,5.63-1.48,7.41-7.11,6.22c-4.45-0.89-19.86-2.67-34.38-4.45c-21.93-2.37-27.86-4.74-33.79-13.04
	c-6.22-9.19-9.19-10.08-27.27-7.71c-20.75,2.67-32.6-1.19-41.79-13.93c-3.85-5.04-6.52-5.34-14.82-1.19
	c-14.52,7.11-19.86,6.82-13.93-1.19c4.15-5.63,2.07-6.52-15.12-6.52c-15.41,0-20.16,1.48-20.16,6.52c0,8-15.41,15.12-23.42,10.67
	c-7.41-4.15-31.42-0.3-31.42,4.74c0,8-12.15,3.26-24.3-9.48c-8.3-8.6-10.97-13.93-8-15.41c13.93-6.22,1.19-10.37-31.42-9.78
	c-65.5,0.59-68.76,0.3-71.43-8.89c-1.19-4.45-5.34-8.3-8.89-8.3c-5.63,0-5.63,1.19,1.19,6.82c7.71,6.52,7.71,6.52-1.48,3.56
	c-6.22-2.07-8.3-1.48-6.52,1.78c1.48,2.67-1.48,6.52-7.71,8.89c-12.75,5.34-25.49,5.63-25.49,0.3c0-4.74,30.23-24.6,41.2-26.68
	c8.3-1.78,10.67-12.15,4.15-17.49c-2.37-1.78-12.75-3.26-23.71-3.26c-21.34,0-32.01-4.74-27.57-12.45
	C4414.03,1869.23,4411.36,1867.75,4407.51,1867.75L4407.51,1867.75z M371.15,1874.57c-5.04,0-16.3,4.74-25.49,11.86
	c-5.63,4.15-6.22,6.52-2.67,8c2.96,1.19,7.71-0.3,10.97-3.26c3.26-2.96,8.89-6.52,12.75-7.71c3.85-1.48,6.82-4.45,6.82-6.82
	C373.81,1875.16,372.63,1874.57,371.15,1874.57L371.15,1874.57z M2870.68,1874.57c-5.04,0-16.3,4.74-25.49,11.86
	c-5.63,4.15-6.22,6.52-2.67,8c2.96,1.19,7.71-0.3,10.97-3.26c3.26-2.96,8.89-6.52,12.75-7.71c3.85-1.48,6.82-4.45,6.82-6.82
	C2873.35,1875.16,2872.46,1874.57,2870.68,1874.57L2870.68,1874.57z M515.79,1881.09c-0.89,0.3-0.89,1.19,0,2.37
	c1.48,2.37,7.71,5.63,14.23,7.11c6.52,1.48,11.86,5.34,11.86,8.6c0,3.26,6.52,8,14.52,10.67c8,2.37,23.42,3.56,34.09,2.67
	c10.67-1.19,23.42-1.78,28.45-2.07c4.74,0,8.89-2.07,8.89-4.45c0-2.67-14.82-4.15-36.16-4.15c-31.42,0-37.05-1.19-42.98-8.6
	c-3.56-4.74-10.08-8.6-14.23-8.6c-4.15,0-10.67-1.19-14.23-2.96C517.86,1881.09,516.38,1880.79,515.79,1881.09L515.79,1881.09z
	 M3015.32,1881.09c-0.89,0.3-0.89,1.19,0,2.37c1.48,2.37,7.71,5.63,14.23,7.11c6.52,1.48,11.86,5.34,11.86,8.6
	c0,3.26,6.52,8,14.52,10.67c8,2.37,23.42,3.56,34.09,2.67c10.67-1.19,23.42-1.78,28.45-2.07c4.74,0,8.89-2.07,8.89-4.45
	c0-2.67-14.82-4.15-36.16-4.15c-31.42,0-37.05-1.19-42.98-8.6c-3.56-4.74-10.08-8.6-14.23-8.6s-10.67-1.19-14.23-2.96
	C3017.7,1881.09,3016.21,1880.79,3015.32,1881.09L3015.32,1881.09z M480.22,1884.94c-2.67,0.3-4.74,1.48-4.74,3.85
	c0,2.07,3.85,7.11,8.6,10.67c10.37,8,18.67,2.07,10.97-8C491.78,1887.02,484.96,1884.35,480.22,1884.94L480.22,1884.94z
	 M2979.76,1884.94c-2.67,0.3-4.74,1.48-4.74,3.85c0,2.07,3.85,7.11,8.6,10.67c10.37,8,18.67,2.07,10.97-8
	C2991.32,1887.02,2984.5,1884.35,2979.76,1884.94L2979.76,1884.94z M1653.37,1885.83c-2.96,0-8.89,0.89-15.12,2.67
	c-8.3,2.37-26.08,6.82-39.42,9.78c-13.34,2.96-24.3,7.71-24.3,10.37s-2.67,7.41-5.93,10.37c-3.26,2.96-5.04,6.22-4.15,7.41
	c1.19,1.19-2.37,5.63-7.71,10.37c-8.89,7.71-9.19,8.6-2.67,16.3c3.56,4.45,9.78,8.3,13.63,8.3c5.63,0.3,6.22-1.19,2.96-8.3
	c-6.22-12.45,22.23-45.35,44.46-51.57c27.57-7.71,42.09-13.34,40.31-15.41C1655.15,1885.83,1654.26,1885.83,1653.37,1885.83
	L1653.37,1885.83z M4153.2,1885.83c-2.96,0-8.89,0.89-15.12,2.67c-8.3,2.37-26.08,6.82-39.42,9.78s-24.3,7.71-24.3,10.37
	s-2.67,7.41-5.93,10.37c-3.26,2.96-5.04,6.22-4.15,7.41c0.89,1.19-2.37,5.63-7.71,10.37c-8.89,7.71-9.19,8.6-2.67,16.3
	c3.56,4.45,9.78,8.3,13.63,8.3c5.63,0.3,6.22-1.19,2.96-8.3c-6.22-12.45,22.23-45.35,44.46-51.57
	c27.57-7.71,42.09-13.34,40.31-15.41C4154.68,1885.83,4154.09,1885.83,4153.2,1885.83L4153.2,1885.83z M431.02,1886.42
	c-0.89,0.3-1.78,2.67-3.26,6.52c-2.67,8-5.04,9.19-13.93,6.82c-26.38-7.11-37.05-7.71-35.27-1.78c1.19,3.56,5.93,5.34,12.75,4.45
	c8.6-1.19,10.37,0,8.6,5.34c-2.96,8.3-4.15,8.3,23.12,0.3c23.42-6.52,30.83-10.67,19.56-10.67c-3.56,0-7.71-3.26-9.19-7.11
	C432.5,1887.61,431.91,1886.13,431.02,1886.42L431.02,1886.42z M2930.55,1886.42c-0.89,0.3-1.78,2.67-3.26,6.52
	c-2.67,8-5.04,9.19-13.93,6.82c-26.38-7.11-37.05-7.71-35.27-1.78c1.19,3.56,5.93,5.34,12.75,4.45c8.6-1.19,10.37,0,8.6,5.34
	c-2.96,8.3-4.15,8.3,23.12,0.3c23.42-6.52,30.83-10.67,19.56-10.67c-3.56,0-7.71-3.26-9.19-7.11
	C2932.33,1887.61,2931.44,1886.13,2930.55,1886.42L2930.55,1886.42z M482.89,1889.09c2.07,0,5.04,2.07,6.22,4.15
	c1.19,2.37,0.59,4.15-1.48,4.15s-5.04-1.78-6.22-4.15C480.22,1890.87,480.82,1889.09,482.89,1889.09z M2982.42,1889.09
	c2.07,0,5.04,2.07,6.22,4.15c1.19,2.37,0.59,4.15-1.48,4.15c-2.07,0-5.04-1.78-6.22-4.15
	C2979.76,1890.87,2980.35,1889.09,2982.42,1889.09z M2182.44,1893.24c-3.26,0-5.04,2.07-3.56,4.15c1.19,2.37,4.15,4.15,6.22,4.15
	s3.56-1.78,3.56-4.15C2188.67,1895.02,2185.7,1893.24,2182.44,1893.24z M4682.27,1893.24c-3.26,0-5.04,2.07-3.56,4.15
	c1.19,2.37,4.15,4.15,6.22,4.15c2.07,0,3.56-1.78,3.56-4.15C4688.5,1895.02,4685.53,1893.24,4682.27,1893.24z M2149.25,1894.43
	c-5.34,0.3-7.41,2.07-7.41,5.34c0,4.45,4.45,5.93,15.41,5.93c19.27-0.3,17.78-9.48-1.78-10.97
	C2152.8,1894.13,2150.73,1894.13,2149.25,1894.43L2149.25,1894.43z M4648.78,1894.43c-5.34,0.3-7.41,2.07-7.41,5.34
	c0,4.45,4.45,5.93,15.41,5.93c19.27-0.3,17.78-9.48-1.78-10.97C4652.63,1894.13,4650.56,1894.13,4648.78,1894.43L4648.78,1894.43z
	 M470.14,1894.72c-1.48-0.3-2.37,0.59-2.37,2.67c0,2.37,1.78,4.45,3.85,4.45c2.07,0,3.85-0.89,3.85-1.78c0-0.89-1.78-2.96-3.85-4.45
	C471.03,1895.02,470.74,1895.02,470.14,1894.72z M2969.97,1894.72c-1.48-0.3-2.37,0.59-2.37,2.67c0,2.37,1.78,4.45,3.85,4.45
	c2.07,0,3.85-0.89,3.85-1.78c0-0.89-1.78-2.96-3.85-4.45C2970.86,1895.02,2970.27,1895.02,2969.97,1894.72z M524.68,1901.84
	c-3.26,0-6.22,1.78-6.22,4.15c0,2.37,1.78,4.15,3.56,4.15c1.78,0,4.74-1.78,6.22-4.15C529.72,1903.91,528.24,1901.84,524.68,1901.84
	z M3024.51,1901.84c-3.26,0-6.22,1.78-6.22,4.15c0,2.37,1.78,4.15,3.56,4.15c2.07,0,4.74-1.78,6.22-4.15
	C3029.55,1903.91,3027.77,1901.84,3024.51,1901.84z M2162.58,1916.06c-0.89,0.3-1.19,1.78-1.19,4.74c0,4.15,3.26,6.82,8.6,6.82
	c4.74,0,7.71-0.59,6.82-1.19s-4.74-3.85-8.6-6.82C2165.25,1916.95,2163.47,1915.77,2162.58,1916.06L2162.58,1916.06z
	 M4662.12,1916.06c-0.89,0.3-1.19,1.78-1.19,4.74c0,4.15,3.26,6.82,8.6,6.82c4.74,0,7.71-0.59,6.82-1.19
	c-0.89-0.59-4.74-3.85-8.6-6.82C4664.79,1916.95,4663.3,1915.77,4662.12,1916.06L4662.12,1916.06z M345.66,1916.95
	c-4.15-0.3-7.71,0-9.78,0.89c-2.67,1.19-4.74,5.34-4.74,9.19s-2.07,9.48-4.74,12.45c-3.85,4.15-3.56,6.22,0.89,9.48
	c9.19,6.52,16.01,5.04,29.64-6.52c7.11-5.93,14.82-10.67,17.19-10.67c2.37,0,3.85-2.37,2.96-5.34
	C375.59,1922.29,357.81,1917.55,345.66,1916.95L345.66,1916.95z M2845.19,1916.95c-4.15-0.3-7.71,0-9.78,0.89
	c-2.67,1.19-4.74,5.34-4.74,9.19s-2.07,9.48-4.74,12.45c-3.85,4.15-3.56,6.22,0.89,9.48c9.19,6.52,16.01,5.04,29.64-6.52
	c7.11-5.93,14.82-10.67,17.19-10.67s3.85-2.37,2.96-5.34C2875.42,1922.29,2857.64,1917.55,2845.19,1916.95L2845.19,1916.95z
	 M544.84,1919.32c-2.07,0-4.74,0.3-8.6,1.48c-7.41,2.07-10.08,5.63-10.08,13.34c0,13.04,0.89,13.04,14.23,0
	C549.58,1924.66,551.06,1919.62,544.84,1919.32L544.84,1919.32z M3044.67,1919.32c-2.07,0-4.74,0.3-8.6,1.48
	c-7.41,2.07-10.08,5.63-10.08,13.34c0,13.04,0.89,13.04,14.23,0C3049.41,1924.66,3050.6,1919.62,3044.67,1919.32L3044.67,1919.32z
	 M504.23,1921.4c-1.48,0-3.56,1.19-7.11,2.67c-5.34,2.67-9.78,7.41-9.78,10.97c0,3.26-2.07,4.74-4.74,3.26
	c-2.67-1.48-0.89,1.19,4.45,6.22c9.78,9.19,21.93,11.56,25.79,4.74c1.19-2.07,0.59-5.34-1.78-6.52c-2.07-1.48-3.85-7.41-3.85-13.04
	C506.9,1923.47,506.6,1921.1,504.23,1921.4L504.23,1921.4z M3003.76,1921.4c-1.48,0-3.56,1.19-7.11,2.67
	c-5.34,2.67-9.78,7.41-9.78,10.97c0,3.26-2.07,4.74-5.04,3.26c-2.67-1.48-0.89,1.19,4.45,6.22c9.78,9.19,21.93,11.56,25.79,4.74
	c1.19-2.07,0.59-5.34-1.78-6.52c-2.07-1.48-3.85-7.41-3.85-13.04C3006.73,1923.47,3006.43,1921.1,3003.76,1921.4L3003.76,1921.4z
	 M451.47,1924.96c-0.89,0-2.96,1.78-6.52,5.34c-4.74,4.45-8.3,10.37-8.3,13.34c0,6.82-4.74,7.11-10.67,0.59
	c-5.34-5.93-28.45-8.3-28.45-2.96c0,2.07-1.78,3.56-3.85,3.56c-2.07,0-3.85-2.96-3.85-6.52c0-8-1.78-8-13.63,0.3
	c-8,5.63-8.89,8.3-5.34,15.12c2.37,4.74,7.71,8,12.75,7.71c15.12-1.19,22.23,0,22.23,4.45c0,2.37-7.41,4.15-16.6,4.15h-17.19
	l13.63,8.3c16.89,10.37,17.49,10.37,41.79,2.37c14.52-4.74,22.82-5.34,30.23-2.07c13.04,5.34,14.82,5.34,11.86,0
	c-1.19-2.37-0.59-4.15,1.78-4.15c2.37,0,4.15-1.78,4.15-4.15c0-2.37-3.56-4.15-8-4.15c-9.19,0-20.75-25.19-16.89-36.75
	C452.06,1926.14,452.36,1924.66,451.47,1924.96L451.47,1924.96z M2951.3,1924.96c-0.89,0-2.96,1.78-6.52,5.34
	c-4.74,4.45-8.3,10.37-8.3,13.34c0,6.82-4.74,7.11-10.67,0.59c-5.34-5.93-28.45-8.3-28.45-2.96c0,2.07-1.78,3.56-3.85,3.56
	c-2.07,0-3.85-2.96-3.85-6.52c0-8-1.78-8-13.63,0.3c-8,5.63-8.89,8.3-5.34,15.12c2.37,4.74,7.71,8,12.75,7.71
	c15.12-1.19,22.23,0,22.23,4.45c0,2.37-7.41,4.15-16.6,4.15h-16.6l13.63,8.3c16.89,10.37,17.49,10.37,41.79,2.37
	c14.52-4.74,22.82-5.34,30.23-2.07c13.04,5.34,14.82,5.34,11.86,0c-1.19-2.37-0.59-4.15,1.78-4.15c2.37,0,4.15-1.78,4.15-4.15
	c0-2.37-3.56-4.15-8-4.15c-9.19,0-20.75-25.19-16.89-36.75C2951.6,1926.14,2951.89,1924.66,2951.3,1924.96L2951.3,1924.96z
	 M630.79,1925.84c-4.74,0.3-7.11,3.85-3.85,7.71c3.26,3.56,5.93,3.26,12.15-0.89c3.85-2.67,3.26-4.15-2.96-5.93
	C634.35,1925.84,632.57,1925.55,630.79,1925.84L630.79,1925.84z M3130.62,1925.84c-4.74,0.3-7.11,3.85-3.85,7.71
	c3.26,3.56,5.93,3.26,12.15-0.89c3.85-2.67,3.26-4.15-2.96-5.93C3133.88,1925.84,3132.11,1925.55,3130.62,1925.84L3130.62,1925.84z
	 M606.49,1927.62c-7.41,0-14.23,15.71-11.26,25.79c1.78,6.22,0.89,7.71-3.56,5.93c-4.15-1.78-5.63-7.11-5.04-15.71
	c0.59-9.48-0.89-13.63-5.63-14.82c-9.19-2.07-23.12,14.23-20.16,23.42c5.04,15.41,10.08,18.38,34.09,18.67
	c13.04,0.3,35.27,3.56,49.2,7.41c21.34,6.22,26.08,9.19,31.42,21.04c3.56,8,9.19,13.63,13.34,13.93c12.15,0.3,4.74,10.37-7.41,10.67
	c-8.6,0-11.26,2.07-10.37,7.71c0.89,5.93-1.78,7.41-12.75,7.41c-7.71,0-13.93,2.07-13.93,4.74s3.56,3.85,8,2.37
	c9.19-2.67,31.12,4.45,31.12,10.37c0,2.07,2.67,3.85,5.93,3.85c3.26,0,5.93,1.78,5.93,4.15c0,2.37,2.96,4.45,6.82,4.45
	c3.85,0,11.26,2.96,16.6,6.22c15.12,9.48,15.12,7.41,0-6.52c-7.41-6.82-11.56-12.75-9.19-12.75s7.11,2.96,10.67,6.82
	c3.26,3.56,8,5.34,10.08,4.15c4.74-3.26-0.89-16.6-12.75-30.83c-8-9.48-6.52-18.38,2.37-18.38c2.67,0,8.3,3.85,12.15,8.6
	c8.3,10.08,13.63,10.97,13.63,2.07c0-3.56,1.78-6.52,3.85-6.52s3.85-1.78,3.85-4.15c0-4.15-17.78-14.23-34.68-19.56
	c-7.11-2.37-8.6-5.04-6.82-13.04c2.07-8.89,0.3-10.67-13.34-15.12c-8.89-2.96-14.52-7.11-13.04-9.48c1.48-2.67,0-3.26-4.15-1.48
	c-4.15,1.78-9.48-0.59-14.23-5.63c-8-8.6-25.19-11.56-29.05-4.74c-4.15,7.41-21.93-0.3-24.3-10.67
	C612.71,1932.07,609.45,1927.62,606.49,1927.62L606.49,1927.62z M3106.02,1927.62c-7.41,0-14.23,15.71-11.26,25.79
	c1.78,6.22,0.89,7.71-3.56,5.93c-4.15-1.78-5.63-7.11-5.04-15.71c0.59-9.48-0.89-13.63-5.63-14.82
	c-9.19-2.07-23.12,14.23-20.16,23.42c5.04,15.41,10.08,18.38,34.09,18.67c13.04,0.3,35.27,3.56,49.2,7.41
	c21.34,6.22,26.08,9.19,31.42,21.04c3.56,8,9.19,13.63,13.34,13.93c12.15,0.3,4.74,10.37-7.41,10.67c-8.6,0-11.26,2.07-10.37,7.71
	c0.89,5.93-1.78,7.41-12.75,7.41c-7.71,0-13.93,2.07-13.93,4.74s3.56,3.85,8,2.37c9.19-2.67,31.12,4.45,31.12,10.37
	c0,2.07,2.67,3.85,5.93,3.85c3.26,0,5.93,1.78,5.93,4.15c0,2.37,2.96,4.45,6.82,4.45c3.85,0,11.26,2.96,16.6,6.22
	c15.12,9.48,15.12,7.41,0.3-6.52c-7.41-6.82-11.56-12.75-9.19-12.75s7.11,2.96,10.67,6.82c3.26,3.56,8,5.34,10.08,4.15
	c4.74-3.26-0.89-16.6-12.75-30.83c-8-9.48-6.52-18.38,2.37-18.38c2.67,0,8.3,3.85,12.15,8.6c8.3,10.08,13.63,10.97,13.63,2.07
	c0-3.56,1.78-6.52,3.85-6.52c2.08,0,3.85-1.78,3.85-4.15c0-4.15-17.78-14.23-34.68-19.56c-7.11-2.37-8.6-5.04-6.82-13.04
	c2.07-8.89,0.3-10.67-13.34-15.12c-8.89-2.96-14.52-7.11-13.04-9.48c1.48-2.67,0-3.26-4.15-1.48c-4.15,1.78-9.48-0.59-14.23-5.63
	c-8-8.6-25.19-11.56-29.05-4.74c-4.15,7.41-21.93-0.3-24.3-10.67C3112.54,1932.07,3108.99,1927.62,3106.02,1927.62L3106.02,1927.62z
	 M995.96,1948.96c2.07,0,3.85,1.78,3.85,4.15c0,2.37-1.78,4.15-3.85,4.15c-2.07,0-3.85-1.78-3.85-4.15
	C992.1,1950.74,993.88,1948.96,995.96,1948.96z M3495.49,1948.96c2.07,0,3.85,1.78,3.85,4.15c0,2.37-1.78,4.15-3.85,4.15
	s-3.85-1.78-3.85-4.15C3491.64,1950.74,3493.42,1948.96,3495.49,1948.96z M527.35,1955.48c-0.89,0-1.78,0-2.67,0.3
	c-7.71,3.26-7.11,14.23,1.19,21.04c9.48,7.71,1.78,20.75-13.04,21.64c-6.22,0.3-17.78,2.07-25.49,3.56
	c-10.08,2.07-18.38,0.89-28.45-4.45c-13.93-7.11-14.52-7.11-19.86,0.59c-2.96,4.45-5.63,10.37-5.63,13.34
	c-0.3,7.11-5.93,6.82-11.86-1.19c-2.96-3.85-11.56-6.52-21.64-6.52c-17.49,0-26.08-6.82-16.89-13.34c4.45-2.96,4.45-3.85-0.59-4.45
	c-3.26-0.3-8.3-0.3-10.97,0.3c-2.96,0.3-10.97-1.48-18.38-4.15c-25.79-9.19-56.61-9.19-70.25,0c-6.82,4.74-15.71,8.6-19.56,8.6
	c-5.63,0-5.34-1.48,2.37-8.3l9.19-8.3l-11.86,4.74c-10.08,4.15-11.86,6.52-10.37,16.89c2.07,14.52-2.07,16.01-6.82,2.37
	c-2.67-8-9.78-11.56-37.94-19.27c-18.97-5.34-43.57-10.08-54.24-10.67c-10.67-0.59-21.64-2.67-24.01-4.15
	c-12.15-8.3-34.68-6.52-53.94,3.85c-41.2,22.23-42.39,23.12-36.75,30.53c2.67,3.56,10.97,9.48,18.08,12.75
	c16.89,7.71,12.45,14.23-8.89,13.04c-21.64-0.89-25.49,2.67-13.63,13.93c9.78,9.19,21.64,11.26,25.49,4.45
	c4.15-7.41,9.78-4.74,9.78,4.45c0,5.93-4.45,10.67-13.93,15.12c-7.71,3.56-14.82,8.89-16.01,12.15
	c-2.96,8.89,5.63,23.71,13.93,23.71c3.85,0,9.48,2.96,12.15,6.52c2.67,3.56,10.67,6.52,18.08,6.52c8.3,0,13.34,2.07,13.34,5.63
	c0,7.11-13.63,21.04-29.34,29.94c-6.52,3.85-10.08,6.82-7.71,6.82c15.41,0.59,68.47-47.72,68.47-62.24c0-5.63,11.56-11.86,14.82-8
	c1.19,1.19,0,4.45-2.37,7.41c-6.22,6.82-5.93,11.86,1.48,11.86c3.26,0,7.11-3.26,8.6-7.41c3.85-11.56,9.48-13.63,18.38-7.41
	c7.71,5.34,47.13,18.08,69.95,22.53c6.82,1.19,13.04,6.52,16.6,14.52c3.26,6.82,7.41,12.45,9.48,12.45
	c6.82,0,15.71,13.63,15.71,24.01c0,5.93,2.67,11.56,6.22,13.04c3.26,1.48,5.04,5.04,4.15,8.3c-1.19,3.56,0.59,5.93,4.15,5.93
	c3.85,0,5.34,2.37,3.85,6.22c-1.19,3.56,0.89,7.11,5.04,8.6c9.78,3.26,31.42,27.86,31.42,35.57c0,3.26-2.37,5.04-5.34,3.85
	c-4.15-1.78-5.93,5.63-7.71,31.12c-2.37,35.57,0.89,55.72,10.67,66.69c3.26,3.56,6.22,9.19,6.22,12.45
	c0,2.96,6.82,12.45,15.12,20.75c13.34,13.34,35.57,52.46,35.57,63.13c0,6.22,23.71,42.68,27.86,42.68c2.07,0,0.59-5.34-3.56-11.86
	c-9.48-14.82-28.16-54.83-28.16-60.76c0-11.56,8.89-0.89,34.68,40.9c15.41,24.9,27.86,48.61,27.86,52.76
	c0,4.15,2.96,10.67,6.82,14.23c10.08,9.78,56.32,33.2,60.47,30.23c5.93-3.85,62.24,29.64,69.06,41.2
	c11.86,20.16,33.49,34.09,40.9,25.79c6.82-7.41,10.37-5.04,16.6,11.26c6.82,17.49,4.74,31.42-6.82,49.5
	c-10.67,16.3-15.41,35.57-10.08,41.2c2.96,3.26,2.67,6.22-0.59,10.67c-3.85,5.04-2.67,11.26,4.74,31.12
	c5.34,13.63,11.86,32.6,14.52,42.09c3.26,10.97,13.04,25.49,27.27,40.61l22.53,23.42l-5.04,68.47c-3.26,44.76-7.11,74.4-11.56,85.36
	c-4.74,12.15-6.82,29.94-7.41,61.95c-0.59,40.01-1.19,44.76-7.41,44.46c-8.89-0.89-8.6,0.3,3.56,13.63
	c5.93,6.52,8.6,12.45,6.52,14.23c-2.07,1.48-4.74,9.48-5.93,17.49c-1.48,11.86,0,16.3,8.3,24.3l10.08,9.78l6.82-9.48
	c3.85-5.04,6.82-10.97,6.82-12.75c0-2.07,5.34-11.86,11.86-21.93c9.48-14.82,10.67-18.97,5.93-21.04c-7.41-3.26-7.41-23.71,0-26.68
	c3.26-1.48,5.93-5.93,5.93-10.37c0-4.45,1.48-8.89,3.26-10.08c1.78-1.19,2.67-7.11,1.48-13.04c-1.48-8.6-0.3-10.67,6.22-10.67
	c4.45,0,10.08-3.85,12.15-8.3c2.37-4.74,11.26-10.37,19.86-13.04c18.67-5.33,22.53-13.34,13.93-27.56c-8.6-14.23-8-15.71,3.56-10.08
	c8.3,4.15,11.56,3.56,20.16-3.56c14.52-11.86,33.79-50.98,33.2-67.58c-0.3-11.86,2.07-15.41,18.08-26.68
	c10.08-7.11,23.12-14.23,28.75-15.71c12.45-3.26,22.82-31.71,22.82-62.24c0-15.12,2.96-24.3,13.34-40.9
	c20.75-33.49,21.04-38.53,3.85-55.72c-10.08-10.08-18.67-14.82-26.68-14.82c-6.52,0-18.67-5.04-26.97-10.97
	c-13.63-10.08-15.41-10.37-21.64-4.15c-3.85,3.85-11.26,6.82-16.3,6.82h-9.48l9.78-8.3c11.86-10.08,5.63-11.56-7.11-1.78
	c-13.04,9.78-14.23,4.74-2.67-10.37c5.93-7.71,8.3-14.23,5.93-15.71c-2.07-1.48-4.15-6.22-4.15-10.37
	c0-10.67-10.97-20.16-29.94-25.79c-10.97-3.26-21.34-10.97-32.31-24.01c-12.45-14.52-18.97-19.27-27.86-19.27
	c-6.52,0-17.78-2.67-25.19-6.22c-13.04-5.93-13.63-5.93-16.01,4.15c-3.26,14.23-14.82,14.23-12.45,0
	c1.78-10.37,1.78-10.37-8.89-3.56c-5.93,3.85-12.75,11.86-15.12,17.49c-4.15,9.78-4.74,10.08-11.56,3.56
	c-4.74-4.74-10.67-6.22-18.67-4.45c-15.41,3.26-22.23-5.93-24.9-34.09c-2.07-21.64-2.07-21.93-16.6-23.12
	c-16.3-1.48-17.49-4.74-10.08-31.42c5.34-19.27,3.56-22.82-10.08-18.97c-6.52,1.78-10.08,5.63-10.08,11.26
	c0,10.08-16.6,18.38-28.16,14.52c-21.93-7.71-32.01-73.21-14.23-91.59c7.41-7.41,12.45-9.78,22.82-9.78c1.19,0,8.6,1.19,16.6,2.96
	c11.86,2.37,14.23,1.78,12.45-3.26c-2.96-8.3,8.6-11.56,25.49-7.71c14.23,3.26,16.3,5.93,25.79,32.31
	c8.6,24.01,11.56,16.01,5.63-16.01l-5.04-27.56l18.67-22.53c16.01-19.27,18.38-24.6,16.6-35.86c-1.19-7.41-0.3-16.01,1.48-19.27
	c2.67-4.74,3.56-4.74,3.56-0.3c0,2.96,5.93-1.19,13.34-9.48c7.11-8.3,15.12-15.12,17.49-15.12s4.45-4.45,4.45-10.08
	c0-12.15,4.15-15.71,26.97-25.19c19.27-8,24.01-6.82,14.52,3.56c-3.56,3.85-6.22,7.71-6.22,8.6c0,3.56,30.83-16.01,35.86-22.82
	c4.74-6.52,4.45-6.52-3.85-0.3c-7.71,5.93-10.67,5.93-19.27,1.19c-14.23-8-17.49-15.41-9.48-21.93c11.56-9.78-6.22-7.11-21.34,3.26
	c-17.19,11.56-16.89,4.15,0.59-12.75c10.97-10.37,17.49-13.34,30.53-13.34c9.19,0,25.19-2.96,35.27-6.82
	c15.12-5.63,18.38-8.6,17.19-16.01c-0.89-7.41-3.56-8.89-13.93-8c-14.23,1.19-17.19-5.93-4.45-11.26c7.71-3.26,7.41-3.85-5.04-10.37
	c-9.78-5.04-16.6-13.63-24.6-30.83l-10.97-23.71l-8.6,8.6c-4.74,4.74-11.26,8.6-14.52,8.6c-9.19,0-19.27-13.93-15.12-21.34
	c2.37-4.45,0-8.89-9.78-16.01c-14.23-10.67-40.61-13.63-41.5-4.45c-1.78,22.82-2.96,31.42-3.85,35.27
	c-0.89,2.37,0.89,10.37,3.85,17.78c4.45,11.56,4.15,15.41-0.89,26.38c-3.26,7.11-6.22,19.86-6.22,28.45c0,9.78-2.07,16.3-5.93,17.78
	c-8.89,3.85-24.6-14.52-26.08-29.94c-0.89-10.37-3.56-13.93-10.97-15.41c-17.19-3.85-50.39-23.42-53.06-31.12
	c-1.19-4.15-4.74-7.41-8-7.41c-3.26,0-6.52-4.74-8-10.37c-3.56-14.82,25.19-56.02,41.79-59.58c11.56-2.67,12.75-11.26,1.48-11.26
	c-2.96,0-5.63-1.78-5.63-4.15c0-2.37,5.34-4.15,12.15-4.15c11.56,0,11.86,0.59,10.67,16.01c-1.48,17.78,7.11,24.01,16.01,12.15
	c3.85-5.04,6.82-5.34,12.75-1.78c6.22,3.56,7.41,3.26,6.22-1.19c-0.89-2.96-8.6-9.48-16.89-14.23
	c-17.49-10.08-22.23-19.27-9.78-19.27c16.6,0,23.42-7.41,21.04-22.53c-2.96-16.3-1.48-14.23-11.26-17.49
	c-6.52-2.07-8.6,0-11.86,11.26c-4.15,15.41-14.52,18.67-16.89,5.34c-2.07-12.75-7.41-16.89-13.93-10.97
	c-4.74,4.15-7.11,3.56-13.04-2.67c-4.15-4.45-6.82-10.08-5.93-12.75C543.06,1965.56,533.87,1956.08,527.35,1955.48L527.35,1955.48z
	 M3026.88,1955.48c-0.89,0-1.78,0-2.67,0.3c-7.71,3.26-7.11,14.23,1.19,21.04c9.48,7.71,1.78,20.75-13.04,21.64
	c-6.22,0.3-17.78,2.07-25.49,3.56c-10.08,2.07-18.38,0.89-28.45-4.45c-13.93-7.11-14.52-7.11-19.86,0.59
	c-2.96,4.45-5.63,10.37-5.63,13.34c-0.3,7.11-5.93,6.82-11.86-1.19c-2.96-3.85-11.56-6.52-21.64-6.52
	c-17.49,0-26.08-6.82-16.89-13.34c4.45-2.96,4.45-3.85-0.59-4.45c-3.26-0.3-8.3-0.3-10.97,0.3c-2.96,0.3-10.97-1.48-18.38-4.15
	c-25.79-9.19-56.61-9.19-70.25,0c-6.82,4.74-15.71,8.6-19.56,8.6c-5.63,0-5.34-1.48,2.37-8.3l9.19-8.3l-11.86,4.74
	c-10.08,4.15-11.86,6.52-10.37,16.89c2.07,14.52-2.07,16.01-6.82,2.37c-2.67-8-9.78-11.56-37.94-19.27
	c-18.97-5.34-43.57-10.08-54.24-10.67c-10.67-0.59-21.64-2.67-24.01-4.15c-12.15-8.3-34.68-6.52-53.94,3.85
	c-41.2,22.23-42.39,23.12-36.75,30.53c2.67,3.56,10.97,9.48,18.08,12.75c16.89,7.71,12.45,14.23-8.89,13.04
	c-21.64-0.89-25.49,2.67-13.63,13.93c9.78,9.19,21.64,11.26,25.49,4.45c4.15-7.41,9.78-4.74,9.78,4.45
	c0,5.93-4.45,10.67-13.93,15.12c-7.71,3.56-14.82,8.89-16.01,12.15c-2.96,8.89,5.63,23.71,13.93,23.71c3.85,0,9.48,2.96,12.15,6.52
	c2.67,3.56,10.97,6.52,18.08,6.52c8.3,0,13.34,2.07,13.34,5.63c0,7.11-13.63,21.04-29.34,29.94c-6.52,3.85-10.08,6.82-7.71,6.82
	c15.41,0.59,68.47-47.72,68.47-62.24c0-5.63,11.56-11.86,14.82-8c1.19,1.19,0,4.45-2.37,7.41c-6.22,6.82-5.93,11.86,1.48,11.86
	c3.26,0,7.11-3.26,8.6-7.41c3.85-11.56,9.48-13.63,18.38-7.41c7.71,5.34,47.13,18.08,69.95,22.53c6.82,1.19,13.04,6.52,16.6,14.52
	c3.26,6.82,7.41,12.45,9.48,12.45c6.82,0,15.71,13.63,15.71,24.01c0,5.93,2.67,11.56,6.22,13.04c3.26,1.48,5.04,5.04,4.15,8.3
	c-1.19,3.56,0.59,5.93,4.15,5.93c3.85,0,5.34,2.37,3.85,6.22c-1.19,3.56,0.89,7.11,5.04,8.6c9.78,3.26,31.42,27.86,31.42,35.57
	c0,3.26-2.37,5.04-5.34,3.85c-4.15-1.78-5.93,5.63-7.71,31.12c-2.37,35.57,0.89,55.72,10.67,66.69c3.26,3.56,6.22,9.19,6.22,12.45
	c0,2.96,6.82,12.45,15.12,20.75c13.34,13.34,35.57,52.46,35.57,63.13c0,6.22,23.71,42.68,27.86,42.68c2.07,0,0.59-5.34-3.56-11.86
	c-9.48-14.82-28.16-54.83-28.16-60.76c0-11.56,8.89-0.89,34.68,40.9c15.41,24.9,27.86,48.61,27.86,52.76
	c0,4.15,2.96,10.67,6.82,14.23c10.08,9.78,56.32,33.2,60.47,30.23c5.93-3.85,62.24,29.64,69.06,41.2
	c11.86,20.16,33.49,34.09,40.9,25.79c6.82-7.41,10.37-5.04,16.6,11.26c6.82,17.49,4.74,31.42-6.82,49.5
	c-10.67,16.3-15.41,35.57-10.08,41.2c2.96,3.26,2.67,6.22-0.59,10.67c-3.85,5.04-2.67,11.26,4.74,31.12
	c5.34,13.63,11.86,32.6,14.52,42.09c3.26,10.97,13.04,25.49,27.27,40.61l22.53,23.42l-5.04,68.47c-3.26,44.76-7.11,74.4-11.56,85.36
	c-4.74,12.15-6.82,29.94-7.41,61.95c-0.59,40.01-1.19,44.76-7.41,44.46c-8.89-0.89-8.6,0.3,3.56,13.63
	c5.93,6.52,8.6,12.45,6.52,14.23c-2.07,1.48-4.74,9.48-5.93,17.49c-1.48,11.86,0,16.3,8.3,24.3l10.08,9.78l6.82-9.48
	c3.85-5.04,6.82-10.97,6.82-12.75c0-2.07,5.34-11.86,11.86-21.93c9.48-14.82,10.67-18.97,5.93-21.04c-7.41-3.26-7.41-23.71,0-26.68
	c3.26-1.48,5.93-5.93,5.93-10.37c0-4.45,1.48-8.89,3.26-10.08c1.78-1.19,2.67-7.11,1.48-13.04c-1.48-8.6-0.3-10.67,6.22-10.67
	c4.45,0,10.08-3.85,12.15-8.3c2.37-4.74,11.26-10.37,19.86-13.04c18.67-5.33,22.53-13.34,13.93-27.56c-8.6-14.23-8-15.71,3.56-10.08
	c8.3,4.15,11.56,3.56,20.16-3.56c14.52-11.86,33.79-50.98,33.2-67.58c-0.3-11.86,2.07-15.41,18.08-26.68
	c10.08-7.11,23.12-14.23,28.75-15.71c12.45-3.26,22.82-31.71,22.82-62.24c0-15.12,2.96-24.3,13.34-40.9
	c20.75-33.49,21.04-38.53,3.85-55.72c-10.08-10.08-18.67-14.82-26.68-14.82c-6.52,0-18.67-5.04-26.97-10.97
	c-13.63-10.08-15.41-10.37-21.64-4.15c-3.85,3.85-11.26,6.82-16.3,6.82h-9.48l9.78-8.3c11.86-10.08,5.63-11.56-7.11-1.78
	c-13.04,9.78-14.23,4.74-2.67-10.37c5.93-7.71,8.3-14.23,5.93-15.71c-2.07-1.48-4.15-6.22-4.15-10.37
	c0-10.67-10.97-20.16-29.94-25.79c-10.97-3.26-21.34-10.97-32.31-24.01c-12.45-14.52-18.97-19.27-27.86-19.27
	c-6.52,0-17.78-2.67-25.19-6.22c-13.04-5.93-13.63-5.93-16.01,4.15c-3.26,14.23-14.82,14.23-12.45,0
	c1.78-10.37,1.78-10.37-8.89-3.56c-5.93,3.85-12.75,11.86-15.12,17.49c-4.15,9.78-4.74,10.08-11.56,3.56
	c-4.74-4.74-10.67-6.22-18.67-4.45c-15.41,3.26-22.23-5.93-24.9-34.09c-2.07-21.64-2.07-21.93-16.6-23.12
	c-16.3-1.48-17.49-4.74-10.08-31.42c5.34-19.27,3.56-22.82-10.08-18.97c-6.52,1.78-10.08,5.63-10.08,11.26
	c0,10.08-16.6,18.38-28.16,14.52c-21.93-7.71-32.01-73.21-14.23-91.59c7.41-7.41,12.45-9.78,22.82-9.78c1.19,0,8.6,1.19,16.6,2.96
	c11.86,2.37,14.23,1.78,12.45-3.26c-2.96-8.3,8.6-11.56,25.49-7.71c14.23,3.26,16.3,5.93,25.79,32.31
	c8.6,24.01,11.56,16.01,5.63-16.01l-5.04-27.56l18.67-22.53c16.01-19.27,18.38-24.6,16.6-35.86c-1.19-7.41-0.3-16.01,1.48-19.27
	c2.67-4.74,3.56-4.74,3.56-0.3c0,2.96,5.93-1.19,13.34-9.48c7.11-8.3,15.12-15.12,17.49-15.12s4.45-4.45,4.45-10.08
	c0-12.15,4.15-15.71,26.97-25.19c19.27-8,24.01-6.82,14.52,3.56c-3.56,3.85-6.22,7.71-6.22,8.6c0,3.56,30.83-16.01,35.86-22.82
	c4.74-6.52,4.45-6.52-3.85-0.3c-7.71,5.93-10.67,5.93-19.27,1.19c-14.23-8-17.49-15.41-9.48-21.93c11.56-9.78-6.22-7.11-21.34,3.26
	c-17.19,11.56-16.89,4.15,0.59-12.75c10.97-10.37,17.49-13.34,30.53-13.34c9.19,0,25.19-2.96,35.27-6.82
	c15.12-5.63,18.38-8.6,17.19-16.01c-0.89-7.41-3.56-8.89-13.93-8c-14.23,1.19-17.19-5.93-4.45-11.26c7.71-3.26,7.41-3.85-5.04-10.37
	c-9.78-5.04-16.6-13.63-24.6-30.83l-10.97-23.71l-8.6,8.6c-4.74,4.74-11.26,8.6-14.52,8.6c-9.19,0-19.27-13.93-15.12-21.34
	c2.37-4.45,0-8.89-9.78-16.01c-14.23-10.67-40.61-13.63-41.5-4.45c-1.78,22.82-2.96,31.42-3.85,35.27
	c-0.89,2.37,0.89,10.37,3.85,17.78c4.45,11.56,4.15,15.41-0.89,26.38c-3.26,7.11-6.22,19.86-6.22,28.45c0,9.78-2.07,16.3-5.93,17.78
	c-8.89,3.85-24.6-14.52-26.08-29.94c-0.89-10.37-3.56-13.93-10.97-15.41c-17.19-3.85-50.39-23.42-53.06-31.12
	c-1.19-4.15-4.74-7.41-8-7.41c-3.26,0-6.52-4.74-8-10.37c-3.56-14.82,25.19-56.02,41.79-59.58c11.56-2.67,12.75-11.26,1.48-11.26
	c-2.96,0-5.63-1.78-5.63-4.15c0-2.37,5.34-4.15,12.15-4.15c11.56,0,11.86,0.59,10.67,16.01c-1.48,17.78,7.11,24.01,16.01,12.15
	c3.85-5.04,6.82-5.34,12.75-1.78c6.22,3.56,7.41,3.26,6.22-1.19c-0.89-2.96-8.6-9.48-16.89-14.23
	c-17.49-10.08-22.23-19.27-9.78-19.27c16.6,0,23.42-7.41,21.04-22.53c-2.96-16.3-1.48-14.23-11.26-17.49
	c-6.52-2.07-8.6,0-11.86,11.26c-4.15,15.41-14.52,18.67-16.89,5.34c-2.07-12.75-7.41-16.89-13.93-10.97
	c-4.74,4.15-7.11,3.56-13.04-2.67c-4.15-4.45-6.82-10.08-5.93-12.75C3042.89,1965.56,3033.7,1956.08,3026.88,1955.48
	L3026.88,1955.48z M2435.86,1958.15c-2.07,0-4.15,0.3-5.34,0.89c-2.67,1.19,0.59,2.07,6.82,2.07c6.52,0,8.6-1.19,4.74-2.07
	C2440.01,1958.15,2437.94,1957.86,2435.86,1958.15L2435.86,1958.15z M4935.4,1958.15c-2.07,0-4.15,0.3-5.34,0.89
	c-2.67,1.19,0.59,2.07,6.82,2.07c6.52,0,8.6-1.19,4.74-2.07C4939.84,1958.15,4937.47,1957.86,4935.4,1958.15z M1595.87,1968.23
	c-1.48,0.3-2.67,0.89-3.26,1.78c-1.19,2.07,0,4.74,2.67,5.93c7.71,3.56,10.67,3.26,10.67-0.89
	C1606.24,1970.9,1600.02,1967.64,1595.87,1968.23L1595.87,1968.23z M4095.4,1968.23c-1.48,0.3-2.67,0.89-3.26,1.78
	c-1.19,2.07,0,4.74,2.67,5.93c7.71,3.56,10.67,3.26,10.67-0.89C4105.78,1970.9,4099.55,1967.64,4095.4,1968.23L4095.4,1968.23z
	 M502.75,1978.01c-5.04,0.3-8.3,3.85-5.34,9.19c1.78,2.96,6.82,4.15,12.45,2.37c6.82-1.78,8.89-1.19,6.82,2.37
	c-1.78,2.96-0.89,4.15,2.37,3.26c2.96-1.19,5.93-4.74,6.82-8s0.3-4.74-1.48-2.96s-6.82,0.59-11.56-2.96
	C509.57,1978.9,506.01,1978.01,502.75,1978.01L502.75,1978.01z M3002.58,1978.01c-5.04,0.3-8.3,3.85-5.34,9.19
	c1.78,2.96,6.82,4.15,12.45,2.37c6.82-1.78,8.89-1.19,6.82,2.37c-1.78,2.96-0.89,4.15,2.37,3.26c2.96-1.19,5.93-4.74,6.82-8
	c0.89-3.26,0.3-4.74-1.48-2.96s-6.82,0.59-11.56-2.96C3009.4,1978.9,3005.54,1978.01,3002.58,1978.01L3002.58,1978.01z
	 M1528.29,1979.49c-1.19,0-2.37,0.3-4.15,1.48c-2.37,1.48-3.26,4.74-1.78,7.11c1.78,2.96,3.85,2.96,6.52-0.3
	C1533.03,1983.64,1531.85,1979.49,1528.29,1979.49L1528.29,1979.49z M4028.12,1979.49c-1.19,0-2.37,0.3-4.15,1.48
	c-2.37,1.48-3.26,4.74-1.78,7.11c1.78,2.96,3.85,2.96,6.52-0.3C4032.57,1983.64,4031.38,1979.49,4028.12,1979.49L4028.12,1979.49z
	 M652.13,2000.24c-2.07,0-3.85,1.78-3.85,4.15c0,2.37,1.78,4.15,3.85,4.15c2.07,0,3.85-1.78,3.85-4.15
	C655.99,2002.02,654.21,2000.24,652.13,2000.24z M3151.67,2000.24c-2.07,0-3.85,1.78-3.85,4.15c0,2.37,1.78,4.15,3.85,4.15
	c2.07,0,3.85-1.78,3.85-4.15C3155.52,2002.02,3153.74,2000.24,3151.67,2000.24z M1071.54,2022.17c-6.82-0.59-16.3,2.67-29.05,9.48
	c-15.71,8.3-17.19,10.37-11.86,14.52c9.19,6.82,25.79,6.52,41.79-0.89c14.52-6.52,16.3-10.37,8.89-18.67
	C1078.95,2023.95,1075.69,2022.17,1071.54,2022.17L1071.54,2022.17z M3571.07,2022.17c-6.82-0.59-16.3,2.67-29.05,9.48
	c-15.71,8.3-17.19,10.37-11.86,14.52c9.19,6.82,25.79,6.52,41.79-0.89c14.52-6.52,16.3-10.37,8.89-18.67
	C3578.48,2023.95,3575.22,2022.17,3571.07,2022.17L3571.07,2022.17z M1027.08,2026.32c-1.48,0-2.96,0.3-4.45,0.89
	c-3.26,1.48-2.07,2.37,2.37,2.67c4.15,0.3,6.52-0.89,5.04-2.37C1029.75,2026.92,1028.56,2026.32,1027.08,2026.32z M3526.91,2026.32
	c-1.48,0-2.96,0.3-4.45,0.89c-3.26,1.48-2.07,2.37,2.37,2.67c4.15,0.3,6.52-0.89,5.04-2.37
	C3529.28,2026.92,3528.09,2026.32,3526.91,2026.32z M3.61,2055.96c-2.96,0-4.45,1.48-2.67,4.15c1.19,2.37,6.22,4.15,10.97,4.15
	c7.11,0,7.41-0.89,2.67-4.15C10.73,2057.45,6.58,2055.96,3.61,2055.96L3.61,2055.96z M2503.44,2055.96c-2.96,0-4.45,1.48-2.67,4.15
	c1.19,2.37,6.22,4.15,10.97,4.15c7.11,0,7.41-0.89,2.67-4.15C2510.56,2057.45,2506.11,2055.96,2503.44,2055.96L2503.44,2055.96z
	 M605.3,2068.71c-2.07,0-3.85,1.78-3.85,4.15s1.78,4.15,3.85,4.15c2.07,0,3.85-1.78,3.85-4.15S607.38,2068.71,605.3,2068.71z
	 M628.72,2068.71c-2.07,0-3.85,2.96-3.85,6.52c0,3.56,1.78,5.33,3.85,4.15c2.07-1.19,3.85-4.45,3.85-6.52
	C632.57,2070.49,630.79,2068.71,628.72,2068.71z M3104.84,2068.71c-2.07,0-3.85,1.78-3.85,4.15s1.78,4.15,3.85,4.15
	c2.07,0,3.85-1.78,3.85-4.15S3106.91,2068.71,3104.84,2068.71z M3128.25,2068.71c-2.07,0-3.85,2.96-3.85,6.52
	c0,3.56,1.78,5.33,3.85,4.15c2.07-1.19,3.85-4.45,3.85-6.52C3132.11,2070.49,3130.33,2068.71,3128.25,2068.71z M1135.56,2072.86
	c-0.89,0-2.37,3.85-3.56,8.6c-1.19,4.74-0.59,8.6,1.48,8.6s3.56-3.85,3.56-8.6C1137.04,2076.71,1136.45,2072.86,1135.56,2072.86z
	 M3635.09,2072.86c-0.89,0-2.37,3.85-3.56,8.6c-1.19,4.74-0.59,8.6,1.48,8.6s3.56-3.85,3.56-8.6
	C3636.58,2076.71,3635.98,2072.86,3635.09,2072.86z M1400.54,2081.45c4.45,0.3,10.37,5.34,10.37,10.37c0,8.6-11.26,8.6-14.23,0
	c-1.19-3.56-1.19-7.71,0-9.19C1397.58,2081.75,1398.76,2081.45,1400.54,2081.45L1400.54,2081.45z M3900.08,2081.45
	c4.45,0.3,10.37,5.34,10.37,10.37c0,8.6-11.26,8.6-14.23,0c-1.19-3.56-1.19-7.71,0-9.19
	C3897.11,2081.75,3898.59,2081.45,3900.08,2081.45L3900.08,2081.45z M1176.17,2090.05c-2.07,0-3.85,1.78-3.85,4.15
	s1.78,4.15,3.85,4.15s3.85-2.07,3.85-4.15C1180.02,2091.83,1178.24,2090.05,1176.17,2090.05z M3675.7,2090.05
	c-2.07,0-3.85,1.78-3.85,4.15s1.78,4.15,3.85,4.15s3.85-2.07,3.85-4.15C3679.85,2091.83,3678.07,2090.05,3675.7,2090.05z
	 M1161.35,2111.39c-6.82,0-16.89,18.97-15.41,29.34c0.59,5.04,5.34,13.34,10.08,18.08c8,8.3,8.3,9.48,2.67,16.3
	c-6.82,8.3-8,17.49-2.07,17.49c6.52,0,4.45,7.71-2.96,10.08c-3.85,1.19,2.07,1.19,12.75-0.3c10.67-1.19,20.75-3.26,22.53-4.15
	c4.45-2.67,3.56-14.23-0.89-14.23c-2.07,0-5.04-4.74-6.22-10.37c-1.19-5.63-6.52-14.52-11.56-19.86c-7.41-7.41-8.6-11.26-5.34-17.49
	c2.96-6.22,2.67-8-2.07-8c-7.11,0-7.71-5.04-1.19-11.86C1164.9,2112.58,1164.9,2111.39,1161.35,2111.39L1161.35,2111.39z
	 M3661.18,2111.39c-6.82,0-16.89,18.97-15.41,29.34c0.59,5.04,5.34,13.34,10.08,18.08c8,8.3,8.3,9.48,2.67,16.3
	c-6.82,8.3-8,17.49-2.07,17.49c6.52,0,4.45,7.71-2.96,10.08c-3.85,1.19,2.07,1.19,12.75-0.3c10.67-1.19,20.75-3.26,22.53-4.15
	c4.45-2.67,3.56-14.23-0.89-14.23c-2.07,0-5.04-4.74-6.22-10.37c-1.19-5.63-6.52-14.52-11.56-19.86c-7.41-7.41-8.6-11.26-5.34-17.49
	c2.96-6.22,2.67-8-2.07-8c-7.11,0-7.71-5.04-1.19-11.86C3664.44,2112.58,3664.44,2111.39,3661.18,2111.39L3661.18,2111.39z
	 M128.69,2120.28c-3.85,0.3-12.45,8.89-12.45,13.63c0,2.37,3.56,0.89,7.71-3.26c4.45-4.15,7.11-8.6,5.93-9.78
	C129.88,2120.28,129.29,2120.28,128.69,2120.28L128.69,2120.28z M2628.52,2120.28c-3.85,0.3-12.45,8.89-12.45,13.63
	c0,2.37,3.56,0.89,7.71-3.26c4.45-4.15,7.11-8.6,5.93-9.78C2629.41,2120.28,2629.12,2120.28,2628.52,2120.28L2628.52,2120.28z
	 M1313.4,2128.29c-2.37,0-4.15,1.78-4.15,4.15c0,2.37,0.89,4.15,1.78,4.15s2.67-1.78,4.15-4.15
	C1316.36,2130.36,1315.77,2128.29,1313.4,2128.29z M3812.93,2128.29c-2.37,0-4.15,1.78-4.15,4.15c0,2.37,0.89,4.15,1.78,4.15
	s2.67-1.78,4.15-4.15C3816.19,2130.36,3815.31,2128.29,3812.93,2128.29z M258.52,2146.96c-0.59,0-0.89,1.48-1.19,4.45
	c-0.3,4.45,0.89,7.11,2.07,5.63c1.19-1.48,1.48-5.04,0.3-8.3C259.4,2147.85,258.81,2146.96,258.52,2146.96L258.52,2146.96z
	 M2758.35,2146.96c-0.59,0-0.89,1.48-1.19,4.45c-0.3,4.45,0.89,7.11,2.07,5.63c1.19-1.48,1.48-5.04,0.3-8.3
	C2758.94,2147.85,2758.64,2146.96,2758.35,2146.96L2758.35,2146.96z M1134.38,2157.63c-6.82,0.59-18.97,12.45-15.12,16.6
	c1.19,1.19,0.3,5.93-1.78,10.37c-4.45,9.48-3.56,9.78,10.08,2.96c11.56-5.93,17.49-24.01,9.48-29.34
	C1136.15,2157.63,1135.26,2157.33,1134.38,2157.63L1134.38,2157.63z M3633.91,2157.63c-6.82,0.59-18.97,12.45-15.12,16.6
	c1.19,1.19,0.3,5.93-1.78,10.37c-4.45,9.48-3.56,9.78,10.08,2.96c11.56-5.93,17.49-24.01,9.48-29.34
	C3635.69,2157.63,3635.09,2157.33,3633.91,2157.63L3633.91,2157.63z M28.81,2164.15c-1.48-0.3-2.37,0.59-2.37,2.67
	c0,2.37,1.78,4.45,3.85,4.45s3.85-0.89,3.85-1.78s-1.78-2.96-3.85-4.45C29.99,2164.45,29.4,2164.15,28.81,2164.15L28.81,2164.15z
	 M2528.64,2164.15c-1.48-0.3-2.37,0.59-2.37,2.67c0,2.37,1.78,4.45,3.85,4.45c2.07,0,3.85-0.89,3.85-1.78s-1.78-2.96-3.85-4.45
	C2529.53,2164.45,2528.93,2164.15,2528.64,2164.15L2528.64,2164.15z M2175.63,2166.22c-0.59-0.3-1.48,1.19-2.37,4.45
	c-1.78,5.34-2.07,20.75-0.89,34.09c1.48,13.34,3.26,21.93,4.15,18.97c0.89-2.96,3.56-4.15,5.93-2.37c2.96,1.78,3.26,0.3,1.19-5.34
	c-1.78-4.45-4.15-18.67-5.04-31.71C2177.4,2172.15,2176.81,2166.52,2175.63,2166.22L2175.63,2166.22z M4675.16,2166.22
	c-0.59-0.3-1.48,1.19-2.37,4.45c-1.78,5.34-2.07,20.75-0.89,34.09c1.19,13.34,3.26,21.93,4.15,18.97c0.89-2.96,3.56-4.15,5.93-2.37
	c2.96,1.78,3.26,0.3,1.19-5.34c-1.78-4.45-4.15-18.67-5.04-31.71C4677.23,2172.15,4676.34,2166.52,4675.16,2166.22L4675.16,2166.22z
	 M614.79,2175.41c-0.89,0-1.48,2.96-1.48,6.52c0,3.56,1.78,6.52,3.85,6.52c2.07,0,2.67-2.96,1.48-6.52
	C617.16,2178.38,615.68,2175.41,614.79,2175.41z M3114.32,2175.41c-0.89,0-1.48,2.96-1.48,6.52c0,3.56,1.78,6.52,3.85,6.52
	c2.07,0,2.67-2.96,1.48-6.52C3116.99,2178.38,3115.21,2175.41,3114.32,2175.41z M262.67,2184.3c-0.89-0.3-0.59,1.19,0.89,5.04
	c1.48,4.15,3.56,6.52,4.74,5.33c1.19-1.19,0-4.74-2.67-7.71C264.15,2185.49,263.26,2184.6,262.67,2184.3z M2762.2,2184.3
	c-0.89-0.3-0.59,1.19,0.89,5.04c1.48,4.15,3.56,6.52,4.74,5.33c1.19-1.19,0-4.74-2.67-7.71
	C2763.98,2185.49,2762.79,2184.6,2762.2,2184.3z M795,2209.8c-1.78,0-5.93,2.37-11.86,6.52c-5.34,3.85-9.48,10.67-9.48,15.41
	c0,7.41,1.78,8.3,13.63,5.63c7.71-1.48,13.63-1.19,13.34,0.59c-0.3,1.78-0.3,4.74,0,6.22c0.3,1.48,4.45,1.78,9.19,0.3
	c4.74-1.48,6.52-3.26,3.85-4.15c-2.67-0.89-4.74-5.34-4.74-10.08c0-5.93-2.67-8.3-10.37-8.3c-8.6,0-9.48-0.89-5.34-6.52
	C796.48,2211.87,796.78,2209.8,795,2209.8L795,2209.8z M3294.83,2209.8c-1.78,0-5.93,2.37-11.86,6.52
	c-5.34,3.85-9.48,10.67-9.48,15.41c0,7.41,1.78,8.3,13.63,5.63c7.71-1.48,13.63-1.19,13.34,0.59c-0.3,1.78-0.3,4.74,0,6.22
	s4.45,1.78,9.19,0.3c4.74-1.48,6.52-3.26,3.85-4.15c-2.67-0.89-4.74-5.34-4.74-10.08c0-5.93-2.67-8.3-10.37-8.3
	c-8.6,0-9.48-0.89-5.34-6.52C3296.01,2211.87,3296.61,2209.8,3294.83,2209.8L3294.83,2209.8z M745.2,2218.09
	c-7.11,0-7.71,0.89-2.96,4.15c7.71,5.34,11.86,5.34,11.86,0C754.1,2220.17,750.24,2218.09,745.2,2218.09z M3245.03,2218.09
	c-7.11,0-7.71,0.89-2.96,4.15c7.71,5.34,11.86,5.34,11.86,0C3253.63,2220.17,3249.78,2218.09,3245.03,2218.09L3245.03,2218.09z
	 M575.37,2231.73c4.74,0.59,9.48,4.45,15.41,11.56c5.63,6.82,15.41,13.63,22.23,15.41c10.97,2.67,17.19,10.67,8,10.67
	c-2.07,0-3.85,2.96-3.85,6.52c0,3.56-0.89,6.52-2.37,6.52c-3.85,0-11.86-10.08-14.82-18.97c-1.78-5.04-4.15-6.82-6.52-4.15
	c-2.07,2.07-6.22,11.56-9.19,21.04l-5.34,16.89l-2.07-14.82c-1.78-11.86-0.3-16.3,5.93-21.93c10.08-8.6,4.74-12.75-17.19-13.04
	l-16.3-0.3l9.48-8C565.29,2233.51,570.62,2231.14,575.37,2231.73L575.37,2231.73z M3074.9,2231.73c4.74,0.59,9.48,4.45,15.41,11.56
	c5.63,6.82,15.41,13.63,22.23,15.41c10.97,2.67,17.19,10.67,8,10.67c-2.07,0-3.85,2.96-3.85,6.52c0,3.56-0.89,6.52-2.37,6.52
	c-3.85,0-11.86-10.08-14.82-18.97c-1.78-5.04-4.15-6.82-6.52-4.15c-2.07,2.07-6.22,11.56-9.19,21.04l-5.34,16.89l-2.07-14.82
	c-1.78-11.86-0.3-16.3,5.93-21.93c10.08-8.6,4.74-12.75-17.19-13.04l-16.3-0.3l9.48-8
	C3065.12,2233.51,3070.16,2231.14,3074.9,2231.73L3074.9,2231.73z M2174.74,2232.32c-0.59,0.59-0.59,3.26-0.89,8.3
	c-0.3,6.52,1.48,11.86,3.56,11.86c4.45,0,4.45-3.26,0-14.82C2176.22,2233.51,2175.33,2231.73,2174.74,2232.32L2174.74,2232.32z
	 M4674.57,2232.32c-0.59,0.59-0.59,3.26-0.89,8.3c-0.3,6.52,1.48,11.86,3.56,11.86c4.45,0,4.45-3.26,0-14.82
	C4675.75,2233.51,4675.16,2231.73,4674.57,2232.32L4674.57,2232.32z M650.36,2239.44c3.56,0,5.34,1.78,3.85,4.15
	c-1.19,2.37-2.96,4.15-3.85,4.15s-2.67-1.78-3.85-4.15C645.32,2241.51,647.09,2239.44,650.36,2239.44z M3150.19,2239.44
	c3.56,0,5.34,1.78,3.85,4.15c-1.19,2.37-2.96,4.15-3.85,4.15s-2.67-1.78-3.85-4.15C3144.85,2241.51,3146.63,2239.44,3150.19,2239.44
	z M1542.81,2248.33c5.34,0,9.19,2.07,9.19,6.22c0,3.56-2.37,6.52-5.34,6.52s-6.22,3.56-7.11,7.71c-2.37,9.78,9.48,34.09,15.41,32.01
	c2.37-0.89,5.63,0.3,6.82,2.96c1.48,2.37-0.3,4.45-3.85,4.45c-4.74,0-5.63,2.07-3.85,7.41c5.34,15.41,6.82,31.12,2.96,31.12
	c-2.37,0-6.52,1.19-9.48,2.37s-9.48-1.19-14.23-5.34c-7.41-6.52-8-9.48-4.74-18.97c2.96-8.89,2.37-14.82-3.56-27.56
	c-9.78-21.34-9.48-33.79,1.19-42.09C1530.96,2250.4,1537.77,2248.33,1542.81,2248.33L1542.81,2248.33z M4042.64,2248.33
	c5.34,0,9.19,2.07,9.19,6.22c0,3.56-2.37,6.52-5.34,6.52c-2.96,0-6.22,3.56-7.11,7.71c-2.37,9.78,9.48,34.09,15.41,32.01
	c2.37-0.89,5.63,0.3,6.82,2.96c1.48,2.37-0.3,4.45-3.85,4.45c-4.74,0-5.63,2.07-3.85,7.41c5.34,15.41,6.82,31.12,2.96,31.12
	c-2.37,0-6.52,1.19-9.48,2.37c-2.96,1.19-9.48-1.19-14.23-5.34c-7.41-6.52-8-9.48-4.74-18.97c2.96-8.89,2.37-14.82-3.56-27.56
	c-9.78-21.34-9.48-33.79,1.19-42.09C4030.79,2250.4,4037.31,2248.33,4042.64,2248.33L4042.64,2248.33z M1602.98,2256.63
	c2.07,0,3.85,2.67,3.85,5.93c0,7.11-9.48,16.6-13.04,12.75C1590.53,2271.74,1597.94,2256.63,1602.98,2256.63L1602.98,2256.63z
	 M4102.52,2256.63c2.07,0,3.85,2.67,3.85,5.93c0,7.11-9.48,16.6-13.04,12.75C4090.36,2271.74,4097.77,2256.63,4102.52,2256.63z
	 M2167.92,2263.15c-1.78,0-1.78,2.07-1.78,6.22c0,4.45-2.96,10.08-6.52,12.15c-4.15,2.37-5.63,6.82-3.85,11.26
	c2.67,8,13.34,6.22,29.05-5.04c11.56-8.3,10.97-10.37-5.04-18.97C2172.96,2264.93,2169.7,2263.15,2167.92,2263.15L2167.92,2263.15z
	 M4667.45,2263.15c-1.78,0-1.78,2.07-1.78,6.22c0,4.45-2.96,10.08-6.52,12.15c-4.15,2.37-5.63,6.82-3.85,11.26
	c2.67,8,13.34,6.22,29.05-5.04c11.56-8.3,10.97-10.37-5.04-18.97C4672.79,2264.93,4669.23,2263.15,4667.45,2263.15L4667.45,2263.15z
	 M650.36,2275.6c1.19,0,2.07,0.59,2.07,1.48c0,1.78-9.78,8.3-21.64,14.82c-24.6,13.34-28.16,12.15-6.82-2.37
	C637.31,2280.63,646.5,2275.6,650.36,2275.6L650.36,2275.6z M3150.19,2275.6c1.19,0,2.07,0.59,2.07,1.48
	c0,1.78-9.78,8.3-21.64,14.82c-24.6,13.34-28.16,12.15-6.82-2.37C3136.85,2280.63,3146.33,2275.6,3150.19,2275.6L3150.19,2275.6z
	 M2159.92,2307.9c-3.56,0-5.63,4.15-5.63,10.67c0,5.93-2.67,11.86-5.93,13.34s-5.93,5.04-5.93,8.3c0,3.26-3.26,5.93-7.41,5.93
	s-8.3,2.96-9.78,6.52c-1.19,3.56-5.04,6.52-8.3,6.52s-11.86,3.26-18.67,7.41s-13.93,6.82-16.01,6.22c-1.78-0.59-2.07,2.37-0.59,6.52
	s3.85,11.86,4.74,17.19c2.37,12.45,6.52,12.15,12.15-1.19c2.37-5.93,7.11-10.67,10.67-10.67c4.74,0,5.63-2.37,3.56-9.48
	c-2.67-9.48-2.67-9.48,5.63-1.48c6.52,6.22,9.48,7.11,13.04,3.26c2.67-2.67,9.19-5.04,15.12-5.04c9.48,0,10.97-2.37,17.19-27.56
	C2170.88,2316.5,2169.99,2307.9,2159.92,2307.9L2159.92,2307.9z M4659.75,2307.9c-3.56,0-5.63,4.15-5.63,10.67
	c0,5.93-2.67,11.86-5.93,13.34s-5.93,5.04-5.93,8.3c0,3.26-3.26,5.93-7.41,5.93c-4.15,0-8.3,2.96-9.78,6.52
	c-1.19,3.56-5.04,6.52-8.3,6.52s-11.86,3.26-18.67,7.41s-13.93,6.82-16.01,6.22c-1.78-0.59-2.07,2.37-0.59,6.52
	s3.85,11.86,4.74,17.19c2.37,12.45,6.52,12.15,12.15-1.19c2.37-5.93,7.11-10.67,10.67-10.67c4.74,0,5.63-2.37,3.56-9.48
	c-2.67-9.48-2.67-9.48,5.63-1.48c6.52,6.22,9.48,7.11,13.04,3.26c2.67-2.67,9.19-5.04,15.12-5.04c9.48,0,10.97-2.37,17.19-27.56
	C4670.42,2316.5,4669.53,2307.9,4659.75,2307.9L4659.75,2307.9z M1216.18,2312.05c-2.07,0-5.04,1.78-6.22,4.15
	c-1.19,2.37-0.59,4.15,1.48,4.15s5.04-1.78,6.22-4.15C1218.85,2314.13,1218.26,2312.05,1216.18,2312.05L1216.18,2312.05z
	 M1247.01,2312.05c-2.07,0-3.85,1.78-3.85,4.15s1.78,4.15,3.85,4.15s3.85-1.78,3.85-4.15S1249.08,2312.05,1247.01,2312.05z
	 M3715.72,2312.05c-2.07,0-5.04,1.78-6.22,4.15c-1.19,2.37-0.59,4.15,1.48,4.15c2.07,0,5.04-1.78,6.22-4.15
	C3718.68,2314.13,3717.79,2312.05,3715.72,2312.05L3715.72,2312.05z M3746.54,2312.05c-2.07,0-3.85,1.78-3.85,4.15
	s1.78,4.15,3.85,4.15c2.07,0,3.85-1.78,3.85-4.15S3748.62,2312.05,3746.54,2312.05z M1281.98,2337.84c-4.45,0-7.11,1.78-5.63,4.15
	c1.19,2.37,5.04,4.15,8,4.15s5.63-1.78,5.63-4.15S1286.43,2337.84,1281.98,2337.84z M3781.52,2337.84c-4.45,0-7.11,1.78-5.63,4.15
	c1.19,2.37,5.04,4.15,8,4.15c2.96,0,5.63-1.78,5.63-4.15C3789.81,2339.62,3785.96,2337.84,3781.52,2337.84z M1415.07,2359.18
	c-2.07,0-3.85,1.78-3.85,4.15c0,2.37,1.78,4.15,3.85,4.15s3.85-1.78,3.85-4.15C1419.21,2361.25,1417.44,2359.18,1415.07,2359.18z
	 M3914.9,2359.18c-2.07,0-3.85,1.78-3.85,4.15c0,2.37,1.78,4.15,3.85,4.15c2.07,0,3.85-1.78,3.85-4.15
	C3918.75,2361.25,3916.97,2359.18,3914.9,2359.18z M2072.18,2444.54c-2.07,0-3.85,1.78-3.85,4.15c0,2.37,1.78,4.15,3.85,4.15
	c2.07,0,3.85-1.78,3.85-4.15C2076.33,2446.62,2074.55,2444.54,2072.18,2444.54z M4572.01,2444.54c-2.07,0-3.85,1.78-3.85,4.15
	c0,2.37,1.78,4.15,3.85,4.15c2.07,0,3.85-1.78,3.85-4.15C4575.87,2446.62,4574.09,2444.54,4572.01,2444.54z M2023.28,2469.44
	c-0.59,0.3-0.89,2.96-0.89,7.41c0,7.11,0.59,10.37,1.78,7.71c1.19-2.96,1.19-8.6,0-12.75
	C2023.87,2470.03,2023.57,2469.14,2023.28,2469.44L2023.28,2469.44z M4522.81,2469.44c-0.59,0.3-0.89,2.96-0.89,7.41
	c0,7.11,0.59,10.37,1.78,7.71c1.19-2.67,1.19-8.6,0-12.75C4523.4,2470.03,4523.11,2469.14,4522.81,2469.44L4522.81,2469.44z
	 M650.65,2474.78c-2.07,0-1.19,1.78,2.07,4.15c3.26,2.37,7.71,4.15,9.78,4.15c2.07,0,1.19-1.78-2.07-4.15
	C657.17,2476.55,652.73,2474.78,650.65,2474.78L650.65,2474.78z M3150.19,2474.78c-2.07,0-1.19,1.78,2.07,4.15
	c3.26,2.37,7.71,4.15,9.78,4.15c2.07,0,1.19-1.78-2.07-4.15S3152.56,2474.78,3150.19,2474.78L3150.19,2474.78z M607.67,2480.7
	c-1.19,0-2.07,0.3-2.96,0.59c-5.93,2.07-6.52,3.85-2.67,8.89c3.26,4.45,5.63,4.74,7.41,1.48c3.26-5.63,34.98,10.37,34.98,17.49
	c0,5.33,14.52,5.33,17.49,0C666.95,2500.56,624.27,2479.52,607.67,2480.7L607.67,2480.7z M3107.5,2480.7c-1.19,0-2.07,0.3-2.96,0.59
	c-5.93,2.07-6.52,3.85-2.67,8.89c3.26,4.45,5.63,4.74,7.41,1.48c3.26-5.63,34.98,10.37,34.98,17.49c0,5.33,14.52,5.33,17.49,0
	C3166.78,2500.56,3124.1,2479.52,3107.5,2480.7L3107.5,2480.7z M89.57,2491.67c-2.07,0-3.85,1.78-3.85,4.15
	c0,2.37,1.78,4.15,3.85,4.15c2.07,0,3.85-1.78,3.85-4.15C93.42,2493.75,91.64,2491.67,89.57,2491.67z M2589.1,2491.67
	c-2.07,0-3.85,1.78-3.85,4.15c0,2.37,1.78,4.15,3.85,4.15c2.07,0,3.85-1.78,3.85-4.15
	C2592.96,2493.75,2591.18,2491.67,2589.1,2491.67z M101.13,2500.56c-1.48,0.3-2.37,3.26-1.19,8.3c1.19,4.74,3.56,8.6,5.63,8.6
	c4.15,0,4.15-1.48,1.19-10.37C104.98,2502.04,102.61,2499.97,101.13,2500.56L101.13,2500.56z M2600.96,2500.56
	c-1.48,0.3-2.37,3.26-1.19,8.3c1.19,4.74,3.56,8.6,5.63,8.6c4.15,0,4.15-1.48,1.19-10.37
	C2604.51,2502.04,2602.44,2499.97,2600.96,2500.56L2600.96,2500.56z M1945.62,2508.86c-0.89,0-2.67,1.78-4.15,4.15
	c-1.19,2.37-0.59,4.15,1.78,4.15c2.37,0,4.15-1.78,4.15-4.15S1946.51,2508.86,1945.62,2508.86z M4445.15,2508.86
	c-0.89,0-2.67,1.78-4.15,4.15c-1.19,2.37-0.59,4.15,1.78,4.15c2.37,0,4.15-1.78,4.15-4.15
	C4446.93,2510.64,4446.04,2508.86,4445.15,2508.86z M691.26,2517.46c-8,0-15.41,1.78-16.89,4.15c-3.26,5.63,17.49,5.63,25.49,0
	C704,2518.64,701.93,2517.46,691.26,2517.46z M3190.79,2517.46c-8,0-15.41,1.78-16.89,4.15c-3.26,5.63,17.49,5.63,25.49,0
	C3203.83,2518.64,3201.46,2517.46,3190.79,2517.46z M643.54,2523.39c-1.78-0.3-3.56,0.59-4.45,2.37c-1.48,2.37,0.3,4.45,3.56,4.45
	c6.82,0,8-2.67,2.37-6.22C644.72,2523.68,644.13,2523.39,643.54,2523.39z M3143.37,2523.39c-1.78-0.3-3.56,0.59-4.45,2.37
	c-1.48,2.37,0.3,4.45,3.56,4.45c6.82,0,8-2.67,2.37-6.22C3144.26,2523.68,3143.96,2523.39,3143.37,2523.39z M2028.02,2525.76
	c-2.96,0-6.82,5.93-8.3,13.34c-2.37,11.86-1.19,15.12,12.45,27.56c21.04,19.56,25.79,18.08,7.41-2.67
	c-11.86-13.34-14.23-18.08-10.67-22.23C2035.13,2535.24,2034.54,2525.76,2028.02,2525.76L2028.02,2525.76z M4527.55,2525.76
	c-2.96,0-6.82,5.93-8.3,13.34c-2.37,11.86-1.19,15.12,12.45,27.56c21.04,19.56,25.79,18.08,7.41-2.67
	c-11.86-13.34-14.23-18.08-10.67-22.23C4534.67,2535.24,4534.37,2525.76,4527.55,2525.76L4527.55,2525.76z M759.73,2561.62
	c-0.3,0-0.89,0.3-1.48,0.59c-2.07,1.48-3.85,4.45-3.85,6.52c0,6.22,2.67,4.74,5.34-2.67
	C760.91,2563.4,760.91,2561.62,759.73,2561.62L759.73,2561.62z M3259.56,2561.62c-0.3,0-0.89,0.3-1.48,0.59
	c-2.07,1.48-3.85,4.45-3.85,6.52c0,6.22,2.67,4.74,5.34-2.67C3260.74,2563.4,3260.45,2561.62,3259.56,2561.62L3259.56,2561.62z
	 M2007.57,2595.71c-0.59,0-0.89,0.3-1.48,0.59c-2.07,1.48-3.85,4.45-3.85,6.82c0,2.37,1.78,2.96,3.85,1.78
	c2.07-1.48,3.85-4.45,3.85-6.82C2009.94,2596.3,2009.05,2595.41,2007.57,2595.71L2007.57,2595.71z M4507.4,2595.71
	c-0.59,0-0.89,0.3-1.48,0.59c-2.07,1.48-3.85,4.45-3.85,6.82c0,2.37,1.78,2.96,3.85,1.78c2.07-1.48,3.85-4.45,3.85-6.82
	C4509.77,2596.3,4508.58,2595.41,4507.4,2595.71L4507.4,2595.71z M1870.63,2606.97c-0.3,0-0.59,0.3-0.59,0.59
	c-0.89,2.37,0.3,8.6,2.67,13.63c2.07,5.04,7.71,18.38,12.45,29.64c9.19,21.93,15.71,26.08,15.71,10.37
	C1900.57,2650.84,1875.37,2606.67,1870.63,2606.97L1870.63,2606.97z M4370.16,2606.97c-0.3,0-0.59,0.3-0.59,0.59
	c-0.89,2.37,0.3,8.6,2.67,13.63c2.07,5.04,7.71,18.38,12.45,29.64c9.19,21.93,15.71,26.08,15.71,10.37
	C4400.1,2650.84,4375.2,2606.67,4370.16,2606.97L4370.16,2606.97z M2057.07,2611.71c-1.19,0-2.67,0.59-4.74,1.19
	c-5.04,1.48-11.26,2.67-13.93,2.67c-2.67,0-4.74,2.07-4.74,4.45c0,2.37,2.67,4.15,5.93,4.15c3.26,0,5.93,2.07,5.93,4.45
	c0,9.19,13.63,1.48,15.12-8.3C2061.22,2613.79,2060.62,2611.42,2057.07,2611.71L2057.07,2611.71z M4556.9,2611.71
	c-1.19,0-2.67,0.59-4.74,1.19c-5.04,1.48-11.26,2.67-13.93,2.67c-2.67,0-4.74,2.07-4.74,4.45c0,2.37,2.67,4.15,5.93,4.15
	s5.93,2.07,5.93,4.45c0,9.19,13.63,1.48,15.12-8.3C4560.75,2613.79,4560.45,2611.42,4556.9,2611.71L4556.9,2611.71z M1742.29,2612.9
	c-4.15,0.3-7.41,9.78-4.15,15.41c1.48,2.37,4.15,4.45,6.22,4.45c5.04,0,4.74-16.01-0.3-19.27
	C1743.48,2613.19,1742.88,2612.9,1742.29,2612.9L1742.29,2612.9z M4242.12,2612.9c-4.15,0.3-7.41,9.78-4.15,15.41
	c1.48,2.37,4.15,4.45,6.22,4.45c5.04,0,4.74-16.01-0.3-19.27C4243.31,2613.19,4242.71,2612.9,4242.12,2612.9L4242.12,2612.9z
	 M1995.12,2634.53c-3.56,0.3-8.3,4.74-19.27,15.71c-10.37,10.37-22.82,22.23-27.86,26.08c-10.37,7.71-9.48,16.89,3.85,35.27
	c6.22,8.6,11.56,10.97,23.42,10.97c12.75,0,15.41-1.48,15.41-8.3c0-4.45,3.56-14.82,8-22.82c7.71-14.23,7.11-28.45-1.19-28.45
	c-2.37,0-0.89-3.85,2.96-8.6c6.52-8,6.82-9.19,0.89-15.71C1998.97,2635.72,1997.19,2634.53,1995.12,2634.53L1995.12,2634.53z
	 M4494.95,2634.53c-3.56,0.3-8.3,4.74-19.27,15.71c-10.37,10.37-22.82,22.23-27.86,26.08c-10.37,7.71-9.48,16.89,3.85,35.27
	c6.22,8.6,11.56,10.97,23.42,10.97c12.75,0,15.41-1.48,15.41-8.3c0-4.45,3.56-14.82,8-22.82c7.71-14.23,7.11-28.45-1.19-28.45
	c-2.37,0-0.89-3.85,2.96-8.6c6.52-8,6.82-9.19,0.89-15.71C4498.5,2635.72,4497.02,2634.53,4494.95,2634.53L4494.95,2634.53z
	 M1852.55,2646.39c-1.48,0.3,0.3,4.15,6.52,12.75c5.93,8.3,10.37,16.3,10.37,18.08c0,4.15,19.56,37.35,28.75,48.61
	c10.08,12.45,13.63,12.15,18.08-1.48c5.04-14.23,4.74-14.52-1.48-14.52c-2.96,0-15.41-13.34-27.86-29.94
	c-12.45-16.6-22.82-29.94-23.71-29.94s-4.45-1.19-8-2.96C1854.03,2646.39,1852.85,2646.09,1852.55,2646.39L1852.55,2646.39z
	 M4352.08,2646.39c-1.48,0.3,0.3,4.15,6.52,12.75c5.93,8.3,10.37,16.3,10.37,18.08c0,4.15,19.56,37.35,28.75,48.61
	c10.08,12.45,13.63,12.15,18.08-1.48c5.04-14.23,4.74-14.52-1.48-14.52c-2.96,0-15.41-13.34-27.86-29.94s-22.82-29.94-23.71-29.94
	c-0.59,0-4.45-1.19-8-2.96C4353.57,2646.39,4352.68,2646.09,4352.08,2646.39L4352.08,2646.39z M2072.77,2679.88
	c-2.07,0-3.85,4.45-3.85,9.48c0,7.71,0.89,8.3,3.85,3.26C2077.52,2684.33,2077.52,2679.88,2072.77,2679.88z M4572.31,2679.88
	c-2.07,0-3.85,4.45-3.85,9.48c0,7.71,0.89,8.3,3.85,3.26C4577.35,2684.33,4577.35,2679.88,4572.31,2679.88z M2041.06,2680.18
	c-1.48,0-2.96,0.3-4.45,0.89c-3.26,1.48-2.07,2.37,2.37,2.67c4.15,0.3,6.52-0.89,5.04-2.37
	C2043.73,2680.77,2042.54,2680.48,2041.06,2680.18z M4540.89,2680.18c-1.48,0-2.96,0.3-4.45,0.89c-3.26,1.48-2.07,2.37,2.37,2.67
	c4.15,0.3,6.52-0.89,5.04-2.37C4543.26,2680.77,4542.08,2680.48,4540.89,2680.18z M2024.76,2684.33c-0.59,0-1.48,0.3-2.67,0.59
	c-7.41,2.07-11.86,26.08-8.6,45.65l2.67,15.41l1.19-13.93c1.48-16.89,6.52-17.78,11.86-2.07c3.85,11.56,3.85,11.56,4.15,1.48
	c0.3-5.63-2.67-13.93-6.22-18.08c-4.74-5.93-5.04-7.71-1.19-7.71c3.26,0,2.67-2.37-2.37-6.22c-6.52-5.63-6.82-6.82-1.78-10.97
	C2025.65,2684.92,2026.54,2684.03,2024.76,2684.33L2024.76,2684.33z M4524.59,2684.33c-0.59,0-1.48,0.3-2.67,0.59
	c-7.41,2.07-11.86,26.08-8.6,45.65l2.67,15.41l1.19-13.93c1.48-16.89,6.52-17.78,11.86-2.07c3.85,11.56,3.85,11.56,4.15,1.48
	c0.3-5.63-2.67-13.93-6.22-18.08c-4.74-5.93-5.04-7.71-1.19-7.71c3.26,0,2.67-2.37-2.37-6.22c-6.52-5.63-6.82-6.82-1.78-10.97
	C4525.48,2684.92,4526.37,2684.03,4524.59,2684.33L4524.59,2684.33z M2096.78,2697.08c-1.19,0,0.59,1.48,4.45,5.04
	c4.45,4.15,5.93,8.89,4.15,13.93c-2.07,5.93-1.19,7.11,3.26,5.04c6.22-2.67,29.94,10.97,35.27,19.86c1.48,2.67,2.07,7.71,0.89,11.56
	c-1.48,5.04,2.37,8.3,13.93,11.86c13.34,4.45,16.6,4.15,21.93-1.48c8-8.6,8.3-8.6,23.71,6.22c15.71,15.12,25.79,17.19,14.52,3.26
	c-4.15-5.34-9.78-14.82-12.15-21.04c-2.96-8-13.34-16.3-34.09-27.27c-26.38-14.23-30.53-15.41-38.83-10.67
	c-10.08,5.93-17.78,3.26-17.78-6.52c0-3.26-1.48-6.22-3.56-6.22c-2.07,0-6.82-1.19-10.67-2.37
	C2098.86,2697.67,2097.38,2697.08,2096.78,2697.08L2096.78,2697.08z M4596.32,2697.08c-1.19,0,0.59,1.48,4.45,5.04
	c4.45,4.15,5.93,8.89,4.15,13.93c-2.07,5.93-1.19,7.11,3.26,5.04c6.22-2.67,29.94,10.97,35.27,19.86c1.48,2.67,2.07,7.71,0.89,11.56
	c-1.48,5.04,2.37,8.3,13.93,11.86c13.34,4.45,16.6,4.15,21.93-1.48c8-8.6,8.3-8.6,23.71,6.22c15.71,15.12,25.79,17.19,14.52,3.26
	c-4.15-5.34-9.78-14.82-12.15-21.04c-2.96-8-13.34-16.3-34.09-27.27c-26.38-14.23-30.53-15.41-38.83-10.67
	c-10.08,5.93-17.78,3.26-17.78-6.52c0-3.26-1.48-6.22-3.56-6.22s-6.82-1.19-10.67-2.37
	C4598.69,2697.67,4596.91,2697.08,4596.32,2697.08L4596.32,2697.08z M2080.78,2714.27c-1.48,0-2.96,0.89-4.74,2.96
	c-3.56,3.85-2.67,5.04,4.74,5.04s8.3-1.19,4.74-5.04C2083.45,2715.45,2081.96,2714.27,2080.78,2714.27z M4580.31,2714.27
	c-1.48,0-2.96,0.89-4.74,2.96c-3.56,3.85-2.67,5.04,4.74,5.04s8.3-1.19,4.74-5.04C4583.28,2715.45,4581.79,2714.27,4580.31,2714.27z
	 M2242.31,2715.75c-1.48,0.3-1.48,2.67,0.59,6.52c1.48,2.37,4.45,4.45,6.82,4.45c2.67,0,2.37-2.37-0.89-6.52
	C2246.17,2716.64,2243.5,2715.45,2242.31,2715.75L2242.31,2715.75z M4741.85,2715.75c-1.48,0.3-1.48,2.67,0.59,6.52
	c1.48,2.37,4.45,4.45,6.82,4.45c2.67,0,2.37-2.37-0.89-6.52C4745.7,2716.64,4743.33,2715.45,4741.85,2715.75L4741.85,2715.75z
	 M2239.35,2726.72c-5.63,0-18.08,8.89-18.08,13.04c0,6.82,6.22,4.74,13.63-4.45C2239.05,2730.57,2241.13,2726.72,2239.35,2726.72
	L2239.35,2726.72z M4739.18,2726.72c-5.63,0-18.08,8.89-18.08,13.04c0,6.82,6.22,4.74,13.63-4.45
	C4738.89,2730.57,4740.66,2726.72,4739.18,2726.72L4739.18,2726.72z M1922.5,2747.46c-1.19,0-2.07,0.3-2.07,0.89
	c0,3.26,18.67,10.67,35.27,13.63c18.97,3.56,21.34,3.26,16.89-1.48C1968.15,2755.76,1931.39,2746.87,1922.5,2747.46L1922.5,2747.46z
	 M4422.03,2747.46c-1.19,0-2.07,0.3-2.07,0.89c0,3.26,18.67,10.67,35.27,13.63c18.97,3.56,21.34,3.26,16.89-1.48
	C4467.68,2755.76,4431.22,2746.87,4422.03,2747.46L4422.03,2747.46z M2092.34,2756.65c-2.37,0-2.96,2.07-1.78,4.15
	c1.19,2.37,3.26,4.15,4.15,4.15s1.78-1.78,1.78-4.15S2094.41,2756.65,2092.34,2756.65z M4591.87,2756.65
	c-2.37,0-2.96,2.07-1.78,4.15c1.19,2.37,3.26,4.15,4.15,4.15s1.78-1.78,1.78-4.15S4594.24,2756.65,4591.87,2756.65z
	 M2063.29,2762.28c-2.37-0.3-7.71,2.96-12.75,8.6c-5.93,6.22-8.6,11.56-6.22,11.56c7.11,0,23.12-16.01,19.86-19.86
	C2063.88,2762.28,2063.59,2762.28,2063.29,2762.28L2063.29,2762.28z M4562.82,2762.28c-2.37-0.3-7.71,2.96-12.75,8.6
	c-5.93,6.22-8.6,11.56-6.22,11.56c7.11,0,23.12-16.01,19.86-19.86C4563.42,2762.28,4563.12,2762.28,4562.82,2762.28L4562.82,2762.28
	z M2301.3,2762.28c-1.78,0-4.74,1.78-7.41,4.74c-6.82,7.41-3.26,9.19,5.93,2.67c3.26-2.07,4.45-5.34,3.26-6.82
	C2302.48,2762.28,2301.89,2762.28,2301.3,2762.28L2301.3,2762.28z M4800.83,2762.28c-1.78,0-4.74,1.78-7.41,4.74
	c-6.82,7.41-3.26,9.19,5.93,2.67c3.26-2.07,4.45-5.34,3.26-6.82C4802.02,2762.28,4801.72,2762.28,4800.83,2762.28L4800.83,2762.28z
	 M2022.09,2765.25c-2.07,0-3.85,1.78-3.85,4.15c0,2.37,1.78,4.15,3.85,4.15s3.85-1.78,3.85-4.15S2024.17,2765.25,2022.09,2765.25z
	 M4521.92,2765.25c-2.07,0-3.85,1.78-3.85,4.15c0,2.37,1.78,4.15,3.85,4.15c2.07,0,3.85-1.78,3.85-4.15
	S4524,2765.25,4521.92,2765.25z M2002.23,2765.84c-1.48,0-2.96,0.3-4.45,0.89c-3.26,1.48-2.07,2.37,2.37,2.67
	c4.15,0.3,6.52-0.89,5.04-2.37C2004.9,2766.14,2003.71,2765.84,2002.23,2765.84L2002.23,2765.84z M4502.06,2765.84
	c-1.48,0-2.96,0.3-4.45,0.89c-3.26,1.48-2.07,2.37,2.37,2.67c4.15,0.3,6.52-0.89,5.04-2.37
	C4504.43,2766.14,4503.25,2765.84,4502.06,2765.84L4502.06,2765.84z M2107.75,2792.52c-5.34,0-8.3,2.96-13.34,11.26
	c-4.45,7.11-7.41,15.71-6.52,19.27c1.48,7.71-11.86,8.6-21.93,1.48c-5.63-3.85-8.89-3.26-15.71,2.96c-4.74,4.45-8.6,10.37-8.6,13.34
	c0,3.26-2.67,4.15-6.52,2.67c-4.45-1.78-5.63-1.19-3.56,2.67c4.45,8-7.11,19.27-35.27,34.38c-19.86,10.67-25.19,15.71-25.19,23.12
	c0,5.34,2.07,11.56,4.45,14.23c4.74,5.33,0.89,15.41-4.45,11.86c-1.78-1.19,0,6.22,4.45,16.89c4.45,10.67,8.89,29.05,10.08,40.61
	c2.67,24.3,10.97,30.83,25.49,19.56c4.74-3.56,12.15-6.82,16.3-6.82s13.63-4.15,21.04-9.19c8.89-6.22,20.45-9.19,34.98-9.48
	c19.86-0.59,22.53,0.59,32.31,13.34l10.67,13.93l5.04-10.67c5.93-11.86,13.34-10.08,9.78,2.37c-1.19,4.45-0.59,8.3,1.48,8.3
	c2.07,0,4.74,3.26,5.93,7.41c7.11,23.42,16.6,31.42,32.9,28.16c8-1.48,12.75-0.89,12.75,2.07c0,6.82,5.93,5.93,11.86-1.78
	c2.67-3.56,7.11-6.52,9.78-6.52c6.82,0,25.79-63.73,28.45-94.85c2.07-23.71,1.19-26.68-7.41-34.98
	c-17.49-16.6-38.53-48.91-41.2-63.43c-1.48-7.71-6.52-23.71-11.56-35.27c-8.89-21.04-8.89-21.04-11.56-8.6
	c-5.04,24.3-14.23,53.06-17.19,53.06c-1.48,0-9.78-6.52-18.38-14.52c-14.52-13.63-15.12-15.12-10.67-27.86
	c5.04-14.52,4.45-15.41-12.45-19.27C2111.6,2792.81,2109.53,2792.52,2107.75,2792.52L2107.75,2792.52z M4607.58,2792.52
	c-5.34,0-8.3,2.96-13.34,11.26c-4.45,7.11-7.41,15.71-6.52,19.27c1.48,7.71-11.86,8.6-21.93,1.48c-5.63-3.85-8.89-3.26-15.71,2.96
	c-4.74,4.45-8.6,10.37-8.6,13.34c0,3.26-2.67,4.15-6.52,2.67c-4.45-1.78-5.63-1.19-3.56,2.67c4.45,8-7.11,19.27-35.27,34.38
	c-19.86,10.67-25.19,15.71-25.19,23.12c0,5.34,2.07,11.56,4.45,14.23c4.74,5.33,0.89,15.41-4.45,11.86c-1.78-1.19,0,6.22,4.45,16.89
	c4.45,10.67,8.89,29.05,10.08,40.61c2.67,24.3,10.97,30.83,25.49,19.56c4.74-3.56,12.15-6.82,16.3-6.82
	c4.15,0,13.63-4.15,20.75-9.19c8.89-6.22,20.45-9.19,34.98-9.48c19.86-0.59,22.53,0.59,32.31,13.34l10.67,13.93l5.04-10.67
	c5.93-11.86,13.34-10.08,9.78,2.37c-1.19,4.45-0.59,8.3,1.48,8.3c2.07,0,4.74,3.26,5.93,7.41c7.11,23.42,16.6,31.42,32.9,28.16
	c8-1.48,12.75-0.89,12.75,2.07c0,6.82,5.93,5.93,11.86-1.78c2.67-3.56,7.11-6.52,9.78-6.52c6.82,0,25.79-63.73,28.45-94.85
	c2.07-23.71,1.19-26.68-7.41-34.98c-17.49-16.6-38.53-48.91-41.2-63.43c-1.48-7.71-6.52-23.71-11.56-35.27
	c-8.89-21.04-8.89-21.04-11.56-8.6c-5.04,24.3-14.23,53.06-17.19,53.06c-1.48,0-9.78-6.52-18.38-14.52
	c-14.52-13.63-15.12-15.12-10.67-27.86c5.04-14.52,4.45-15.41-12.45-19.27C4611.14,2792.81,4609.36,2792.52,4607.58,2792.52
	L4607.58,2792.52z M1529.18,2801.7l-5.93,11.56c-3.26,6.52-10.97,14.52-17.49,18.38c-6.52,3.85-11.86,8.89-11.86,11.86
	c-0.59,11.56-3.26,31.42-5.63,44.16c-1.48,7.41-0.59,17.49,1.78,22.53c5.04,10.08,13.04,11.56,18.97,3.56
	c5.63-7.71,20.45-77.66,20.16-96.63L1529.18,2801.7L1529.18,2801.7z M4028.71,2801.7l-5.93,11.56
	c-3.26,6.52-10.97,14.52-17.49,18.38c-6.52,3.56-11.86,8.89-11.86,11.86c-0.59,11.56-3.26,31.42-5.63,44.16
	c-1.48,7.41-0.59,17.49,1.78,22.53c5.04,10.08,13.04,11.56,18.97,3.56c5.63-7.71,20.45-77.66,20.16-96.63V2801.7L4028.71,2801.7z
	 M2135.61,2807.93c-2.07,0-3.85,2.07-3.85,4.15c0,2.37,1.78,4.15,3.85,4.15c2.07,0,3.85-1.78,3.85-4.15
	C2139.76,2810,2137.98,2807.93,2135.61,2807.93z M4635.44,2807.93c-2.07,0-3.85,2.07-3.85,4.15c0,2.37,1.78,4.15,3.85,4.15
	c2.07,0,3.85-1.78,3.85-4.15C4639.29,2810,4637.52,2807.93,4635.44,2807.93z M2485.66,2812.37c-2.07,0-1.19,1.78,2.07,4.15
	s7.71,4.15,9.78,4.15c2.07,0,1.19-1.78-2.07-4.15C2492.48,2814.15,2488.03,2812.37,2485.66,2812.37z M4985.49,2812.37
	c-2.07,0-1.19,1.78,2.07,4.15c3.26,2.37,7.71,4.15,9.78,4.15c2.07,0,1.19-1.78-2.07-4.15S4987.56,2812.37,4985.49,2812.37
	L4985.49,2812.37z M2328.86,2876.4c-3.26,0-4.74,1.78-3.56,4.15s5.04,4.15,8.3,4.15s4.74-1.78,3.56-4.15
	C2335.98,2878.18,2332.12,2876.4,2328.86,2876.4z M4828.4,2876.4c-3.26,0-4.74,1.78-3.56,4.15s5.04,4.15,8.3,4.15
	s4.74-1.78,3.56-4.15S4831.66,2876.4,4828.4,2876.4z M2384.29,3016c-0.3,0.3,0.89,2.67,3.56,7.41c4.74,8,6.22,16.6,4.74,24.6
	c-1.19,6.82-0.59,12.45,1.48,12.45c2.07,0,3.85,3.26,3.85,7.41c0,6.82,0.89,6.52,6.22-1.19c10.08-14.52,13.93-23.42,9.78-23.42
	c-2.07,0-10.37-7.11-18.38-16.01C2388.14,3019.26,2384.59,3015.7,2384.29,3016L2384.29,3016z M4883.82,3016
	c-0.3,0.3,0.89,2.67,3.56,7.41c4.74,8,6.22,16.6,4.74,24.6c-1.19,6.82-0.59,12.45,1.48,12.45s3.85,3.26,3.85,7.41
	c0,6.82,0.89,6.52,6.22-1.19c10.08-14.52,13.93-23.42,9.78-23.42c-2.07,0-10.37-7.11-18.38-16.01
	C4887.68,3019.26,4884.42,3015.7,4883.82,3016L4883.82,3016z M2199.63,3072.91c-10.37,0-10.67,1.48-5.04,13.04
	c5.34,10.67,13.93,10.67,16.6,0C2213.56,3075.58,2211.19,3072.91,2199.63,3072.91L2199.63,3072.91z M4699.46,3072.91
	c-10.37,0-10.67,1.48-5.04,13.04c5.34,10.67,13.93,10.67,16.6,0C4713.39,3075.58,4711.02,3072.91,4699.46,3072.91L4699.46,3072.91z
	 M2382.51,3073.5c-1.78-0.3-3.56,1.48-5.63,5.34c-2.37,4.45-10.97,15.71-19.27,25.49c-16.6,19.86-17.49,22.82-7.71,25.49
	c3.85,1.19,7.71,2.07,8.89,2.37c3.85,0.89,11.56-9.48,11.56-15.71c0-3.26,4.74-12.45,10.37-20.75c8.3-11.86,9.48-16.01,5.34-20.16
	C2384.88,3074.39,2383.7,3073.5,2382.51,3073.5L2382.51,3073.5z M4882.34,3073.5c-1.78-0.3-3.56,1.48-5.63,5.34
	c-2.37,4.45-10.97,15.71-19.27,25.49c-16.6,19.86-17.49,22.82-7.71,25.49c3.85,1.19,7.71,2.07,8.89,2.37
	c3.85,0.89,11.56-9.48,11.56-15.71c0-3.26,4.74-12.45,10.37-20.75c8.3-11.86,9.48-16.01,5.34-20.16
	C4884.42,3074.39,4883.23,3073.5,4882.34,3073.5L4882.34,3073.5z M1662.85,3151.16c-3.85-0.3-5.34,2.37-2.67,7.11
	c3.26,5.63,8.6,5.93,11.56,0.59c1.19-2.07-0.59-5.04-4.15-6.52C1665.82,3151.46,1664.34,3151.16,1662.85,3151.16L1662.85,3151.16z
	 M4162.69,3151.16c-3.85-0.3-5.34,2.37-2.67,7.11c3.26,5.63,8.6,5.93,11.56,0.59c1.19-2.07-0.59-5.04-4.15-6.52
	C4165.65,3151.46,4163.87,3151.16,4162.69,3151.16L4162.69,3151.16z M774.55,3179.91c-2.07,0-3.85,2.96-3.85,6.52
	s0.59,6.52,1.48,6.52s2.67-2.96,3.85-6.52C777.51,3182.58,776.92,3179.91,774.55,3179.91z M3274.38,3179.91
	c-2.07,0-3.85,2.96-3.85,6.52s0.59,6.52,1.48,6.52s2.67-2.96,3.85-6.52C3277.04,3182.58,3276.45,3179.91,3274.38,3179.91z
	 M669.62,3192.65c-0.89,0-1.78,0.3-2.67,1.19c-1.19,1.48-0.89,5.04,0.59,8c2.37,4.45,3.26,4.45,4.74,0
	C673.77,3197.1,671.99,3192.65,669.62,3192.65L669.62,3192.65z M3169.16,3192.65c-0.89,0-1.78,0.3-2.67,1.19
	c-1.19,1.48-0.89,5.04,0.59,8c2.37,4.45,3.26,4.45,4.74,0C3173.3,3197.1,3171.53,3192.65,3169.16,3192.65L3169.16,3192.65z
	 M698.67,3201.55c-1.48,0.59-2.07,2.37-2.07,5.93c0,3.56-2.07,6.52-4.74,6.82c-2.67,0.3-0.59,2.07,4.74,3.85s13.04,3.56,17.19,3.85
	c6.82,0.3,6.82-0.3-1.78-10.37C705.78,3204.21,701.34,3200.95,698.67,3201.55L698.67,3201.55z M3198.5,3201.55
	c-1.48,0.59-2.07,2.37-2.07,5.93c0,3.56-2.07,6.52-4.74,6.82c-2.67,0.3-0.59,2.07,4.74,3.85c5.34,1.78,13.04,3.56,17.19,3.85
	c6.82,0.3,6.82-0.3-1.78-10.37C3205.32,3204.21,3200.87,3200.95,3198.5,3201.55L3198.5,3201.55z M920.97,3209.85
	c-3.26,0-4.74,1.78-3.56,4.15c1.19,2.37,5.04,4.15,8.3,4.15c3.26,0,4.74-1.78,3.56-4.15
	C928.08,3211.62,924.23,3209.85,920.97,3209.85z M3420.8,3209.85c-3.26,0-4.74,1.78-3.56,4.15c1.19,2.37,5.04,4.15,8.3,4.15
	s4.74-1.78,3.56-4.15C3427.62,3211.62,3424.06,3209.85,3420.8,3209.85z M700.74,3226.74c-2.37,0-4.15,1.78-4.15,4.15
	c0,2.37,0.89,4.15,1.78,4.15c0.89,0,2.67-1.78,4.15-4.15C704,3228.82,703.11,3226.74,700.74,3226.74z M3200.57,3226.74
	c-2.37,0-4.15,1.78-4.15,4.15c0,2.37,0.89,4.15,1.78,4.15c0.89,0,2.67-1.78,4.15-4.15
	C3203.54,3228.82,3202.65,3226.74,3200.57,3226.74z">
</path>
</svg>
