<?xml version="1.0" encoding="utf-8"?>
<!-- Generator: Adobe Illustrator 23.1.0, SVG Export Plug-In . SVG Version: 6.00 Build 0)  -->
<svg version="1.1" id="Layer_1" xmlns="http://www.w3.org/2000/svg" xmlns:xlink="http://www.w3.org/1999/xlink" x="0px" y="0px"
	 viewBox="0 0 5000 1486" style="enable-background:new 0 0 5000 1486;" xml:space="preserve">
<style type="text/css">
	.st0{fill:#E2E2E2;}
</style>
<path class="st0" d="M926.67,0.34c-12.15,0-23.42,1.8-24.6,3.9c-1.19,2.4-11.26,3-22.82,1.5c-18.38-2.4-19.86-2.1-15.12,4.49
	c9.19,12.29,1.48,17.08-21.34,14.08c-17.19-2.4-21.34-1.8-23.42,3.9c-1.78,5.09-3.85,5.69-7.41,2.4s-5.93-3.3-7.71,0
	c-1.48,2.4-8.6,4.49-16.3,4.49c-8,0-12.75,1.8-11.26,4.2c1.19,2.4-1.19,4.2-5.93,4.2c-5.34,0-7.41-1.8-5.63-5.39
	c1.48-3-0.59-1.2-4.74,3.9c-3.85,5.09-14.52,11.39-23.71,14.08c-9.19,2.7-17.49,6.59-18.97,9.29c-1.48,2.7,1.19,3.3,7.71,1.5
	c7.71-2.1,10.08-1.2,10.08,3.9c0,8.99-13.63,18.58-34.38,23.67c-21.04,5.09-25.19,9.29-9.48,9.29c14.23,0,24.3,3.9,24.3,8.99
	c0,2.1-3.56,3.9-7.71,3.9c-4.15,0-8.6,1.8-9.78,3.9c-3.26,5.99,8.3,14.38,16.3,11.99c3.85-1.2,18.38-2.7,32.31-3.3l25.19-0.9
	l14.82,23.37c8,12.89,14.82,27.27,14.82,32.06c0,6.59,0.89,7.19,3.56,2.7c1.78-3.3,5.34-4.49,7.71-3c5.93,4.2,5.63,19.78-0.59,20.08
	c-2.67,0.3-0.89,2.4,3.85,4.79c10.08,5.39,10.97,28.17,1.19,36.86c-5.04,4.79-4.74,5.09,1.48,2.7c6.82-2.7,6.82-2.1,0.89,10.49
	c-7.71,16.48-7.71,17.98,0,17.98c3.85,0,5.34,2.4,4.15,5.99c-3.26,8.99,13.34,32.96,28.75,41.65c7.41,4.2,14.82,7.79,16.3,8.09
	c4.74,0.9,15.12-13.18,12.75-17.08c-3.26-5.99,12.75-37.76,22.53-44.95c4.74-3.3,13.63-7.49,19.86-9.29
	c6.22-1.8,12.45-7.19,14.23-12.59c4.15-12.29,26.08-23.67,45.65-24.27c8.3-0.3,21.34-3,28.75-5.99l13.63-5.69l-14.52-0.3
	c-16.01-0.3-16.6-1.2-10.67-13.48c4.45-9.29,17.78-11.39,20.45-3c0.89,3,3.26,3.9,5.34,1.8c4.45-4.79-9.48-15.88-19.86-15.88
	c-4.74,0-9.78-4.49-12.45-10.79c-4.15-9.89-3.85-10.79,4.74-10.79c5.04,0,9.48-1.8,9.48-4.2c0-6.59,10.97-5.09,22.53,3.3
	c10.08,7.19,10.37,7.19,5.34,0c-4.74-6.59-4.15-7.79,3.85-11.09l9.19-3.6l-8.3-5.69c-4.45-3.3-7.41-8.39-6.22-11.39
	c1.19-3,0-5.69-2.67-5.69c-9.48,0,0.89-8.69,10.67-8.99c5.93-0.3,7.71-1.2,4.15-2.4c-10.08-3-11.56-18.28-2.67-28.17
	c5.93-6.59,6.82-9.59,3.26-12.29c-7.71-5.39-0.59-12.89,12.15-12.89c6.22,0,11.56-1.8,11.56-4.2s2.96-4.49,6.82-4.49
	s9.48-2.1,12.75-4.49c6.52-4.79-55.43-2.7-62.54,2.4c-2.07,1.5-4.15,0.6-4.15-1.8c0-6.89-37.05-5.39-54.54,2.4
	c-8.6,3.9-18.67,5.99-22.53,5.09c-10.97-3,28.16-20.68,54.83-24.87c26.97-4.2,33.2-8.39,12.75-8.39c-8.6,0-13.63-1.8-12.15-4.2
	c2.96-5.09-14.23-5.09-45.05-0.3c-24.6,3.9-27.86,2.7-17.19-6.29C948.3,1.24,947.12,0.64,926.67,0.34L926.67,0.34z M3426.2,0.34
	c-12.15,0-23.42,1.8-24.6,3.9c-1.19,2.4-11.26,3-22.82,1.5c-18.38-2.4-19.86-2.1-15.12,4.49c9.19,12.29,1.48,17.08-21.34,14.08
	c-17.19-2.4-21.34-1.8-23.42,3.9c-1.78,5.09-3.85,5.69-7.41,2.4s-5.93-3.3-7.71,0c-1.48,2.4-8.6,4.49-16.3,4.49
	c-8,0-12.75,1.8-11.26,4.2c1.19,2.4-1.19,4.2-5.93,4.2c-5.34,0-7.41-1.8-5.63-5.39c1.48-3-0.59-1.2-4.74,3.9
	s-14.52,11.39-23.71,14.08c-9.19,2.7-17.49,6.59-18.97,9.29c-1.48,2.7,1.19,3.3,7.71,1.5c7.71-2.1,10.08-1.2,10.08,3.9
	c0,8.99-13.63,18.58-34.38,23.67c-21.04,5.09-25.19,9.29-9.48,9.29c14.23,0,24.3,3.9,24.3,8.99c0,2.1-3.56,3.9-7.71,3.9
	s-8.6,1.8-9.78,3.9c-3.26,5.99,8.3,14.38,16.3,11.99c3.85-1.2,18.38-2.7,32.31-3.3l25.19-0.9l14.82,23.37
	c8,12.89,14.82,27.27,14.82,32.06c0,6.59,0.89,7.19,3.56,2.7c1.78-3.3,5.34-4.49,7.71-3c5.93,4.2,5.63,19.78-0.59,20.08
	c-2.67,0.3-0.89,2.4,3.85,4.79c10.08,5.39,10.97,28.17,1.19,36.86c-5.04,4.79-4.74,5.09,1.48,2.7c6.82-2.7,6.82-2.1,0.89,10.49
	c-7.71,16.48-7.71,17.98,0,17.98c3.85,0,5.34,2.4,4.15,5.99c-3.26,8.99,13.34,32.96,28.75,41.65c7.41,4.2,14.82,7.79,16.3,8.09
	c4.74,0.9,15.12-13.18,12.75-17.08c-3.26-5.99,12.75-37.76,22.53-44.95c4.74-3.3,13.63-7.49,19.86-9.29
	c6.22-1.8,12.45-7.19,14.23-12.59c4.15-12.29,26.08-23.67,45.65-24.27c8.3-0.3,21.34-3,28.75-5.99l13.63-5.69l-14.52-0.3
	c-16.01-0.3-16.6-1.2-10.67-13.48c4.45-9.29,17.78-11.39,20.45-3c0.89,3,3.26,3.9,5.34,1.8c4.45-4.79-9.48-15.88-19.86-15.88
	c-4.74,0-9.78-4.49-12.45-10.79c-4.15-9.89-3.85-10.79,4.74-10.79c5.04,0,9.48-1.8,9.48-4.2c0-6.59,10.97-5.09,22.53,3.3
	c10.08,7.19,10.37,7.19,5.34,0c-4.74-6.59-4.15-7.79,3.85-11.09l9.19-3.6l-8.3-5.69c-4.45-3.3-7.41-8.39-6.22-11.39
	c1.19-3,0-5.69-2.67-5.69c-9.48,0,0.89-8.69,10.67-8.99c5.93-0.3,7.71-1.2,4.15-2.4c-10.08-3-11.56-18.28-2.67-28.17
	c5.93-6.59,6.82-9.59,3.26-12.29c-7.71-5.39-0.59-12.89,12.15-12.89c6.22,0,11.56-1.8,11.56-4.2s2.96-4.49,6.82-4.49
	s9.48-2.1,12.75-4.49c6.52-4.79-55.43-2.7-62.54,2.4c-2.07,1.5-4.15,0.6-4.15-1.8c0-6.89-37.05-5.39-54.54,2.4
	c-8.6,3.9-18.67,5.99-22.53,5.09c-10.97-3,28.16-20.68,54.83-24.87c26.97-4.2,33.2-8.39,12.75-8.39c-8.6,0-13.63-1.8-12.15-4.2
	c2.96-5.09-14.23-5.09-45.05-0.3c-24.6,3.9-27.86,2.7-17.19-6.29C3447.84,1.24,3446.65,0.64,3426.2,0.34L3426.2,0.34z M640.34,2.44
	c-8.89,0-16.3,0.3-20.16,1.2c-5.04,1.2-10.08,5.39-11.26,9.59c-1.19,4.49-7.41,8.69-14.82,10.19c-28.75,5.39-37.94,8.39-37.94,11.39
	c0,13.78,50.98,21.87,70.84,11.09l13.04-7.19l-9.78,8.99c-8.3,7.49-8.6,8.69-2.07,6.59c4.45-1.2,1.78,0.9-5.63,4.49
	c-7.71,3.9-18.08,5.99-24.3,4.49c-21.04-4.79-16.01,10.79,5.63,16.78c13.63,3.9,10.08,10.79-5.34,10.79
	c-10.97,0-33.79-19.78-29.05-25.17c2.07-2.4-27.57-17.98-34.09-17.98c-2.07,0-2.96,3-1.78,6.59c1.48,4.49-0.3,6.59-5.34,6.59
	c-13.93,0-8.3,11.99,6.82,14.98c13.93,3,14.23,3.3,6.82,9.29c-6.52,5.39-6.82,6.89-1.78,10.19c5.93,4.2,18.08,1.8,25.49-4.79
	c5.04-4.49,30.53,11.69,27.27,17.38c-2.67,4.79-13.63,0.9-13.63-4.79c0-2.4-1.78-3-3.85-1.5c-2.07,1.5-2.67,5.39-1.48,8.99
	c1.48,4.49,0.3,5.69-4.15,3.6c-3.56-1.5-6.22-0.6-6.22,1.8c0,2.7,10.67,5.09,24.3,5.99c13.34,0.9,26.97,1.8,30.23,2.1
	c3.26,0.3,9.19-0.9,13.63-2.7c6.52-2.7,5.93-3.6-4.74-5.99c-16.3-3.6-16.01-11.69,0.3-11.69c7.11,0,17.19-3.3,22.23-7.49l9.48-7.49
	l-9.78-2.7c-9.78-2.7-9.48-2.7,3.26-10.19c7.11-4.2,16.01-6.89,19.56-6.29c7.71,1.5,51.57-22.77,51.57-28.47
	c0-2.1-2.67-1.5-5.63,1.5c-3.26,3-8.89,4.49-12.75,3.3c-5.93-1.5-5.34-2.7,2.67-6.29c43.57-20.08,41.79-18.58,33.49-25.17
	c-4.15-3.6-11.26-5.09-16.6-3.6c-5.04,1.5-11.26,0.6-14.23-1.8C707.33,6.34,666.72,2.74,640.34,2.44L640.34,2.44z M3139.88,2.44
	c-8.89,0-16.3,0.3-20.16,1.2c-5.04,1.2-10.08,5.39-11.26,9.59c-1.19,4.49-7.41,8.69-14.82,10.19c-28.75,5.39-37.94,8.39-37.94,11.39
	c0,13.78,50.98,21.87,70.84,11.09l13.04-7.19l-9.78,8.99c-8.3,7.49-8.6,8.69-2.07,6.59c4.45-1.2,1.78,0.9-5.63,4.49
	c-7.71,3.9-18.08,5.99-24.3,4.49c-21.04-4.79-16.01,10.79,5.63,16.78c13.63,3.9,10.08,10.79-5.34,10.79
	c-10.97,0-33.79-19.78-29.05-25.17c2.07-2.4-27.57-17.98-34.09-17.98c-2.07,0-2.96,3-1.78,6.59c1.48,4.49-0.3,6.59-5.34,6.59
	c-13.93,0-8.3,11.99,6.82,14.98c13.93,3,14.23,3.3,6.82,9.29c-6.52,5.39-6.82,6.89-1.78,10.19c5.93,4.2,18.08,1.8,25.49-4.79
	c5.04-4.49,30.53,11.69,27.27,17.38c-2.67,4.79-13.63,0.9-13.63-4.79c0-2.4-1.78-3-3.85-1.5c-2.07,1.5-2.67,5.39-1.48,8.99
	c1.48,4.49,0.3,5.69-4.15,3.6c-3.56-1.5-6.22-0.6-6.22,1.8c0,2.7,10.67,5.09,24.3,5.99c13.34,0.9,26.97,1.8,30.23,2.1
	c3.26,0.3,9.19-0.9,13.63-2.7c6.52-2.7,5.93-3.6-4.74-5.99c-16.3-3.6-16.01-11.69,0.3-11.69c7.11,0,17.19-3.3,22.23-7.49l9.48-7.49
	l-9.78-2.7c-9.78-2.7-9.48-2.7,3.26-10.19c7.11-4.2,16.01-6.89,19.56-6.29c7.71,1.5,51.57-22.77,51.57-28.47
	c0-2.1-2.67-1.5-5.63,1.5c-3.26,3-8.89,4.49-12.75,3.3c-5.93-1.5-5.34-2.7,2.67-6.29c43.57-20.08,41.79-18.58,33.49-25.17
	c-4.15-3.6-11.26-5.09-16.6-3.6c-5.04,1.5-11.26,0.6-14.23-1.8C3207.16,6.34,3166.55,2.74,3139.88,2.44L3139.88,2.44z M833.6,4.54
	c-2.07,0-3.85,1.8-3.85,4.2s1.78,4.2,3.85,4.2c2.07,0,3.85-2.1,3.85-4.2S835.67,4.54,833.6,4.54z M853.46,4.54
	c-2.37,0-4.15,1.8-4.15,4.2s0.89,4.2,1.78,4.2c0.89,0,2.67-2.1,4.15-4.2S855.53,4.54,853.46,4.54z M3333.13,4.54
	c-2.07,0-3.85,1.8-3.85,4.2s1.78,4.2,3.85,4.2c2.08,0,3.85-2.1,3.85-4.2S3335.5,4.54,3333.13,4.54z M3352.99,4.54
	c-2.37,0-4.15,1.8-4.15,4.2s0.89,4.2,1.78,4.2s2.67-2.1,4.15-4.2S3355.36,4.54,3352.99,4.54z M1062.71,26.12
	c-0.89,0-2.67,1.8-4.15,4.2c-1.19,2.4-0.59,4.2,1.78,4.2c2.37,0,4.15-1.8,4.15-4.2C1064.49,28.21,1063.6,26.12,1062.71,26.12z
	 M3562.25,26.12c-0.89,0-2.67,1.8-4.15,4.2c-1.19,2.4-0.59,4.2,1.78,4.2c2.37,0,4.15-1.8,4.15-4.2
	C3564.03,28.21,3563.14,26.12,3562.25,26.12z M1595.94,33.01c-0.89-0.6-2.96,0.9-5.34,3.6c-3.26,3.6-5.93,7.79-5.93,9.59
	c0,1.8,2.67,0.6,5.93-2.4c3.26-3,5.93-7.19,5.93-9.59C1596.23,33.31,1596.23,33.01,1595.94,33.01L1595.94,33.01z M4095.47,33.01
	c-0.89-0.6-2.96,0.9-5.34,3.6c-3.26,3.6-5.93,7.79-5.93,9.59c0,1.8,2.67,0.6,5.93-2.4c3.26-3,5.93-7.19,5.93-9.59
	C4096.06,33.31,4095.77,33.01,4095.47,33.01z M1565.11,40.8c-6.52,0.3-11.86,1.8-11.86,3.6c0,1.8,5.34,3.3,11.86,3.3
	c6.52,0,11.86-1.8,11.86-3.6C1576.67,42,1571.63,40.5,1565.11,40.8L1565.11,40.8z M4064.64,40.8c-6.52,0.3-11.86,1.8-11.86,3.6
	c0,1.8,5.34,3.3,11.86,3.3c6.52,0,11.86-1.8,11.86-3.6C4076.5,42,4071.16,40.5,4064.64,40.8L4064.64,40.8z M1845.5,45.59
	c-7.41-0.6-18.38,5.69-18.38,11.39c0,5.99,24.3,3,26.38-3c0.89-2.7-1.48-5.99-4.74-7.49C1847.58,45.89,1846.69,45.59,1845.5,45.59
	L1845.5,45.59z M4345.04,45.59c-7.41-0.6-18.38,5.69-18.38,11.39c0,5.99,24.3,3,26.38-3c0.89-2.7-1.48-5.99-4.74-7.49
	C4347.41,45.89,4346.22,45.59,4345.04,45.59L4345.04,45.59z M1513.54,47.99c-2.67-0.3-6.52,0.9-10.37,3.6c-4.15,3-4.15,4.49,0,8.09
	c2.67,2.4,7.71,5.39,10.97,6.59c8,3,10.97-0.6,4.15-5.09c-2.96-2.1-4.15-5.69-2.67-8.39C1517.39,49.79,1516.2,48.29,1513.54,47.99
	L1513.54,47.99z M4013.37,47.99c-2.67-0.3-6.52,0.9-10.37,3.6c-4.15,3-4.15,4.49,0,8.09c2.67,2.4,7.71,5.39,10.97,6.59
	c8,3,10.97-0.6,4.15-5.09c-2.96-2.1-4.15-5.69-2.67-8.39C4017.22,49.79,4015.74,48.29,4013.37,47.99L4013.37,47.99z M1629.73,48.29
	c-2.37,0-5.34,1.2-6.82,3c-2.96,3.3-1.48,3.9,5.04,1.8c5.34-1.5,7.11-3.6,4.15-4.49C1631.5,48.59,1630.61,48.29,1629.73,48.29
	L1629.73,48.29z M4129.56,48.29c-2.37,0-5.34,1.2-6.82,3c-2.96,3.3-1.48,3.9,5.04,1.8c5.34-1.5,7.11-3.6,4.15-4.49
	C4131.04,48.59,4130.15,48.29,4129.56,48.29z M1610.76,49.19c-0.59,0-1.78,0.3-3.85,1.2c-3.56,1.5-6.52,4.49-6.52,6.59
	c0,5.69,2.37,4.79,8-2.7C1610.76,50.69,1611.64,49.19,1610.76,49.19L1610.76,49.19z M4110.29,49.19c-0.59,0-1.78,0.3-3.85,1.2
	c-3.56,1.5-6.52,4.49-6.52,6.59c0,5.69,2.37,4.79,8-2.7C4110.59,50.69,4111.48,49.19,4110.29,49.19L4110.29,49.19z M1531.91,49.19
	c-6.52,0-6.82,3.6-3.56,13.48c1.19,3.9,5.34,6.89,8.89,6.89c5.04,0,5.34-0.9,1.19-3.6c-4.15-3-4.15-4.2,0.89-6.29
	c3.26-1.5,7.11-0.9,8,0.9c2.96,5.09,21.34,4.49,24.3-0.9c1.48-2.7,0-3.6-3.56-2.1c-3.26,1.5-7.71,0.9-9.48-0.9
	c-1.78-1.8-10.08-4.79-18.08-6.29C1536.95,49.49,1533.99,49.19,1531.91,49.19L1531.91,49.19z M4031.45,49.19
	c-6.52,0-6.82,3.6-3.56,13.48c1.19,3.9,5.34,6.89,8.89,6.89c5.04,0,5.34-0.9,1.19-3.6c-4.15-3-4.15-4.2,0.89-6.29
	c3.26-1.5,7.11-0.9,8,0.9c2.96,5.09,21.34,4.49,24.3-0.9c1.48-2.7,0-3.6-3.56-2.1c-3.26,1.5-7.71,0.9-9.48-0.9
	c-1.78-1.8-10.08-4.79-18.08-6.29C4036.78,49.49,4033.82,49.19,4031.45,49.19L4031.45,49.19z M1582.89,52.19
	c-3.56,0-4.74,2.4-3.56,6.59c1.19,3.6,3.85,5.39,5.63,4.2C1590.6,58.78,1589.12,52.19,1582.89,52.19L1582.89,52.19z M4082.43,52.19
	c-3.56,0-4.74,2.4-3.56,6.59c1.19,3.6,3.85,5.39,5.63,4.2C4090.43,58.78,4088.95,52.19,4082.43,52.19L4082.43,52.19z M1408.61,60.88
	c-2.07,0-3.85,1.8-3.85,4.2c0,2.4,1.78,4.2,3.85,4.2s3.85-1.8,3.85-4.2C1412.46,62.67,1410.98,60.88,1408.61,60.88z M1442.1,60.88
	c-0.89,0-2.96,1.8-4.15,4.2c-1.19,2.4-0.59,4.2,1.78,4.2s4.15-1.8,4.15-4.2C1443.88,62.67,1443.29,60.88,1442.1,60.88z
	 M3908.44,60.88c-2.07,0-3.85,1.8-3.85,4.2c0,2.4,1.78,4.2,3.85,4.2c2.07,0,3.85-1.8,3.85-4.2
	C3912.29,62.67,3910.52,60.88,3908.44,60.88z M3941.93,60.88c-0.89,0-2.96,1.8-4.15,4.2c-1.19,2.4-0.59,4.2,1.78,4.2
	c2.37,0,4.15-1.8,4.15-4.2C3943.71,62.67,3942.82,60.88,3941.93,60.88z M1348.74,60.88c-5.63,0.3-10.37,1.8-10.37,4.49
	c0,2.7-2.07,3.9-4.74,2.7s-8-3.6-11.86-5.39c-4.74-2.1-6.82-0.9-6.82,3.6c0,4.2,4.45,7.19,12.75,8.39c7.11,0.9,14.82,2.1,17.49,2.4
	c2.67,0.3,9.19-1.5,14.82-4.49c7.41-3.6,8.6-5.99,5.04-8.69C1361.19,61.77,1354.67,60.58,1348.74,60.88L1348.74,60.88z
	 M3848.57,60.88c-5.63,0.3-10.37,1.8-10.37,4.49c0,2.7-2.07,3.9-4.74,2.7s-8-3.6-11.86-5.39c-4.74-2.1-6.82-0.9-6.82,3.6
	c0,4.2,4.45,7.19,12.75,8.39c7.11,0.9,14.82,2.1,17.49,2.4c2.67,0.3,9.19-1.5,14.82-4.49c7.41-3.6,8.6-5.99,5.04-8.69
	C3860.72,61.77,3854.2,60.58,3848.57,60.88L3848.57,60.88z M1868.62,66.27c-0.89,0.3-2.07,2.1-4.15,5.09c-4.74,7.19-5.93,7.19-8,1.5
	c-1.78-4.79-7.41-6.59-19.27-6.59c-21.04,0.3-16.6,6.89,11.56,17.08c10.67,3.9,19.86,7.19,20.45,7.49c0.59,0.3,0.89-5.99,0.89-13.48
	C1870.1,68.67,1869.81,65.67,1868.62,66.27z M4368.16,66.27c-0.89,0.3-2.07,2.1-4.15,5.09c-4.74,7.19-5.93,7.19-8,1.5
	c-1.78-4.79-7.41-6.59-19.27-6.59c-21.04,0.3-16.6,6.89,11.56,17.08c10.67,3.9,19.86,7.19,20.45,7.49s0.89-5.99,0.89-13.48
	C4369.64,68.67,4369.64,65.67,4368.16,66.27L4368.16,66.27z M1271.97,69.57c-4.74,0-7.11,1.8-5.63,4.49
	c1.48,2.4,0.3,7.79-2.67,11.69c-4.45,5.99-4.45,6.59,1.48,4.2c3.56-1.5,7.71-0.6,9.19,1.8c1.78,3,3.85,3,6.82-0.3
	c2.37-2.7,8-4.49,12.15-4.49c7.71,0,7.71,0.3,0.89,5.99c-5.34,4.49-5.63,6.29-2.07,7.79c4.15,1.5,4.15,3,0,8.69
	c-4.15,5.39-4.15,7.19,0,8.99c8.6,3.9,10.37,3.3,12.75-5.09c5.63-19.48,29.64-27.87,29.64-10.49c0,3.6,1.78,5.69,3.85,4.79
	c9.48-3.6,4.15-9.89-19.27-23.67c-17.78-10.49-26.08-13.48-29.05-10.19c-5.34,5.69-15.71,5.99-12.45,0.3
	C1279.08,71.36,1276.42,69.57,1271.97,69.57L1271.97,69.57z M3771.51,69.57c-4.74,0-7.11,1.8-5.63,4.49
	c1.48,2.4,0.3,7.79-2.67,11.69c-4.45,5.99-4.45,6.59,1.48,4.2c3.56-1.5,7.71-0.6,9.19,1.8c1.78,3,3.85,3,6.82-0.3
	c2.37-2.7,8-4.49,12.15-4.49c7.71,0,7.71,0.3,0.89,5.99c-5.34,4.49-5.63,6.29-2.07,7.79c4.15,1.5,4.15,3,0,8.69
	c-4.15,5.39-4.15,7.19,0,8.99c8.6,3.9,10.37,3.3,12.75-5.09c5.63-19.48,29.64-27.87,29.64-10.49c0,3.6,1.78,5.69,3.85,4.79
	c9.48-3.6,4.15-9.89-19.27-23.67c-17.78-10.49-26.08-13.48-29.05-10.19c-5.34,5.69-15.71,5.99-12.45,0.3
	C3778.92,71.36,3776.25,69.57,3771.51,69.57L3771.51,69.57z M454.21,76.16c-4.74,0,1.19,5.39,16.3,14.38
	c17.78,10.49,22.53,10.79,13.04,0.3c-4.45-4.79-13.93-10.49-21.04-12.89C458.65,76.76,455.98,76.16,454.21,76.16L454.21,76.16z
	 M2954.04,76.16c-4.74,0,1.19,5.39,16.3,14.38c17.78,10.49,22.53,10.79,13.04,0.3c-4.45-4.79-13.93-10.49-21.04-12.89
	C2958.19,76.76,2955.52,76.16,2954.04,76.16L2954.04,76.16z M1898.26,79.75c-8,0.3-20.16,8.99-20.16,15.58c0,1.8,7.11,0.9,15.71-1.5
	c17.49-5.09,19.86-9.59,7.41-13.78C1900.34,79.75,1899.45,79.75,1898.26,79.75L1898.26,79.75z M4397.8,79.75
	c-8,0.3-20.16,8.99-20.16,15.58c0,1.8,7.11,0.9,15.71-1.5c17.49-5.09,19.86-9.59,7.41-13.78
	C4400.17,79.75,4398.98,79.75,4397.8,79.75L4397.8,79.75z M408.86,91.44c-8,0.3-8.89,1.2-3.26,2.7c7.11,2.1,6.82,2.7-2.07,8.09
	c-5.34,3.3-7.11,5.99-4.45,5.99c7.41,0.3,20.16-8.09,20.16-12.89C419.53,92.94,414.79,91.14,408.86,91.44L408.86,91.44z
	 M2908.39,91.44c-8,0.3-8.89,1.2-3.26,2.7c7.11,2.1,6.82,2.7-2.07,8.09c-5.34,3.3-7.11,5.99-4.45,5.99
	c7.41,0.3,20.16-8.09,20.16-12.89C2919.06,92.94,2914.32,91.14,2908.39,91.44L2908.39,91.44z M509.04,93.24
	c-2.07-0.3-3.56,0.6-3.56,2.4c0,2.4,2.67,4.2,5.93,4.2c3.26,0,5.93-0.9,5.93-1.8c0-0.9-2.67-2.7-5.93-4.2
	C510.52,93.54,509.93,93.24,509.04,93.24z M3008.87,93.24c-2.07-0.3-3.56,0.6-3.56,2.4c0,2.4,2.67,4.2,5.93,4.2
	c3.26,0,5.93-0.9,5.93-1.8c0-0.9-2.67-2.7-5.93-4.2C3010.35,93.54,3009.46,93.24,3008.87,93.24z M1906.56,104.03
	c-3.85,0-8.89,1.8-11.86,5.09c-2.67,3-4.74,8.39-4.74,12.59c0,5.99-5.04,8.09-26.38,10.19c-43.27,4.79-77.06,11.09-80.92,15.28
	c-2.07,2.4-1.48,6.59,1.48,10.49c4.45,5.99,2.07,6.59-18.97,6.59c-13.04,0-24.01,1.2-24.01,2.7c0,1.5,5.34,8.09,12.15,14.98
	c11.86,12.29,13.34,21.28,4.15,24.57c-2.67,0.9-4.74-2.4-4.74-7.49c0-10.19-13.34-17.68-30.53-17.38c-9.48,0-9.78,0.6-3.56,5.99
	c8.3,6.89,8.89,11.39,1.19,11.39c-2.96,0-9.19-5.09-13.63-11.09l-8-11.09l-2.37,10.79c-3.56,16.18,0.89,26.37,14.23,31.76
	c6.52,2.7,13.04,8.99,14.23,13.78c1.19,4.79,3.56,8.99,5.63,8.99c1.78,0,3.56,1.8,3.56,4.2c0,8.69-12.15,3.9-16.3-6.59
	c-5.93-14.08-13.34-13.78-20.45,1.5c-9.19,19.48-16.6,24.57-28.16,18.58c-5.34-2.7-8.89-6.89-7.41-9.29c1.48-3,4.74-3,9.78,0
	c6.22,3.6,8,2.1,11.86-10.49c2.67-8.99,3.26-24.87,1.78-41.05c-2.37-23.07-3.85-26.07-10.97-26.07c-5.04,0-11.56,5.99-16.89,14.98
	l-8.6,14.68l8,11.39c10.37,14.68,4.15,23.67-9.19,13.18c-11.86-8.99-34.09-8.99-43.27,0.3c-5.93,5.99-8,6.29-10.67,1.8
	c-2.67-4.49-5.63-4.2-15.71,1.5c-8.6,5.09-13.93,5.69-17.19,2.7c-5.63-5.09-25.79,1.5-42.98,13.78
	c-11.56,8.39-18.97,6.59-17.49-4.79c0.59-3.9-1.78-7.79-5.04-8.39c-4.74-1.2-5.63,1.8-4.45,13.78c1.48,14.68,1.19,15.28-10.37,15.28
	c-8.3,0-13.34,3-16.3,8.99c-3.26,6.89-6.52,8.39-14.52,6.29c-8.89-2.4-9.48-2.1-5.04,3.9c4.45,5.69,3.85,6.89-2.67,6.89
	c-4.15,0-10.08-3.3-13.04-7.49c-7.71-10.49-16.01-27.57-14.52-29.37c0.59-0.9,8.3,0.6,17.19,3.3c17.78,5.09,38.24,1.5,35.86-6.59
	c-2.67-9.29-50.98-33.26-66.99-33.26c-13.04,0-14.52-0.9-10.37-6.59c3.85-5.09,3.85-6.59-0.59-6.89c-2.96-0.3-12.75-0.9-21.93-1.8
	c-9.19-0.6-16.6,0.3-16.6,2.7c0,2.1-4.45,3.9-9.78,3.9c-5.34,0-9.78,1.8-9.78,4.2c0,2.4-6.22,5.39-13.63,6.89
	c-7.41,1.5-13.63,5.09-13.63,7.79c0,5.39-26.97,33.26-32.31,33.26c-1.78,0-2.37,1.8-1.19,3.9c1.19,2.1-1.19,5.39-5.63,6.89
	c-5.93,2.1-7.11,4.49-4.15,10.19c4.74,9.59-1.78,22.77-9.78,19.48c-3.26-1.5-10.08,1.8-15.41,7.49c-7.11,7.49-9.48,14.38-9.48,28.47
	c0,22.47,3.85,25.77,19.86,16.78c6.82-3.9,12.75-6.29,13.63-5.39c0.59,0.9,4.74,10.49,9.19,21.58c7.71,20.08,8,20.08,19.86,15.28
	c7.71-3.3,11.86-8.09,11.86-13.48c0-4.49,2.96-11.99,6.52-16.18c5.34-6.59,5.63-9.89,1.78-20.08c-5.93-15.58,0-32.36,13.93-39.26
	c5.04-2.7,9.48-7.49,9.48-11.09c0-8.09,10.67-19.78,18.08-19.78c11.56,0,10.37,13.48-2.07,27.87
	c-10.08,11.39-12.15,17.38-11.26,28.77c1.48,15.58,2.37,16.18,30.53,10.49c13.34-2.7,27.86,3,22.53,8.69
	c-1.48,1.5-10.67,3.9-20.75,5.09l-18.08,2.4l2.37,14.68c2.37,14.08,2.07,14.68-7.41,11.99c-8.3-2.4-10.08-1.2-10.08,6.29
	c0,11.69-14.23,26.07-23.42,23.67c-3.85-1.2-12.45,0.9-18.97,4.79c-7.41,4.2-12.75,5.09-14.52,2.4c-1.19-2.4-6.52-4.2-11.86-4.2
	c-10.37,0-16.01-7.19-14.23-18.28c0.59-4.2-0.89-7.49-3.26-7.49c-2.67,0-3.85,5.99-3.26,15.88c1.19,14.68,0.3,16.18-11.26,19.48
	c-7.11,2.1-15.41,8.39-18.97,14.38c-3.56,5.99-8.6,10.79-11.26,10.79s-7.71,3.6-11.26,8.09c-3.56,4.49-13.04,11.69-21.34,15.88
	l-14.82,7.79l8.89,10.79c9.78,11.69,11.86,32.66,4.15,38.36c-2.67,1.8-14.52,3.6-26.08,3.6h-21.04l-1.48,26.67
	c-1.48,26.67-1.48,26.67,11.86,33.86c12.45,6.59,14.23,6.59,28.45-0.9c9.78-5.09,15.41-11.09,16.3-17.68
	c0.59-5.39,6.22-12.59,12.15-16.18s12.15-11.09,13.34-17.08c1.78-8.09,5.04-11.09,12.15-11.09c5.34,0,13.93-2.1,19.27-4.79
	c8.89-4.49,11.86-2.7,34.38,19.78c13.63,13.48,25.79,27.87,27.27,31.76c1.78,5.09,2.67,3.9,2.96-4.79c0.3-8.39,1.78-11.39,5.04-9.29
	c2.67,1.5,0.59-1.2-4.74-5.99c-5.34-4.79-10.97-8.99-12.15-8.99c-5.63-0.3-22.23-33.56-18.97-38.96c2.37-4.2,9.19,0.3,26.97,17.38
	c13.04,12.59,23.71,25.17,23.71,28.17c0,6.29,14.82,28.17,18.67,27.57c8.3-1.2,9.19,1.2,2.37,6.89c-4.15,3.6-5.63,6.29-3.26,6.59
	c2.37,0,6.52-2.7,9.19-6.29c3.85-5.09,3.85-7.79,0-12.89c-6.82-8.99,0.89-18.58,16.89-20.38c10.67-1.2,12.75-3.3,14.52-16.48
	c1.19-8.39,5.34-20.38,9.19-26.97c10.37-17.38,27.86-21.28,27.86-6.29c0,2.7,3.56,5.69,7.71,6.59c6.22,1.5,6.82,0.6,2.96-4.79
	c-3.85-5.09-2.96-7.19,5.34-11.39c14.82-7.49,18.38-6.29,16.6,5.69c-1.48,7.79,1.48,14.08,11.26,24.57
	c7.11,7.79,13.04,16.48,13.04,19.48c0,8.09-17.49,11.69-31.71,6.29c-18.08-6.89-29.34-5.99-50.68,4.79
	c-14.52,7.19-19.27,11.99-19.27,19.18c0,17.08,9.19,22.17,37.35,21.28l25.79-0.9l-2.67,17.68c-1.48,9.59-5.63,23.37-9.19,30.27
	c-6.22,11.99-8,12.59-27.57,11.69c-11.56-0.6-27.86-3.9-36.46-7.49c-21.64-8.39-26.97-7.79-36.16,4.49l-8,10.79l-29.34-16.48
	c-26.08-14.68-29.34-17.68-29.64-29.07c-0.59-24.27,0-23.67-24.01-20.98c-12.45,1.5-34.68,6.29-49.2,11.09
	c-14.82,4.79-29.34,7.49-32.31,6.29c-8.3-3.6-32.6,27.57-32.6,41.95c0,7.19-4.45,16.78-10.67,23.67
	c-5.93,6.29-16.3,20.08-23.42,29.97c-11.26,16.18-12.75,21.58-12.75,45.25c0,14.98-1.78,33.26-3.56,41.35
	c-3.26,12.59-2.07,17.08,11.86,40.75c8.6,14.38,15.41,28.77,15.41,31.76c0,3,5.34,10.49,12.15,16.48
	c10.08,9.29,16.01,11.09,35.86,11.09c13.04,0,33.2-3.3,44.76-7.19c20.45-7.19,21.04-7.19,29.64,1.8
	c4.74,5.09,14.23,9.59,20.45,10.49l11.86,1.5l0.59,31.76c0.59,20.68,2.67,34.16,6.52,38.96c9.48,11.99,22.23,46.75,22.23,61.13
	c0,7.49-2.96,23.37-6.52,35.36c-6.22,20.98-6.22,23.07,1.78,48.24c4.45,14.68,8.89,33.86,10.08,42.85
	c1.19,8.99,7.71,29.67,14.52,46.15c7.71,18.58,11.56,32.66,9.78,38.36c-1.78,5.99-0.3,10.19,4.45,13.19c3.85,2.4,9.78,3.6,12.75,2.7
	c3.26-0.9,13.93-3,23.42-4.49c9.78-1.5,21.64-5.69,26.68-9.29c11.86-8.39,32.01-43.75,32.01-56.64c0-5.69,4.74-14.98,10.37-20.68
	c9.19-9.29,10.08-12.89,8-29.97c-2.37-18.88-2.07-19.48,17.49-37.76l19.86-18.58l-2.07-28.17c-1.19-15.58-3.56-35.36-5.63-44.05
	c-5.34-21.87,4.45-44.35,33.79-78.51c22.82-26.37,35.27-48.84,45.94-81.81c5.04-15.88,5.04-16.78-1.48-14.08
	c-3.85,1.5-14.82,3.9-24.9,5.39c-17.78,2.4-18.08,2.1-29.64-16.48c-31.12-50.64-35.57-59.33-40.01-79.41
	c-2.67-11.99-10.37-32.66-16.89-46.15c-6.82-13.48-10.97-26.07-9.19-27.87c1.78-1.8,4.74-0.3,6.52,3c2.67,4.79,3.56,4.79,3.56,0.6
	c0-10.19,8.6,0,16.6,20.08c4.45,10.79,10.37,22.47,13.34,25.77c2.96,3.3,5.34,10.19,5.34,15.58c0,5.39,5.34,17.38,11.56,26.97
	c6.22,9.59,12.75,25.47,14.23,35.36c3.26,22.77,8.3,23.07,45.35,2.4c36.16-20.08,47.72-29.67,59.87-50.04l10.08-16.78l-13.63-14.08
	c-13.34-13.78-13.63-14.08-22.53-6.29c-14.82,12.59-20.16,9.29-33.49-20.08c-14.82-32.06-14.52-30.86-6.82-33.86
	c3.56-1.5,10.97,3.6,18.97,12.89c8.89,10.49,16.89,15.58,24.9,16.18c6.52,0.3,14.82,3.9,18.38,8.09c4.74,5.39,13.04,7.49,29.34,7.49
	c17.78,0,25.19,2.1,35.57,10.79c7.41,5.99,15.71,10.79,18.67,10.79c3.56,0,4.45,3,2.96,8.69c-2.67,9.59,1.78,11.39,8.89,3.6
	c5.63-6.29,7.41-1.5,10.08,29.67c2.07,22.17,23.42,85.4,30.23,90.2c5.04,3.6,15.12-25.17,15.12-43.45
	c0-13.48,3.56-19.18,26.38-44.05c20.45-22.17,42.39-38.36,54.24-40.15c0.3,0,5.04,7.79,10.67,17.08s10.37,23.07,10.37,30.27
	c0,12.89,8.3,18.28,13.63,8.69c1.19-2.4,3.85-4.2,5.34-4.2c3.26,0,11.86,37.46,12.75,55.44c0.3,8.99,0.89,9.59,2.37,3
	c2.67-11.69,8.6-19.48,15.12-19.48c7.41,0,25.19,22.17,25.19,31.46c0,6.59,2.07,5.99,13.93-4.2c13.04-11.09,13.93-13.48,12.45-31.46
	c-0.89-11.99-5.93-26.67-12.75-38.06l-10.97-18.58l10.08-11.39c8.6-9.59,11.26-10.49,16.3-5.69c3.26,3,6.22,3.6,6.22,1.2
	s9.48-7.49,21.04-11.69c26.38-9.29,29.94-12.29,47.13-41.05c10.37-17.68,12.75-24.87,9.48-29.07c-2.37-3-2.96-5.69-1.48-5.69
	c1.48,0,0.89-2.7-1.78-5.99c-3.26-4.49-3.26-6.89-0.3-8.99s2.37-5.99-1.78-13.18c-8.3-14.08-7.71-21.58,3.26-31.16l9.48-8.39h-12.15
	c-15.41,0-25.19-8.99-18.67-17.38c5.93-7.79,26.68-20.08,29.34-17.08c1.19,1.2-0.3,6.59-2.96,12.29l-4.74,8.69l8.6-8.39
	c6.82-6.59,10.08-7.49,15.12-3.9c3.56,2.7,6.22,7.49,5.63,11.09s1.78,8.99,4.74,11.99c3.26,3,5.93,10.19,5.93,15.58
	c0,11.09,2.67,12.29,11.56,5.99c5.04-3.6,5.04-6.59-1.19-24.57l-6.82-20.38l16.6-18.58c10.37-11.69,18.97-17.68,22.82-16.48
	c6.82,2.4,20.75-11.99,36.16-37.76c11.56-19.18,20.16-55.14,16.89-70.12c-2.07-8.69-4.15-10.19-13.04-8.39
	c-6.22,1.2-13.93-0.6-18.38-4.49c-7.41-6.29-7.11-6.89,5.93-21.87c7.41-8.39,20.75-20.68,29.94-27.27
	c15.41-11.09,18.67-11.99,51.57-10.79l35.27,1.2l13.34-14.98c16.3-17.98,36.16-21.28,31.71-5.09l-2.67,9.59l9.19-8.69
	c5.04-4.79,11.26-11.69,13.93-14.98c5.63-7.79,11.26-3.3,6.52,5.39c-1.78,3.3-14.82,17.38-28.75,30.86
	c-13.93,13.78-26.97,29.07-28.75,34.16c-3.26,8.99-0.89,42.85,3.56,50.64c2.37,4.2,18.38-15.28,22.53-27.27
	c1.48-4.2,5.33-7.49,8.6-7.49c3.56,0,5.34-1.8,4.15-3.9c-1.19-2.1,0.3-6.89,3.56-10.49c4.45-4.79,5.04-9.29,2.37-16.78
	c-2.07-6.29-2.07-13.18,0.3-17.68c5.93-11.69,26.68-21.58,40.61-18.88c9.19,1.5,18.97-1.2,35.57-10.49
	c12.75-7.19,26.08-11.99,29.94-10.79c9.78,2.7,8.89-12.89-0.89-19.78c-10.97-7.49-9.78-11.99,3.56-11.99c8.3,0,11.86-2.4,13.63-9.29
	c1.78-8.09,3.26-8.39,8.3-3.6c3.26,3,7.11,4.49,8.6,3s8.6,1.8,16.6,6.89l14.23,9.59l10.97-11.69c10.67-11.39,10.67-11.69,3.26-16.18
	c-9.78-5.69-20.16-5.99-20.16-0.3c0,2.4-1.78,4.2-3.85,4.2c-2.07,0-3.85-2.7-3.85-6.29c0-15.58-36.16-32.96-80.92-39.26
	c-18.08-2.4-20.16-1.8-19.56,5.09c0.3,5.69-1.48,7.49-7.11,6.29c-4.45-0.9-19.86-2.7-34.38-4.49c-21.93-2.4-27.86-4.79-33.79-13.18
	c-6.22-9.29-9.19-10.19-27.27-7.79c-20.75,2.7-32.6-1.2-41.79-14.08c-3.85-5.09-6.52-5.39-14.82-1.2
	c-14.52,7.19-19.86,6.89-13.93-1.2c4.15-5.69,2.07-6.59-15.12-6.59c-15.41,0-20.16,1.5-20.16,6.59c0,8.09-15.41,15.28-23.42,10.79
	c-7.41-4.2-31.42-0.3-31.42,4.79c0,8.09-12.15,3.3-24.3-9.59c-8.3-8.69-10.97-14.08-8-15.58c13.93-6.29,1.19-10.49-31.42-9.89
	c-65.5,0.6-68.76,0.3-71.43-8.99c-1.19-4.49-5.34-8.39-8.89-8.39c-5.63,0-5.63,1.2,1.19,6.89c7.71,6.59,7.71,6.59-1.48,3.6
	c-6.22-2.1-8.3-1.5-6.52,1.8c1.48,2.7-1.48,6.59-7.71,8.99c-12.75,5.39-25.49,5.69-25.49,0.3c0-4.79,30.23-24.87,41.2-26.97
	c8.3-1.8,10.67-12.29,4.15-17.68c-2.37-1.8-12.75-3.3-23.71-3.3c-21.34,0-32.01-4.79-27.57-12.59
	C1913.08,105.52,1910.42,104.03,1906.56,104.03L1906.56,104.03z M4406.39,104.03c-3.85,0-8.89,1.8-11.86,5.09
	c-2.67,3-4.74,8.39-4.74,12.59c0,5.99-5.04,8.09-26.38,10.19c-43.27,4.79-77.06,11.09-80.92,15.28c-2.07,2.4-1.48,6.59,1.48,10.49
	c4.45,5.99,2.07,6.59-18.97,6.59c-13.04,0-24.01,1.2-24.01,2.7c0,1.5,5.33,8.09,12.15,14.98c11.86,12.29,13.34,21.28,4.15,24.57
	c-2.67,0.9-4.74-2.4-4.74-7.49c0-10.19-13.34-17.68-30.53-17.38c-9.48,0-9.78,0.6-3.56,5.99c8.3,6.89,8.89,11.39,1.19,11.39
	c-2.96,0-9.19-5.09-13.63-11.09l-8-11.09l-2.37,10.79c-3.56,16.18,0.89,26.37,14.23,31.76c6.52,2.7,13.04,8.99,14.23,13.78
	c1.19,4.79,3.56,8.99,5.63,8.99c1.78,0,3.56,1.8,3.56,4.2c0,8.69-12.15,3.9-16.3-6.59c-5.93-14.08-13.34-13.78-20.45,1.5
	c-9.19,19.48-16.6,24.57-28.16,18.58c-5.34-2.7-8.89-6.89-7.41-9.29c1.48-3,4.74-3,9.78,0c6.22,3.6,8,2.1,11.86-10.49
	c2.67-8.99,3.26-24.87,1.78-41.05c-2.37-23.07-3.85-26.07-10.97-26.07c-5.04,0-11.56,5.99-16.89,14.98l-8.6,14.68l8,11.39
	c10.37,14.68,4.15,23.67-9.19,13.18c-11.86-8.99-34.09-8.99-43.27,0.3c-5.93,5.99-8,6.29-10.67,1.8c-2.67-4.49-5.63-4.2-15.71,1.5
	c-8.6,5.09-13.93,5.69-17.19,2.7c-5.63-5.09-25.79,1.5-42.98,13.78c-11.56,8.39-18.97,6.59-17.49-4.79c0.59-3.9-1.78-7.79-5.04-8.39
	c-4.74-1.2-5.63,1.8-4.45,13.78c1.48,14.68,1.19,15.28-10.37,15.28c-8.3,0-13.34,3-16.3,8.99c-3.26,6.89-6.52,8.39-14.52,6.29
	c-8.89-2.4-9.48-2.1-5.04,3.9c4.45,5.69,3.85,6.89-2.67,6.89c-4.15,0-10.08-3.3-13.04-7.49c-7.71-10.49-16.01-27.57-14.52-29.37
	c0.59-0.9,8.3,0.6,17.19,3.3c17.78,5.09,38.24,1.5,35.86-6.59c-2.67-9.29-50.98-33.26-66.99-33.26c-13.04,0-14.52-0.9-10.37-6.59
	c3.85-5.09,3.85-6.59-0.59-6.89c-2.96-0.3-12.75-0.9-21.93-1.8c-9.19-0.9-16.6,0.3-16.6,2.7c0,2.1-4.45,3.9-9.78,3.9
	c-5.34,0-9.78,1.8-9.78,4.2c0,2.4-6.22,5.39-13.63,6.89c-7.41,1.5-13.63,5.09-13.63,7.79c0,5.39-26.97,33.26-32.31,33.26
	c-1.78,0-2.37,1.8-1.19,3.9c1.19,2.1-1.19,5.39-5.63,6.89c-5.93,2.1-7.11,4.49-4.15,10.19c4.74,9.59-1.78,22.77-9.78,19.48
	c-3.26-1.5-10.08,1.8-15.41,7.49c-7.11,7.49-9.48,14.38-9.48,28.47c0,22.47,3.85,25.77,19.86,16.78c6.82-3.9,12.75-6.29,13.63-5.39
	c0.59,0.9,4.74,10.49,9.19,21.58c7.71,20.08,8,20.08,19.86,15.28c7.71-3.3,11.86-8.09,11.86-13.48c0-4.49,2.96-11.99,6.52-16.18
	c5.34-6.59,5.63-9.89,1.78-20.08c-5.93-15.58,0-32.36,13.93-39.26c5.04-2.7,9.48-7.49,9.48-11.09c0-8.09,10.67-19.78,18.08-19.78
	c11.56,0,10.37,13.48-2.07,27.87c-10.08,11.39-12.15,17.38-11.26,28.77c1.48,15.58,2.37,16.18,30.53,10.49
	c13.34-2.7,27.86,3,22.53,8.69c-1.48,1.5-10.67,3.9-20.75,5.09l-18.08,2.4l2.37,14.68c2.37,14.08,2.07,14.68-7.41,11.99
	c-8.3-2.4-10.08-1.2-10.08,6.29c0,11.69-14.23,26.07-23.42,23.67c-3.85-1.2-12.45,0.9-18.97,4.79c-7.41,4.2-12.75,5.09-14.52,2.4
	c-1.19-2.4-6.52-4.2-11.86-4.2c-10.37,0-16.01-7.19-14.23-18.28c0.59-4.2-0.89-7.49-3.26-7.49c-2.67,0-3.85,5.99-3.26,15.88
	c1.19,14.68,0.3,16.18-11.26,19.48c-7.11,2.1-15.41,8.39-18.97,14.38c-3.56,5.99-8.6,10.79-11.26,10.79s-7.71,3.6-11.26,8.09
	c-3.56,4.49-13.04,11.69-21.34,15.88l-14.82,7.79l8.89,10.79c9.78,11.69,11.86,32.66,4.15,38.36c-2.67,1.8-14.52,3.6-26.08,3.6
	h-21.04l-1.48,26.67c-1.48,26.67-1.48,26.67,11.86,33.86c12.45,6.59,14.23,6.59,28.45-0.9c9.78-5.09,15.41-11.09,16.3-17.68
	c0.59-5.39,6.22-12.59,12.15-16.18s12.15-11.09,13.34-17.08c1.78-8.09,5.04-11.09,12.15-11.09c5.34,0,13.93-2.1,19.27-4.79
	c8.89-4.49,11.86-2.7,34.38,19.78c13.63,13.48,25.79,27.87,27.27,31.76c1.78,5.09,2.67,3.9,2.96-4.79c0.3-8.39,1.78-11.39,5.04-9.29
	c2.67,1.5,0.59-1.2-4.74-5.99c-5.34-4.79-10.97-8.99-12.15-8.99c-5.63-0.3-22.23-33.56-18.97-38.96c2.37-4.2,9.19,0.3,26.97,17.38
	c13.04,12.59,23.71,25.17,23.71,28.17c0,6.29,14.82,28.17,18.67,27.57c8.3-1.2,9.19,1.2,2.37,6.89c-4.15,3.6-5.63,6.29-3.26,6.59
	c2.37,0,6.52-2.7,9.19-6.29c3.85-5.09,3.85-7.79,0-12.89c-6.82-8.99,0.89-18.58,16.89-20.38c10.67-1.2,12.75-3.3,14.52-16.48
	c1.19-8.39,5.34-20.38,9.19-26.97c10.37-17.38,27.86-21.28,27.86-6.29c0,2.7,3.56,5.69,7.71,6.59c6.22,1.5,6.82,0.6,2.96-4.79
	c-3.85-5.09-2.96-7.19,5.34-11.39c14.82-7.49,18.38-6.29,16.6,5.69c-1.48,7.79,1.48,14.08,11.26,24.57
	c7.11,7.79,13.04,16.48,13.04,19.48c0,8.09-17.49,11.69-31.71,6.29c-18.08-6.89-29.34-5.99-50.68,4.79
	c-14.52,7.19-19.27,11.99-19.27,19.18c0,17.08,9.19,22.17,37.35,21.28l25.79-0.9l-2.67,17.68c-1.48,9.59-5.63,23.37-9.19,30.27
	c-6.22,11.99-8,12.59-27.57,11.69c-11.56-0.6-27.86-3.9-36.46-7.49c-21.64-8.39-26.97-7.79-36.16,4.49l-8,10.79l-29.34-16.48
	c-26.08-14.68-29.34-17.68-29.64-29.07c-0.59-24.27,0-23.67-24.01-20.98c-12.45,1.5-34.68,6.29-49.2,11.09
	c-14.82,4.79-29.34,7.49-32.31,6.29c-8.3-3.6-32.6,27.57-32.6,41.95c0,7.19-4.45,16.78-10.67,23.67
	c-5.93,6.29-16.3,20.08-23.42,29.97c-11.26,16.18-12.75,21.58-12.75,45.25c0,14.98-1.78,33.26-3.56,41.35
	c-3.26,12.59-2.07,17.08,11.86,40.75c8.6,14.38,15.41,28.77,15.41,31.76c0,3,5.34,10.49,12.15,16.48
	c10.08,9.29,16.01,11.09,35.86,11.09c13.04,0,33.2-3.3,44.76-7.19c20.45-7.19,21.04-7.19,29.64,1.8
	c4.74,5.09,14.23,9.59,20.45,10.49l11.86,1.5l0.59,31.76c0.59,20.68,2.67,34.16,6.52,38.96c9.48,11.99,22.23,46.75,22.23,61.13
	c0,7.49-2.96,23.37-6.52,35.36c-6.22,20.98-6.22,23.07,1.78,48.24c4.45,14.68,8.89,33.86,10.08,42.85
	c1.19,8.99,7.71,29.67,14.52,46.15c7.71,18.58,11.56,32.66,9.78,38.36c-1.78,5.99-0.3,10.19,4.45,13.19c3.85,2.4,9.78,3.6,12.75,2.7
	c3.26-0.9,13.93-3,23.42-4.49c9.78-1.5,21.64-5.69,26.68-9.29c11.86-8.39,32.01-43.75,32.01-56.64c0-5.69,4.74-14.98,10.37-20.68
	c9.19-9.29,10.08-12.89,8-29.97c-2.37-18.88-2.07-19.48,17.49-37.76l19.86-18.58l-2.07-28.17c-1.19-15.58-3.56-35.36-5.63-44.05
	c-5.34-21.87,4.45-44.35,33.79-78.51c22.82-26.37,35.27-48.84,45.94-81.81c5.04-15.88,5.04-16.78-1.48-14.08
	c-3.85,1.5-14.82,3.9-24.9,5.39c-17.78,2.4-18.08,2.1-29.64-16.48c-31.12-50.64-35.57-59.33-40.01-79.41
	c-2.67-11.99-10.37-32.66-16.89-46.15c-6.82-13.48-10.97-26.07-9.19-27.87c1.78-1.8,4.74-0.3,6.52,3c2.67,4.79,3.56,4.79,3.56,0.6
	c0-10.19,8.6,0,16.6,20.08c4.45,10.79,10.37,22.47,13.34,25.77c2.96,3.3,5.34,10.19,5.34,15.58c0,5.39,5.34,17.38,11.56,26.97
	s12.75,25.47,14.23,35.36c3.26,22.77,8.3,23.07,45.35,2.4c36.16-20.08,47.72-29.67,59.87-50.04l10.08-16.78l-13.63-14.08
	c-13.34-13.78-13.63-14.08-22.53-6.29c-14.82,12.59-20.16,9.29-33.49-20.08c-14.82-32.06-14.52-30.86-6.82-33.86
	c3.56-1.5,10.97,3.6,18.97,12.89c8.89,10.49,16.89,15.58,24.9,16.18c6.52,0.3,14.82,3.9,18.38,8.09c4.74,5.39,13.04,7.49,29.34,7.49
	c17.78,0,25.19,2.1,35.57,10.79c7.41,5.99,15.71,10.79,18.67,10.79c3.56,0,4.45,3,2.96,8.69c-2.67,9.59,1.78,11.39,8.89,3.6
	c5.63-6.29,7.41-1.5,10.08,29.67c2.07,22.17,23.42,85.4,30.23,90.2c5.04,3.6,15.12-25.17,15.12-43.45
	c0-13.48,3.56-19.18,26.38-44.05c20.45-22.17,42.38-38.36,54.24-40.15c0.3,0,5.04,7.79,10.67,17.08
	c5.63,9.59,10.37,23.07,10.37,30.27c0,12.89,8.3,18.28,13.63,8.69c1.19-2.4,3.85-4.2,5.34-4.2c3.26,0,11.86,37.46,12.75,55.44
	c0.3,8.99,0.89,9.59,2.37,3c2.67-11.69,8.6-19.48,15.12-19.48c7.41,0,25.19,22.17,25.19,31.46c0,6.59,2.07,5.99,13.93-4.2
	c13.04-11.09,13.93-13.48,12.45-31.46c-0.89-11.99-5.93-26.67-12.75-38.06l-10.97-18.58l10.08-11.39c8.6-9.59,11.26-10.49,16.3-5.69
	c3.26,3,6.22,3.6,6.22,1.2s9.48-7.49,21.04-11.69c26.38-9.29,29.94-12.29,47.13-41.05c10.37-17.68,12.75-24.87,9.48-29.07
	c-2.37-3-2.96-5.69-1.48-5.69s0.89-2.7-1.78-5.99c-3.26-4.49-3.26-6.89-0.3-8.99s2.37-5.99-1.78-13.18
	c-8.3-14.08-7.71-21.58,3.26-31.16l9.48-8.39h-11.26c-15.41,0-25.19-8.99-18.67-17.38c5.93-7.79,26.68-20.08,29.34-17.08
	c1.19,1.2-0.3,6.59-2.96,12.29l-4.74,10.19l8.6-8.39c6.82-6.59,10.08-7.49,15.12-3.9c3.56,2.7,6.22,7.49,5.63,11.09
	c-0.59,3.6,1.78,8.99,4.74,11.99c3.26,3,5.93,10.19,5.93,15.58c0,11.09,2.67,12.29,11.56,5.99c5.04-3.6,5.04-6.59-1.19-24.57
	l-6.82-20.38l16.6-18.58c10.37-11.69,18.97-17.68,22.82-16.48c6.82,2.4,20.75-11.99,36.16-37.76
	c11.56-19.18,20.16-55.14,16.89-70.12c-2.07-8.69-4.15-10.19-13.04-8.39c-6.22,1.2-13.93-0.6-18.38-4.49
	c-7.41-6.29-7.11-6.89,5.93-21.87c7.41-8.39,20.75-20.68,29.94-27.27c15.41-11.09,18.67-11.99,51.57-10.79l35.27,1.2l13.34-14.98
	c16.3-17.98,36.16-21.28,31.71-5.09l-2.67,9.59l9.19-8.69c5.04-4.79,11.26-11.69,13.93-14.98c5.63-7.79,11.26-3.3,6.52,5.39
	c-1.78,3.3-14.82,17.38-28.75,30.86c-13.93,13.78-26.97,29.07-28.75,34.16c-3.26,8.99-0.89,42.85,3.56,50.64
	c2.37,4.2,18.38-15.28,22.53-27.27c1.48-4.2,5.34-7.49,8.6-7.49c3.56,0,5.34-1.8,4.15-3.9c-1.19-2.1,0.3-6.89,3.56-10.49
	c4.45-4.79,5.04-9.29,2.37-16.78c-2.07-6.29-2.07-13.18,0.3-17.68c5.93-11.69,26.68-21.58,40.61-18.88
	c9.19,1.5,18.97-1.2,35.57-10.49c12.75-7.19,26.08-11.99,29.94-10.79c9.78,2.7,8.89-12.89-0.89-19.78
	c-10.97-7.49-9.78-11.99,3.56-11.99c8.3,0,11.86-2.4,13.63-9.29c1.78-8.09,3.26-8.39,8.3-3.6c3.26,3,7.11,4.49,8.6,3
	c1.19-1.5,8.6,1.8,16.6,6.89l14.23,9.59l10.97-11.69c10.67-11.39,10.67-11.69,3.26-16.18c-9.78-5.69-20.16-5.99-20.16-0.3
	c0,2.4-1.78,4.2-3.85,4.2c-2.07,0-3.85-2.7-3.85-6.29c0-15.58-36.16-32.96-80.92-39.26c-18.08-2.4-20.16-1.8-19.56,5.09
	c0.3,5.69-1.48,7.49-7.11,6.29c-4.45-0.9-19.86-2.7-34.38-4.49c-21.93-2.4-27.86-4.79-33.79-13.18c-6.22-9.29-9.19-10.19-27.27-7.79
	c-20.75,2.7-32.6-1.2-41.79-14.08c-3.85-5.09-6.52-5.39-14.82-1.2c-14.52,7.19-19.86,6.89-13.93-1.2c4.15-5.69,2.07-6.59-15.12-6.59
	c-15.41,0-20.16,1.5-20.16,6.59c0,8.09-15.41,15.28-23.42,10.79c-7.41-4.2-31.42-0.3-31.42,4.79c0,8.09-12.15,3.3-24.3-9.59
	c-8.3-8.69-10.97-14.08-8-15.58c13.93-6.29,1.19-10.49-31.42-9.89c-65.5,0.6-68.76,0.3-71.43-8.99c-1.19-4.49-5.34-8.39-8.89-8.39
	c-5.63,0-5.63,1.2,1.19,6.89c7.71,6.59,7.71,6.59-1.48,3.6c-6.22-2.1-8.3-1.5-6.52,1.8c1.48,2.7-1.48,6.59-7.71,8.99
	c-12.75,5.39-25.49,5.69-25.49,0.3c0-4.79,30.23-24.87,41.2-26.97c8.3-1.8,10.67-12.29,4.15-17.68c-2.37-1.8-12.75-3.3-23.71-3.3
	c-21.34,0-32.01-4.79-27.57-12.59C4412.91,105.52,4410.25,104.03,4406.39,104.03L4406.39,104.03z M370.03,110.92
	c-5.04,0-16.3,4.79-25.49,11.99c-5.63,4.2-6.22,6.59-2.67,8.09c2.96,1.2,7.71-0.3,10.97-3.3c3.26-3,8.89-6.59,12.75-7.79
	c3.85-1.5,6.82-4.49,6.82-6.89C372.7,111.52,371.51,110.92,370.03,110.92L370.03,110.92z M2869.56,110.92
	c-5.04,0-16.3,4.79-25.49,11.99c-5.63,4.2-6.22,6.59-2.67,8.09c2.96,1.2,7.71-0.3,10.97-3.3c3.26-3,8.89-6.59,12.75-7.79
	c3.85-1.5,6.82-4.49,6.82-6.89C2872.23,111.52,2871.34,110.92,2869.56,110.92L2869.56,110.92z M514.67,117.51
	c-0.89,0.3-0.89,1.2,0,2.4c1.48,2.4,7.71,5.69,14.23,7.19c6.52,1.5,11.86,5.39,11.86,8.69s6.52,8.09,14.52,10.79
	c8,2.4,23.42,3.6,34.09,2.7c10.67-1.2,23.42-1.8,28.45-2.1c4.74,0,8.89-2.1,8.89-4.49c0-2.7-14.82-4.2-36.16-4.2
	c-31.42,0-37.05-1.2-42.98-8.69c-3.56-4.79-10.08-8.69-14.23-8.69c-4.15,0-10.67-1.2-14.23-3
	C516.75,117.51,515.26,117.21,514.67,117.51L514.67,117.51z M3014.21,117.51c-0.89,0.3-0.89,1.2,0,2.4
	c1.48,2.4,7.71,5.69,14.23,7.19c6.52,1.5,11.86,5.39,11.86,8.69s6.52,8.09,14.52,10.79c8,2.4,23.42,3.6,34.09,2.7
	c10.67-1.2,23.42-1.8,28.45-2.1c4.74,0,8.89-2.1,8.89-4.49c0-2.7-14.82-4.2-36.16-4.2c-31.42,0-37.05-1.2-42.98-8.69
	c-3.56-4.79-10.08-8.69-14.23-8.69s-10.67-1.2-14.23-3C3016.58,117.51,3015.09,117.21,3014.21,117.51L3014.21,117.51z M479.1,121.41
	c-2.67,0.3-4.74,1.5-4.74,3.9c0,2.1,3.85,7.19,8.6,10.79c10.37,8.09,18.67,2.1,10.97-8.09C490.66,123.5,483.85,120.81,479.1,121.41
	L479.1,121.41z M2978.64,121.41c-2.67,0.3-4.74,1.5-4.74,3.9c0,2.1,3.85,7.19,8.6,10.79c10.37,8.09,18.67,2.1,10.97-8.09
	C2990.2,123.5,2983.38,120.81,2978.64,121.41L2978.64,121.41z M1652.25,122.31c-2.96,0-8.89,0.9-15.12,2.7
	c-8.3,2.4-26.08,6.89-39.42,9.89c-13.34,3-24.3,7.79-24.3,10.49c0,2.7-2.67,7.49-5.93,10.49c-3.26,3-5.04,6.29-4.15,7.49
	c1.19,1.2-2.37,5.69-7.71,10.49c-8.89,7.79-9.19,8.69-2.67,16.48c3.56,4.49,9.78,8.39,13.63,8.39c5.63,0.3,6.22-1.2,2.96-8.39
	c-6.22-12.59,22.23-45.85,44.46-52.14c27.57-7.79,42.09-13.48,40.31-15.58C1654.03,122.31,1653.14,122.31,1652.25,122.31
	L1652.25,122.31z M4152.08,122.31c-2.96,0-8.89,0.9-15.12,2.7c-8.3,2.4-26.08,6.89-39.42,9.89c-13.34,3-24.3,7.79-24.3,10.49
	c0,2.7-2.67,7.49-5.93,10.49c-3.26,3-5.04,6.29-4.15,7.49c0.89,1.2-2.37,5.69-7.71,10.49c-8.89,7.79-9.19,8.69-2.67,16.48
	c3.56,4.49,9.78,8.39,13.63,8.39c5.63,0.3,6.22-1.2,2.96-8.39c-6.22-12.59,22.23-45.85,44.46-52.14
	c27.56-7.79,42.09-13.48,40.31-15.58C4153.56,122.31,4152.97,122.31,4152.08,122.31L4152.08,122.31z M429.9,122.9
	c-0.89,0.3-1.78,2.7-3.26,6.59c-2.67,8.09-5.04,9.29-13.93,6.89c-26.38-7.19-37.05-7.79-35.27-1.8c1.19,3.6,5.93,5.39,12.75,4.49
	c8.6-1.2,10.37,0,8.6,5.39c-2.96,8.39-4.15,8.39,23.12,0.3c23.42-6.59,30.83-10.79,19.56-10.79c-3.56,0-7.71-3.3-9.19-7.19
	C431.38,124.1,430.79,122.6,429.9,122.9L429.9,122.9z M2929.44,122.9c-0.89,0.3-1.78,2.7-3.26,6.59c-2.67,8.09-5.04,9.29-13.93,6.89
	c-26.38-7.19-37.05-7.79-35.27-1.8c1.19,3.6,5.93,5.39,12.75,4.49c8.6-1.2,10.37,0,8.6,5.39c-2.96,8.39-4.15,8.39,23.12,0.3
	c23.42-6.59,30.83-10.79,19.56-10.79c-3.56,0-7.71-3.3-9.19-7.19C2931.21,124.1,2930.32,122.6,2929.44,122.9L2929.44,122.9z
	 M481.77,125.6c2.07,0,5.04,2.1,6.22,4.2c1.19,2.4,0.59,4.2-1.48,4.2s-5.04-1.8-6.22-4.2C479.1,127.4,479.7,125.6,481.77,125.6z
	 M2981.3,125.6c2.07,0,5.04,2.1,6.22,4.2c1.19,2.4,0.59,4.2-1.48,4.2c-2.07,0-5.04-1.8-6.22-4.2
	C2978.64,127.4,2979.23,125.6,2981.3,125.6z M2181.32,129.8c-3.26,0-5.04,2.1-3.56,4.2c1.19,2.4,4.15,4.2,6.22,4.2
	c2.07,0,3.56-1.8,3.56-4.2S2184.58,129.8,2181.32,129.8z M4681.15,129.8c-3.26,0-5.04,2.1-3.56,4.2c1.19,2.4,4.15,4.2,6.22,4.2
	s3.56-1.8,3.56-4.2S4684.41,129.8,4681.15,129.8z M2148.13,131c-5.33,0.3-7.41,2.1-7.41,5.39c0,4.49,4.45,5.99,15.41,5.99
	c19.27-0.3,17.78-9.59-1.78-11.09C2151.68,130.7,2149.61,130.7,2148.13,131L2148.13,131z M4647.66,131c-5.34,0.3-7.41,2.1-7.41,5.39
	c0,4.49,4.45,5.99,15.41,5.99c19.27-0.3,17.78-9.59-1.78-11.09C4651.51,130.7,4649.44,130.7,4647.66,131L4647.66,131z M469.03,131.3
	c-1.48-0.3-2.37,0.6-2.37,2.7c0,2.4,1.78,4.49,3.85,4.49c2.07,0,3.85-0.9,3.85-1.8c0-0.9-1.78-3-3.85-4.49
	C469.92,131.59,469.62,131.59,469.03,131.3z M2968.86,131.3c-1.48-0.3-2.37,0.6-2.37,2.7c0,2.4,1.78,4.49,3.85,4.49
	c2.07,0,3.85-0.9,3.85-1.8c0-0.9-1.78-3-3.85-4.49C2969.75,131.59,2969.15,131.59,2968.86,131.3z M523.56,138.49
	c-3.26,0-6.22,1.8-6.22,4.2c0,2.4,1.78,4.2,3.56,4.2c1.78,0,4.74-1.8,6.22-4.2C528.6,140.58,527.12,138.49,523.56,138.49z
	 M3023.39,138.49c-3.26,0-6.22,1.8-6.22,4.2c0,2.4,1.78,4.2,3.56,4.2c2.07,0,4.74-1.8,6.22-4.2
	C3028.43,140.58,3026.65,138.49,3023.39,138.49z M2161.47,152.87c-0.89,0.3-1.19,1.8-1.19,4.79c0,4.2,3.26,6.89,8.6,6.89
	c4.74,0,7.71-0.6,6.82-1.2s-4.74-3.9-8.6-6.89C2164.13,153.77,2162.35,152.57,2161.47,152.87L2161.47,152.87z M4661,152.87
	c-0.89,0.3-1.19,1.8-1.19,4.79c0,4.2,3.26,6.89,8.6,6.89c4.74,0,7.71-0.6,6.82-1.2c-0.89-0.6-4.74-3.9-8.6-6.89
	C4663.67,153.77,4662.18,152.57,4661,152.87L4661,152.87z M344.54,153.77c-4.15-0.3-7.71,0-9.78,0.9c-2.67,1.2-4.74,5.39-4.74,9.29
	c0,3.9-2.07,9.59-4.74,12.59c-3.85,4.2-3.56,6.29,0.89,9.59c9.19,6.59,16.01,5.09,29.64-6.59c7.11-5.99,14.82-10.79,17.19-10.79
	c2.37,0,3.85-2.4,2.96-5.39C374.47,159.16,356.69,154.37,344.54,153.77L344.54,153.77z M2844.07,153.77c-4.15-0.3-7.71,0-9.78,0.9
	c-2.67,1.2-4.74,5.39-4.74,9.29c0,3.9-2.07,9.59-4.74,12.59c-3.85,4.2-3.56,6.29,0.89,9.59c9.19,6.59,16.01,5.09,29.64-6.59
	c7.11-5.99,14.82-10.79,17.19-10.79s3.85-2.4,2.96-5.39C2874.3,159.16,2856.52,154.37,2844.07,153.77L2844.07,153.77z
	 M543.72,156.17c-2.07,0-4.74,0.3-8.6,1.5c-7.41,2.1-10.08,5.69-10.08,13.48c0,13.18,0.89,13.18,14.23,0
	C548.46,161.56,549.94,156.47,543.72,156.17L543.72,156.17z M3043.55,156.17c-2.07,0-4.74,0.3-8.6,1.5
	c-7.41,2.1-10.08,5.69-10.08,13.48c0,13.18,0.89,13.18,14.23,0C3048.29,161.56,3049.48,156.47,3043.55,156.17L3043.55,156.17z
	 M503.11,158.26c-1.48,0-3.56,1.2-7.11,2.7c-5.34,2.7-9.78,7.49-9.78,11.09c0,3.3-2.07,4.79-4.74,3.3c-2.67-1.5-0.89,1.2,4.45,6.29
	c9.78,9.29,21.93,11.69,25.79,4.79c1.19-2.1,0.59-5.39-1.78-6.59c-2.07-1.5-3.85-7.49-3.85-13.18
	C505.78,160.36,505.48,157.96,503.11,158.26L503.11,158.26z M3002.65,158.26c-1.48,0-3.56,1.2-7.11,2.7
	c-5.34,2.7-9.78,7.49-9.78,11.09c0,3.3-2.07,4.79-5.04,3.3c-2.67-1.5-0.89,1.2,4.45,6.29c9.78,9.29,21.93,11.69,25.79,4.79
	c1.19-2.1,0.59-5.39-1.78-6.59c-2.07-1.5-3.85-7.49-3.85-13.18C3005.61,160.36,3005.31,157.96,3002.65,158.26L3002.65,158.26z
	 M450.35,161.86c-0.89,0-2.96,1.8-6.52,5.39c-4.74,4.49-8.3,10.49-8.3,13.48c0,6.89-4.74,7.19-10.67,0.6
	c-5.34-5.99-28.45-8.39-28.45-3c0,2.1-1.78,3.6-3.85,3.6c-2.07,0-3.85-3-3.85-6.59c0-8.09-1.78-8.09-13.63,0.3
	c-8,5.69-8.89,8.39-5.34,15.28c2.37,4.79,7.71,8.09,12.75,7.79c15.12-1.2,22.23,0,22.23,4.49c0,2.4-7.41,4.2-16.6,4.2h-17.19
	l13.63,8.39c16.89,10.49,17.49,10.49,41.79,2.4c14.52-4.79,22.82-5.39,30.23-2.1c13.04,5.39,14.82,5.39,11.86,0
	c-1.19-2.4-0.59-4.2,1.78-4.2c2.37,0,4.15-1.8,4.15-4.2s-3.56-4.2-8-4.2c-9.19,0-20.75-25.47-16.89-37.16
	C450.95,163.06,451.24,161.56,450.35,161.86L450.35,161.86z M2950.18,161.86c-0.89,0-2.96,1.8-6.52,5.39
	c-4.74,4.49-8.3,10.49-8.3,13.48c0,6.89-4.74,7.19-10.67,0.6c-5.34-5.99-28.45-8.39-28.45-3c0,2.1-1.78,3.6-3.85,3.6
	c-2.07,0-3.85-3-3.85-6.59c0-8.09-1.78-8.09-13.63,0.3c-8,5.69-8.89,8.39-5.34,15.28c2.37,4.79,7.71,8.09,12.75,7.79
	c15.12-1.2,22.23,0,22.23,4.49c0,2.4-7.41,4.2-16.6,4.2h-16.6l13.63,8.39c16.89,10.49,17.49,10.49,41.79,2.4
	c14.52-4.79,22.82-5.39,30.23-2.1c13.04,5.39,14.82,5.39,11.86,0c-1.19-2.4-0.59-4.2,1.78-4.2c2.37,0,4.15-1.8,4.15-4.2
	s-3.56-4.2-8-4.2c-9.19,0-20.75-25.47-16.89-37.16C2950.48,163.06,2950.78,161.56,2950.18,161.86L2950.18,161.86z M629.67,162.76
	c-4.74,0.3-7.11,3.9-3.85,7.79c3.26,3.6,5.93,3.3,12.15-0.9c3.85-2.7,3.26-4.2-2.96-5.99C633.23,162.76,631.45,162.46,629.67,162.76
	L629.67,162.76z M3129.5,162.76c-4.74,0.3-7.11,3.9-3.85,7.79c3.26,3.6,5.93,3.3,12.15-0.9c3.85-2.7,3.26-4.2-2.96-5.99
	C3132.77,162.76,3130.99,162.46,3129.5,162.76L3129.5,162.76z M605.37,164.56c-7.41,0-14.23,15.88-11.26,26.07
	c1.78,6.29,0.89,7.79-3.56,5.99c-4.15-1.8-5.63-7.19-5.04-15.88c0.59-9.59-0.89-13.78-5.63-14.98c-9.19-2.1-23.12,14.38-20.16,23.67
	c5.04,15.58,10.08,18.58,34.09,18.88c13.04,0.3,35.27,3.6,49.2,7.49c21.34,6.29,26.08,9.29,31.42,21.28
	c3.56,8.09,9.19,13.78,13.34,14.08c12.15,0.3,4.74,10.49-7.41,10.79c-8.6,0-11.26,2.1-10.37,7.79c0.89,5.99-1.78,7.49-12.75,7.49
	c-7.71,0-13.93,2.1-13.93,4.79s3.56,3.9,8,2.4c9.19-2.7,31.12,4.49,31.12,10.49c0,2.1,2.67,3.9,5.93,3.9c3.26,0,5.93,1.8,5.93,4.2
	s2.96,4.49,6.82,4.49s11.26,3,16.6,6.29c15.12,9.59,15.12,7.49,0-6.59c-7.41-6.89-11.56-12.89-9.19-12.89s7.11,3,10.67,6.89
	c3.26,3.6,8,5.39,10.08,4.2c4.74-3.3-0.89-16.78-12.75-31.16c-8-9.59-6.52-18.58,2.37-18.58c2.67,0,8.3,3.9,12.15,8.69
	c8.3,10.19,13.63,11.09,13.63,2.1c0-3.6,1.78-6.59,3.85-6.59c2.07,0,3.85-1.8,3.85-4.2c0-4.2-17.78-14.38-34.68-19.78
	c-7.11-2.4-8.6-5.09-6.82-13.18c2.07-8.99,0.3-10.79-13.34-15.28c-8.89-3-14.52-7.19-13.04-9.59c1.48-2.7,0-3.3-4.15-1.5
	c-4.15,1.8-9.48-0.6-14.23-5.69c-8-8.69-25.19-11.69-29.05-4.79c-4.15,7.49-21.93-0.3-24.3-10.79
	C611.59,169.05,608.33,164.56,605.37,164.56L605.37,164.56z M3104.9,164.56c-7.41,0-14.23,15.88-11.26,26.07
	c1.78,6.29,0.89,7.79-3.56,5.99c-4.15-1.8-5.63-7.19-5.04-15.88c0.59-9.59-0.89-13.78-5.63-14.98c-9.19-2.1-23.12,14.38-20.16,23.67
	c5.04,15.58,10.08,18.58,34.09,18.88c13.04,0.3,35.27,3.6,49.2,7.49c21.34,6.29,26.08,9.29,31.42,21.28
	c3.56,8.09,9.19,13.78,13.34,14.08c12.15,0.3,4.74,10.49-7.41,10.79c-8.6,0-11.26,2.1-10.37,7.79c0.89,5.99-1.78,7.49-12.75,7.49
	c-7.71,0-13.93,2.1-13.93,4.79s3.56,3.9,8,2.4c9.19-2.7,31.12,4.49,31.12,10.49c0,2.1,2.67,3.9,5.93,3.9s5.93,1.8,5.93,4.2
	s2.96,4.49,6.82,4.49c3.85,0,11.26,3,16.6,6.29c15.12,9.59,15.12,7.49,0.3-6.59c-7.41-6.89-11.56-12.89-9.19-12.89
	s7.11,3,10.67,6.89c3.26,3.6,8,5.39,10.08,4.2c4.74-3.3-0.89-16.78-12.75-31.16c-8-9.59-6.52-18.58,2.37-18.58
	c2.67,0,8.3,3.9,12.15,8.69c8.3,10.19,13.63,11.09,13.63,2.1c0-3.6,1.78-6.59,3.85-6.59c2.07,0,3.85-1.8,3.85-4.2
	c0-4.2-17.78-14.38-34.68-19.78c-7.11-2.4-8.6-5.09-6.82-13.18c2.07-8.99,0.3-10.79-13.34-15.28c-8.89-3-14.52-7.19-13.04-9.59
	c1.48-2.7,0-3.3-4.15-1.5s-9.48-0.6-14.23-5.69c-8-8.69-25.19-11.69-29.05-4.79c-4.15,7.49-21.93-0.3-24.3-10.79
	C3111.42,169.05,3107.87,164.56,3104.9,164.56L3104.9,164.56z M994.84,186.13c2.07,0,3.85,1.8,3.85,4.2c0,2.4-1.78,4.2-3.85,4.2
	c-2.07,0-3.85-1.8-3.85-4.2C990.98,187.93,992.76,186.13,994.84,186.13z M3494.37,186.13c2.07,0,3.85,1.8,3.85,4.2
	c0,2.4-1.78,4.2-3.85,4.2c-2.07,0-3.85-1.8-3.85-4.2C3490.52,187.93,3492.3,186.13,3494.37,186.13z M526.23,192.72
	c-0.89,0-1.78,0-2.67,0.3c-7.71,3.3-7.11,14.38,1.19,21.28c9.48,7.79,1.78,20.98-13.04,21.87c-6.22,0.3-17.78,2.1-25.49,3.6
	c-10.08,2.1-18.38,0.9-28.45-4.49c-13.93-7.19-14.52-7.19-19.86,0.6c-2.96,4.49-5.63,10.49-5.63,13.48
	c-0.3,7.19-5.93,6.89-11.86-1.2c-2.96-3.9-11.56-6.59-21.64-6.59c-17.49,0-26.08-6.89-16.89-13.48c4.45-3,4.45-3.9-0.59-4.49
	c-3.26-0.3-8.3-0.3-10.97,0.3c-2.96,0.3-10.97-1.5-18.38-4.2c-25.79-9.29-56.61-9.29-70.25,0c-6.82,4.79-15.71,8.69-19.56,8.69
	c-5.63,0-5.34-1.5,2.37-8.39l9.19-8.39l-11.86,4.79c-10.08,4.2-11.86,6.59-10.37,17.08c2.07,14.68-2.07,16.18-6.82,2.4
	c-2.67-8.09-9.78-11.69-37.94-19.48c-18.97-5.39-43.57-10.19-54.24-10.79c-10.67-0.6-21.64-2.7-24.01-4.2
	c-12.15-8.39-34.68-6.59-53.94,3.9c-41.2,22.47-42.39,23.37-36.75,30.86c2.67,3.6,10.97,9.59,18.08,12.89
	c16.89,7.79,12.45,14.38-8.89,13.18c-21.64-0.9-25.49,2.7-13.63,14.08c9.78,9.29,21.64,11.39,25.49,4.49
	c4.15-7.49,9.78-4.79,9.78,4.49c0,5.99-4.45,10.79-13.93,15.28c-7.71,3.6-14.82,8.99-16.01,12.29c-2.96,8.99,5.63,23.97,13.93,23.97
	c3.85,0,9.48,3,12.15,6.59c2.67,3.6,10.67,6.59,18.08,6.59c8.3,0,13.34,2.1,13.34,5.69c0,7.19-13.63,21.28-29.34,30.27
	c-6.52,3.9-10.08,6.89-7.71,6.89c15.41,0.6,68.47-48.24,68.47-62.93c0-5.69,11.56-11.99,14.82-8.09c1.19,1.2,0,4.49-2.37,7.49
	c-6.22,6.89-5.93,11.99,1.48,11.99c3.26,0,7.11-3.3,8.6-7.49c3.85-11.69,9.48-13.78,18.38-7.49c7.71,5.39,47.13,18.28,69.95,22.77
	c6.82,1.2,13.04,6.59,16.6,14.68c3.26,6.89,7.41,12.59,9.48,12.59c6.82,0,15.71,13.78,15.71,24.27c0,5.99,2.67,11.69,6.22,13.18
	c3.26,1.5,5.04,5.09,4.15,8.39c-1.19,3.6,0.59,5.99,4.15,5.99c3.85,0,5.34,2.4,3.85,6.29c-1.19,3.6,0.89,7.19,5.04,8.69
	c9.78,3.3,31.42,28.17,31.42,35.96c0,3.3-2.37,5.09-5.34,3.9c-4.15-1.8-5.93,5.69-7.71,31.46c-2.37,35.96,0.89,56.34,10.67,67.42
	c3.26,3.6,6.22,9.29,6.22,12.59c0,3,6.82,12.59,15.12,20.98c13.34,13.48,35.57,53.04,35.57,63.83c0,6.29,23.71,43.15,27.86,43.15
	c2.07,0,0.59-5.39-3.56-11.99c-9.48-14.98-28.16-55.44-28.16-61.43c0-11.69,8.89-0.9,34.68,41.35
	c15.41,25.17,27.86,49.14,27.86,53.34c0,4.2,2.96,10.79,6.82,14.38c10.08,9.89,56.32,33.56,60.47,30.57
	c5.93-3.9,62.24,29.97,69.06,41.65c11.86,20.38,33.49,34.46,40.9,26.07c6.82-7.49,10.37-5.09,16.6,11.39
	c6.82,17.68,4.74,31.76-6.82,50.04c-10.67,16.48-15.41,35.96-10.08,41.65c2.96,3.3,2.67,6.29-0.59,10.79
	c-3.85,5.09-2.67,11.39,4.74,31.46c5.34,13.78,11.86,32.96,14.52,42.55c3.26,11.09,13.04,25.77,27.27,41.05l22.53,23.67l-5.04,69.22
	c-3.26,45.25-7.11,75.21-11.56,86.3c-4.74,12.29-6.82,30.27-7.41,62.63c-0.59,40.45-1.19,45.25-7.41,44.95
	c-8.89-0.9-8.6,0.3,3.56,13.78c5.93,6.59,8.6,12.59,6.52,14.38c-2.07,1.5-4.74,9.59-5.93,17.68c-1.48,11.99,0,16.48,8.3,24.57
	l10.08,9.89l6.82-9.59c3.85-5.09,6.82-11.09,6.82-12.89c0-2.1,5.34-11.99,11.86-22.17c9.48-14.98,10.67-19.18,5.93-21.28
	c-7.41-3.3-7.41-23.97,0-26.97c3.26-1.5,5.93-5.99,5.93-10.49s1.48-8.99,3.26-10.19c1.78-1.2,2.67-7.19,1.48-13.19
	c-1.48-8.69-0.3-10.79,6.22-10.79c4.45,0,10.08-3.9,12.15-8.39c2.37-4.79,11.26-10.49,19.86-13.18
	c18.67-5.39,22.53-13.48,13.93-27.87c-8.6-14.38-8-15.88,3.56-10.19c8.3,4.2,11.56,3.6,20.16-3.6
	c14.52-11.99,33.79-51.54,33.2-68.32c-0.3-11.99,2.07-15.58,18.08-26.97c10.08-7.19,23.12-14.38,28.75-15.88
	c12.45-3.3,22.82-32.06,22.82-62.93c0-15.28,2.96-24.57,13.34-41.35c20.75-33.86,21.04-38.96,3.85-56.34
	c-10.08-10.19-18.67-14.98-26.68-14.98c-6.52,0-18.67-5.09-26.97-11.09c-13.63-10.19-15.41-10.49-21.64-4.2
	c-3.85,3.9-11.26,6.89-16.3,6.89h-9.48l9.78-8.39c11.86-10.19,5.63-11.69-7.11-1.8c-13.04,9.89-14.23,4.79-2.67-10.49
	c5.93-7.79,8.3-14.38,5.93-15.88c-2.07-1.5-4.15-6.29-4.15-10.49c0-10.79-10.97-20.38-29.94-26.07
	c-10.97-3.3-21.34-11.09-32.31-24.27c-12.45-14.68-18.97-19.48-27.86-19.48c-6.52,0-17.78-2.7-25.19-6.29
	c-13.04-5.99-13.63-5.99-16.01,4.2c-3.26,14.38-14.82,14.38-12.45,0c1.78-10.49,1.78-10.49-8.89-3.6
	c-5.93,3.9-12.75,11.99-15.12,17.68c-4.15,9.89-4.74,10.19-11.56,3.6c-4.74-4.79-10.67-6.29-18.67-4.49
	c-15.41,3.3-22.23-5.99-24.9-34.46c-2.07-21.87-2.07-22.17-16.6-23.37c-16.3-1.5-17.49-4.79-10.08-31.76
	c5.34-19.48,3.56-23.07-10.08-19.18c-6.52,1.8-10.08,5.69-10.08,11.39c0,10.19-16.6,18.58-28.16,14.68
	c-21.93-7.79-32.01-74.02-14.23-92.59c7.41-7.49,12.45-9.89,22.82-9.89c1.19,0,8.6,1.2,16.6,3c11.86,2.4,14.23,1.8,12.45-3.3
	c-2.96-8.39,8.6-11.69,25.49-7.79c14.23,3.3,16.3,5.99,25.79,32.66c8.6,24.27,11.56,16.18,5.63-16.18l-5.04-27.87l18.67-22.77
	c16.01-19.48,18.38-24.87,16.6-36.26c-1.19-7.49-0.3-16.18,1.48-19.48c2.67-4.79,3.56-4.79,3.56-0.3c0,3,5.93-1.2,13.34-9.59
	c7.11-8.39,15.12-15.28,17.49-15.28s4.45-4.49,4.45-10.19c0-12.29,4.15-15.88,26.97-25.47c19.27-8.09,24.01-6.89,14.52,3.6
	c-3.56,3.9-6.22,7.79-6.22,8.69c0,3.6,30.83-16.18,35.86-23.07c4.74-6.59,4.45-6.59-3.85-0.3c-7.71,5.99-10.67,5.99-19.27,1.2
	c-14.23-8.09-17.49-15.58-9.48-22.17c11.56-9.89-6.22-7.19-21.34,3.3c-17.19,11.69-16.89,4.2,0.59-12.89
	c10.97-10.49,17.49-13.48,30.53-13.48c9.19,0,25.19-3,35.27-6.89c15.12-5.69,18.38-8.69,17.19-16.18
	c-0.89-7.49-3.56-8.99-13.93-8.09c-14.23,1.2-17.19-5.99-4.45-11.39c7.71-3.3,7.41-3.9-5.04-10.49c-9.78-5.09-16.6-13.78-24.6-31.16
	l-10.97-23.97l-8.6,8.69c-4.74,4.79-11.26,8.69-14.52,8.69c-9.19,0-19.27-14.08-15.12-21.58c2.37-4.49,0-8.99-9.78-16.18
	c-14.23-10.79-40.61-13.78-41.5-4.49c-1.78,23.07-2.96,31.76-3.85,35.66c-0.89,2.4,0.89,10.49,3.85,17.98
	c4.45,11.69,4.15,15.58-0.89,26.67c-3.26,7.19-6.22,20.08-6.22,28.77c0,9.89-2.07,16.48-5.93,17.98
	c-8.89,3.9-24.6-14.68-26.08-30.27c-0.89-10.49-3.56-14.08-10.97-15.58c-17.19-3.9-50.39-23.67-53.06-31.46
	c-1.19-4.2-4.74-7.49-8-7.49c-3.26,0-6.52-4.79-8-10.49c-3.56-14.98,25.19-56.64,41.79-60.23c11.56-2.7,12.75-11.39,1.48-11.39
	c-2.96,0-5.63-1.8-5.63-4.2c0-2.4,5.34-4.2,12.15-4.2c11.56,0,11.86,0.6,10.67,16.18c-1.48,17.98,7.11,24.27,16.01,12.29
	c3.85-5.09,6.82-5.39,12.75-1.8c6.22,3.6,7.41,3.3,6.22-1.2c-0.89-3-8.6-9.59-16.89-14.38c-17.49-10.19-22.23-19.48-9.78-19.48
	c16.6,0,23.42-7.49,21.04-22.77c-2.96-16.48-1.48-14.38-11.26-17.68c-6.52-2.1-8.6,0-11.86,11.39
	c-4.15,15.58-14.52,18.88-16.89,5.39c-2.07-12.89-7.41-17.08-13.93-11.09c-4.74,4.2-7.11,3.6-13.04-2.7
	c-4.15-4.49-6.82-10.19-5.93-12.89C541.94,202.91,532.75,193.32,526.23,192.72L526.23,192.72z M3025.76,192.72
	c-0.89,0-1.78,0-2.67,0.3c-7.71,3.3-7.11,14.38,1.19,21.28c9.48,7.79,1.78,20.98-13.04,21.87c-6.22,0.3-17.78,2.1-25.49,3.6
	c-10.08,2.1-18.38,0.9-28.45-4.49c-13.93-7.19-14.52-7.19-19.86,0.6c-2.96,4.49-5.63,10.49-5.63,13.48
	c-0.3,7.19-5.93,6.89-11.86-1.2c-2.96-3.9-11.56-6.59-21.64-6.59c-17.49,0-26.08-6.89-16.89-13.48c4.45-3,4.45-3.9-0.59-4.49
	c-3.26-0.3-8.3-0.3-10.97,0.3c-2.96,0.3-10.97-1.5-18.38-4.2c-25.79-9.29-56.61-9.29-70.25,0c-6.82,4.79-15.71,8.69-19.56,8.69
	c-5.63,0-5.34-1.5,2.37-8.39l9.19-8.39l-11.86,4.79c-10.08,4.2-11.86,6.59-10.37,17.08c2.07,14.68-2.07,16.18-6.82,2.4
	c-2.67-8.09-9.78-11.69-37.94-19.48c-18.97-5.39-43.57-10.19-54.24-10.79c-10.67-0.6-21.64-2.7-24.01-4.2
	c-12.15-8.39-34.68-6.59-53.94,3.9c-41.2,22.47-42.39,23.37-36.75,30.86c2.67,3.6,10.97,9.59,18.08,12.89
	c16.89,7.79,12.45,14.38-8.89,13.18c-21.64-0.9-25.49,2.7-13.63,14.08c9.78,9.29,21.64,11.39,25.49,4.49
	c4.15-7.49,9.78-4.79,9.78,4.49c0,5.99-4.45,10.79-13.93,15.28c-7.71,3.6-14.82,8.99-16.01,12.29c-2.96,8.99,5.63,23.97,13.93,23.97
	c3.85,0,9.48,3,12.15,6.59c2.67,3.6,10.97,6.59,18.08,6.59c8.3,0,13.34,2.1,13.34,5.69c0,7.19-13.63,21.28-29.34,30.27
	c-6.52,3.9-10.08,6.89-7.71,6.89c15.41,0.6,68.47-48.24,68.47-62.93c0-5.69,11.56-11.99,14.82-8.09c1.19,1.2,0,4.49-2.37,7.49
	c-6.22,6.89-5.93,11.99,1.48,11.99c3.26,0,7.11-3.3,8.6-7.49c3.85-11.69,9.48-13.78,18.38-7.49c7.71,5.39,47.13,18.28,69.95,22.77
	c6.82,1.2,13.04,6.59,16.6,14.68c3.26,6.89,7.41,12.59,9.48,12.59c6.82,0,15.71,13.78,15.71,24.27c0,5.99,2.67,11.69,6.22,13.18
	c3.26,1.5,5.04,5.09,4.15,8.39c-1.19,3.6,0.59,5.99,4.15,5.99c3.85,0,5.34,2.4,3.85,6.29c-1.19,3.6,0.89,7.19,5.04,8.69
	c9.78,3.3,31.42,28.17,31.42,35.96c0,3.3-2.37,5.09-5.34,3.9c-4.15-1.8-5.93,5.69-7.71,31.46c-2.37,35.96,0.89,56.34,10.67,67.42
	c3.26,3.6,6.22,9.29,6.22,12.59c0,3,6.82,12.59,15.12,20.98c13.34,13.48,35.57,53.04,35.57,63.83c0,6.29,23.71,43.15,27.86,43.15
	c2.07,0,0.59-5.39-3.56-11.99c-9.48-14.98-28.16-55.44-28.16-61.43c0-11.69,8.89-0.9,34.68,41.35
	c15.41,25.17,27.86,49.14,27.86,53.34c0,4.2,2.96,10.79,6.82,14.38c10.08,9.89,56.32,33.56,60.47,30.57
	c5.93-3.9,62.24,29.97,69.06,41.65c11.86,20.38,33.49,34.46,40.9,26.07c6.82-7.49,10.37-5.09,16.6,11.39
	c6.82,17.68,4.74,31.76-6.82,50.04c-10.67,16.48-15.41,35.96-10.08,41.65c2.96,3.3,2.67,6.29-0.59,10.79
	c-3.85,5.09-2.67,11.39,4.74,31.46c5.34,13.78,11.86,32.96,14.52,42.55c3.26,11.09,13.04,25.77,27.27,41.05l22.53,23.67l-5.04,69.22
	c-3.26,45.25-7.11,75.21-11.56,86.3c-4.74,12.29-6.82,30.27-7.41,62.63c-0.59,40.45-1.19,45.25-7.41,44.95
	c-8.89-0.9-8.6,0.3,3.56,13.78c5.93,6.59,8.6,12.59,6.52,14.38c-2.07,1.5-4.74,9.59-5.93,17.68c-1.48,11.99,0,16.48,8.3,24.57
	l10.08,9.89l6.82-9.59c3.85-5.09,6.82-11.09,6.82-12.89c0-2.1,5.34-11.99,11.86-22.17c9.48-14.98,10.67-19.18,5.93-21.28
	c-7.41-3.3-7.41-23.97,0-26.97c3.26-1.5,5.93-5.99,5.93-10.49s1.48-8.99,3.26-10.19c1.78-1.2,2.67-7.19,1.48-13.19
	c-1.48-8.69-0.3-10.79,6.22-10.79c4.45,0,10.08-3.9,12.15-8.39c2.37-4.79,11.26-10.49,19.86-13.18
	c18.67-5.39,22.53-13.48,13.93-27.87c-8.6-14.38-8-15.88,3.56-10.19c8.3,4.2,11.56,3.6,20.16-3.6
	c14.52-11.99,33.79-51.54,33.2-68.32c-0.3-11.99,2.07-15.58,18.08-26.97c10.08-7.19,23.12-14.38,28.75-15.88
	c12.45-3.3,22.82-32.06,22.82-62.93c0-15.28,2.96-24.57,13.34-41.35c20.75-33.86,21.04-38.96,3.85-56.34
	c-10.08-10.19-18.67-14.98-26.68-14.98c-6.52,0-18.67-5.09-26.97-11.09c-13.63-10.19-15.41-10.49-21.64-4.2
	c-3.85,3.9-11.26,6.89-16.3,6.89h-9.48l9.78-8.39c11.86-10.19,5.63-11.69-7.11-1.8c-13.04,9.89-14.23,4.79-2.67-10.49
	c5.93-7.79,8.3-14.38,5.93-15.88c-2.07-1.5-4.15-6.29-4.15-10.49c0-10.79-10.97-20.38-29.94-26.07
	c-10.97-3.3-21.34-11.09-32.31-24.27c-12.45-14.68-18.97-19.48-27.86-19.48c-6.52,0-17.78-2.7-25.19-6.29
	c-13.04-5.99-13.63-5.99-16.01,4.2c-3.26,14.38-14.82,14.38-12.45,0c1.78-10.49,1.78-10.49-8.89-3.6
	c-5.93,3.9-12.75,11.99-15.12,17.68c-4.15,9.89-4.74,10.19-11.56,3.6c-4.74-4.79-10.67-6.29-18.67-4.49
	c-15.41,3.3-22.23-5.99-24.9-34.46c-2.07-21.87-2.07-22.17-16.6-23.37c-16.3-1.5-17.49-4.79-10.08-31.76
	c5.34-19.48,3.56-23.07-10.08-19.18c-6.52,1.8-10.08,5.69-10.08,11.39c0,10.19-16.6,18.58-28.16,14.68
	c-21.93-7.79-32.01-74.02-14.23-92.59c7.41-7.49,12.45-9.89,22.82-9.89c1.19,0,8.6,1.2,16.6,3c11.86,2.4,14.23,1.8,12.45-3.3
	c-2.96-8.39,8.6-11.69,25.49-7.79c14.23,3.3,16.3,5.99,25.79,32.66c8.6,24.27,11.56,16.18,5.63-16.18l-5.04-27.87l18.67-22.77
	c16.01-19.48,18.38-24.87,16.6-36.26c-1.19-7.49-0.3-16.18,1.48-19.48c2.67-4.79,3.56-4.79,3.56-0.3c0,3,5.93-1.2,13.34-9.59
	c7.11-8.39,15.12-15.28,17.49-15.28s4.45-4.49,4.45-10.19c0-12.29,4.15-15.88,26.97-25.47c19.27-8.09,24.01-6.89,14.52,3.6
	c-3.56,3.9-6.22,7.79-6.22,8.69c0,3.6,30.83-16.18,35.86-23.07c4.74-6.59,4.45-6.59-3.85-0.3c-7.71,5.99-10.67,5.99-19.27,1.2
	c-14.23-8.09-17.49-15.58-9.48-22.17c11.56-9.89-6.22-7.19-21.34,3.3c-17.19,11.69-16.89,4.2,0.59-12.89
	c10.97-10.49,17.49-13.48,30.53-13.48c9.19,0,25.19-3,35.27-6.89c15.12-5.69,18.38-8.69,17.19-16.18
	c-0.89-7.49-3.56-8.99-13.93-8.09c-14.23,1.2-17.19-5.99-4.45-11.39c7.71-3.3,7.41-3.9-5.04-10.49c-9.78-5.09-16.6-13.78-24.6-31.16
	l-10.97-23.97l-8.6,8.69c-4.74,4.79-11.26,8.69-14.52,8.69c-9.19,0-19.27-14.08-15.12-21.58c2.37-4.49,0-8.99-9.78-16.18
	c-14.23-10.79-40.61-13.78-41.5-4.49c-1.78,23.07-2.96,31.76-3.85,35.66c-0.89,2.4,0.89,10.49,3.85,17.98
	c4.45,11.69,4.15,15.58-0.89,26.67c-3.26,7.19-6.22,20.08-6.22,28.77c0,9.89-2.07,16.48-5.93,17.98
	c-8.89,3.9-24.6-14.68-26.08-30.27c-0.89-10.49-3.56-14.08-10.97-15.58c-17.19-3.9-50.39-23.67-53.06-31.46
	c-1.19-4.2-4.74-7.49-8-7.49s-6.52-4.79-8-10.49c-3.56-14.98,25.19-56.64,41.79-60.23c11.56-2.7,12.75-11.39,1.48-11.39
	c-2.96,0-5.63-1.8-5.63-4.2c0-2.4,5.34-4.2,12.15-4.2c11.56,0,11.86,0.6,10.67,16.18c-1.48,17.98,7.11,24.27,16.01,12.29
	c3.85-5.09,6.82-5.39,12.75-1.8c6.22,3.6,7.41,3.3,6.22-1.2c-0.89-3-8.6-9.59-16.89-14.38c-17.49-10.19-22.23-19.48-9.78-19.48
	c16.6,0,23.42-7.49,21.04-22.77c-2.96-16.48-1.48-14.38-11.26-17.68c-6.52-2.1-8.6,0-11.86,11.39
	c-4.15,15.58-14.52,18.88-16.89,5.39c-2.07-12.89-7.41-17.08-13.93-11.09c-4.74,4.2-7.11,3.6-13.04-2.7
	c-4.15-4.49-6.82-10.19-5.93-12.89C3041.77,202.91,3032.58,193.32,3025.76,192.72L3025.76,192.72z M2434.75,195.42
	c-2.07,0-4.15,0.3-5.34,0.9c-2.67,1.2,0.59,2.1,6.82,2.1c6.52,0,8.6-1.2,4.74-2.1C2438.89,195.42,2436.82,195.12,2434.75,195.42
	L2434.75,195.42z M4934.28,195.42c-2.07,0-4.15,0.3-5.34,0.9c-2.67,1.2,0.59,2.1,6.82,2.1c6.52,0,8.6-1.2,4.74-2.1
	C4938.73,195.42,4936.35,195.12,4934.28,195.42z M1594.75,205.61c-1.48,0.3-2.67,0.9-3.26,1.8c-1.19,2.1,0,4.79,2.67,5.99
	c7.71,3.6,10.67,3.3,10.67-0.9C1605.12,208.31,1598.9,205.01,1594.75,205.61L1594.75,205.61z M4094.28,205.61
	c-1.48,0.3-2.67,0.9-3.26,1.8c-1.19,2.1,0,4.79,2.67,5.99c7.71,3.6,10.67,3.3,10.67-0.9
	C4104.66,208.31,4098.43,205.01,4094.28,205.61L4094.28,205.61z M501.63,215.5c-5.04,0.3-8.3,3.9-5.34,9.29
	c1.78,3,6.82,4.2,12.45,2.4c6.82-1.8,8.89-1.2,6.82,2.4c-1.78,3-0.89,4.2,2.37,3.3c2.96-1.2,5.93-4.79,6.82-8.09
	c0.89-3.3,0.3-4.79-1.48-3c-1.78,1.8-6.82,0.6-11.56-3C508.45,216.4,504.89,215.5,501.63,215.5L501.63,215.5z M3001.46,215.5
	c-5.04,0.3-8.3,3.9-5.34,9.29c1.78,3,6.82,4.2,12.45,2.4c6.82-1.8,8.89-1.2,6.82,2.4c-1.78,3-0.89,4.2,2.37,3.3
	c2.96-1.2,5.93-4.79,6.82-8.09c0.89-3.3,0.3-4.79-1.48-3s-6.82,0.6-11.56-3C3008.28,216.4,3004.42,215.5,3001.46,215.5
	L3001.46,215.5z M1527.17,217c-1.19,0-2.37,0.3-4.15,1.5c-2.37,1.5-3.26,4.79-1.78,7.19c1.78,3,3.85,3,6.52-0.3
	C1531.91,221.19,1530.73,217,1527.17,217L1527.17,217z M4027,217c-1.19,0-2.37,0.3-4.15,1.5c-2.37,1.5-3.26,4.79-1.78,7.19
	c1.78,3,3.85,3,6.52-0.3C4031.45,221.19,4030.26,217,4027,217L4027,217z M651.02,237.97c-2.07,0-3.85,1.8-3.85,4.2
	c0,2.4,1.78,4.2,3.85,4.2s3.85-1.8,3.85-4.2C654.87,239.77,653.09,237.97,651.02,237.97z M3150.55,237.97c-2.07,0-3.85,1.8-3.85,4.2
	c0,2.4,1.78,4.2,3.85,4.2c2.07,0,3.85-1.8,3.85-4.2C3154.4,239.77,3152.62,237.97,3150.55,237.97z M1070.42,260.15
	c-6.82-0.6-16.3,2.7-29.05,9.59c-15.71,8.39-17.19,10.49-11.86,14.68c9.19,6.89,25.79,6.59,41.79-0.9
	c14.52-6.59,16.3-10.49,8.89-18.88C1077.83,261.95,1074.57,260.15,1070.42,260.15L1070.42,260.15z M3569.95,260.15
	c-6.82-0.6-16.3,2.7-29.05,9.59c-15.71,8.39-17.19,10.49-11.86,14.68c9.19,6.89,25.79,6.59,41.79-0.9
	c14.52-6.59,16.3-10.49,8.89-18.88C3577.36,261.95,3574.1,260.15,3569.95,260.15L3569.95,260.15z M1025.96,264.34
	c-1.48,0-2.96,0.3-4.45,0.9c-3.26,1.5-2.07,2.4,2.37,2.7c4.15,0.3,6.52-0.9,5.04-2.4C1028.63,264.94,1027.44,264.34,1025.96,264.34z
	 M3525.79,264.34c-1.48,0-2.96,0.3-4.45,0.9c-3.26,1.5-2.07,2.4,2.37,2.7c4.15,0.3,6.52-0.9,5.04-2.4
	C3528.16,264.94,3526.98,264.34,3525.79,264.34z M2.49,294.31c-2.96,0-4.45,1.5-2.67,4.2c1.19,2.4,6.22,4.2,10.97,4.2
	c7.11,0,7.41-0.9,2.67-4.2C9.61,295.81,5.46,294.31,2.49,294.31L2.49,294.31z M2502.32,294.31c-2.96,0-4.45,1.5-2.67,4.2
	c1.19,2.4,6.22,4.2,10.97,4.2c7.11,0,7.41-0.9,2.67-4.2C2509.44,295.81,2504.99,294.31,2502.32,294.31L2502.32,294.31z
	 M604.18,307.19c-2.07,0-3.85,1.8-3.85,4.2s1.78,4.2,3.85,4.2c2.07,0,3.85-1.8,3.85-4.2S606.26,307.19,604.18,307.19z M627.6,307.19
	c-2.07,0-3.85,3-3.85,6.59s1.78,5.39,3.85,4.2c2.07-1.2,3.85-4.49,3.85-6.59C631.45,308.99,629.67,307.19,627.6,307.19z
	 M3103.72,307.19c-2.07,0-3.85,1.8-3.85,4.2s1.78,4.2,3.85,4.2c2.07,0,3.85-1.8,3.85-4.2S3105.79,307.19,3103.72,307.19z
	 M3127.13,307.19c-2.07,0-3.85,3-3.85,6.59s1.78,5.39,3.85,4.2s3.85-4.49,3.85-6.59C3130.99,308.99,3129.21,307.19,3127.13,307.19z
	 M1134.44,311.39c-0.89,0-2.37,3.9-3.56,8.69c-1.19,4.79-0.59,8.69,1.48,8.69s3.56-3.9,3.56-8.69
	C1135.92,315.28,1135.33,311.39,1134.44,311.39z M3633.98,311.39c-0.89,0-2.37,3.9-3.56,8.69c-1.19,4.79-0.59,8.69,1.48,8.69
	s3.56-3.9,3.56-8.69C3635.46,315.28,3634.86,311.39,3633.98,311.39z M1399.42,320.08c4.45,0.3,10.37,5.39,10.37,10.49
	c0,8.69-11.26,8.69-14.23,0c-1.19-3.6-1.19-7.79,0-9.29C1396.46,320.38,1397.64,320.08,1399.42,320.08L1399.42,320.08z
	 M3898.96,320.08c4.45,0.3,10.37,5.39,10.37,10.49c0,8.69-11.26,8.69-14.23,0c-1.19-3.6-1.19-7.79,0-9.29
	C3895.99,320.38,3897.47,320.08,3898.96,320.08L3898.96,320.08z M1175.05,328.77c-2.07,0-3.85,1.8-3.85,4.2s1.78,4.2,3.85,4.2
	s3.85-2.1,3.85-4.2C1178.9,330.57,1177.12,328.77,1175.05,328.77z M3674.58,328.77c-2.07,0-3.85,1.8-3.85,4.2s1.78,4.2,3.85,4.2
	c2.08,0,3.85-2.1,3.85-4.2C3678.73,330.57,3676.95,328.77,3674.58,328.77z M1160.23,350.34c-6.82,0-16.89,19.18-15.41,29.67
	c0.59,5.09,5.34,13.48,10.08,18.28c8,8.39,8.3,9.59,2.67,16.48c-6.82,8.39-8,17.68-2.07,17.68c6.52,0,4.45,7.79-2.96,10.19
	c-3.85,1.2,2.07,1.2,12.75-0.3c10.67-1.2,20.75-3.3,22.53-4.2c4.45-2.7,3.56-14.38-0.89-14.38c-2.07,0-5.04-4.79-6.22-10.49
	c-1.19-5.69-6.52-14.68-11.56-20.08c-7.41-7.49-8.6-11.39-5.34-17.68c2.96-6.29,2.67-8.09-2.07-8.09c-7.11,0-7.71-5.09-1.19-11.99
	C1163.79,351.54,1163.79,350.34,1160.23,350.34L1160.23,350.34z M3660.06,350.34c-6.82,0-16.89,19.18-15.41,29.67
	c0.59,5.09,5.34,13.48,10.08,18.28c8,8.39,8.3,9.59,2.67,16.48c-6.82,8.39-8,17.68-2.07,17.68c6.52,0,4.45,7.79-2.96,10.19
	c-3.85,1.2,2.07,1.2,12.75-0.3c10.67-1.2,20.75-3.3,22.53-4.2c4.45-2.7,3.56-14.38-0.89-14.38c-2.07,0-5.04-4.79-6.22-10.49
	c-1.19-5.69-6.52-14.68-11.56-20.08c-7.41-7.49-8.6-11.39-5.34-17.68c2.96-6.29,2.67-8.09-2.07-8.09c-7.11,0-7.71-5.09-1.19-11.99
	C3663.32,351.54,3663.32,350.34,3660.06,350.34L3660.06,350.34z M127.57,359.33c-3.85,0.3-12.45,8.99-12.45,13.78
	c0,2.4,3.56,0.9,7.71-3.3c4.45-4.2,7.11-8.69,5.93-9.89C128.76,359.33,128.17,359.33,127.57,359.33L127.57,359.33z M2627.4,359.33
	c-3.85,0.3-12.45,8.99-12.45,13.78c0,2.4,3.56,0.9,7.71-3.3c4.45-4.2,7.11-8.69,5.93-9.89C2628.29,359.33,2628,359.33,2627.4,359.33
	L2627.4,359.33z M1312.28,367.42c-2.37,0-4.15,1.8-4.15,4.2c0,2.4,0.89,4.2,1.78,4.2s2.67-1.8,4.15-4.2
	C1315.25,369.52,1314.65,367.42,1312.28,367.42z M3811.82,367.42c-2.37,0-4.15,1.8-4.15,4.2c0,2.4,0.89,4.2,1.78,4.2
	c0.89,0,2.67-1.8,4.15-4.2C3815.08,369.52,3814.19,367.42,3811.82,367.42z M257.4,386.3c-0.59,0-0.89,1.5-1.19,4.49
	c-0.3,4.49,0.89,7.19,2.07,5.69c1.19-1.5,1.48-5.09,0.3-8.39C258.29,387.2,257.69,386.3,257.4,386.3L257.4,386.3z M2757.23,386.3
	c-0.59,0-0.89,1.5-1.19,4.49c-0.3,4.49,0.89,7.19,2.07,5.69c1.19-1.5,1.48-5.09,0.3-8.39C2757.82,387.2,2757.52,386.3,2757.23,386.3
	L2757.23,386.3z M1133.26,397.09c-6.82,0.6-18.97,12.59-15.12,16.78c1.19,1.2,0.3,5.99-1.78,10.49c-4.45,9.59-3.56,9.89,10.08,3
	c11.56-5.99,17.49-24.27,9.48-29.67C1135.03,397.09,1134.15,396.79,1133.26,397.09L1133.26,397.09z M3632.79,397.09
	c-6.82,0.6-18.97,12.59-15.12,16.78c1.19,1.2,0.3,5.99-1.78,10.49c-4.45,9.59-3.56,9.89,10.08,3c11.56-5.99,17.49-24.27,9.48-29.67
	C3634.57,397.09,3633.98,396.79,3632.79,397.09L3632.79,397.09z M27.69,403.68c-1.48-0.3-2.37,0.6-2.37,2.7
	c0,2.4,1.78,4.49,3.85,4.49s3.85-0.9,3.85-1.8c0-0.9-1.78-3-3.85-4.49C28.87,403.98,28.28,403.68,27.69,403.68L27.69,403.68z
	 M2527.52,403.68c-1.48-0.3-2.37,0.6-2.37,2.7c0,2.4,1.78,4.49,3.85,4.49c2.07,0,3.85-0.9,3.85-1.8c0-0.9-1.78-3-3.85-4.49
	C2528.41,403.98,2527.81,403.68,2527.52,403.68L2527.52,403.68z M2174.51,405.78c-0.59-0.3-1.48,1.2-2.37,4.49
	c-1.78,5.39-2.07,20.98-0.89,34.46c1.48,13.48,3.26,22.17,4.15,19.18c0.89-3,3.56-4.2,5.93-2.4c2.96,1.8,3.26,0.3,1.19-5.39
	c-1.78-4.49-4.15-18.88-5.04-32.06C2176.28,411.77,2175.69,406.08,2174.51,405.78L2174.51,405.78z M4674.04,405.78
	c-0.59-0.3-1.48,1.2-2.37,4.49c-1.78,5.39-2.07,20.98-0.89,34.46c1.19,13.48,3.26,22.17,4.15,19.18c0.89-3,3.56-4.2,5.93-2.4
	c2.96,1.8,3.26,0.3,1.19-5.39c-1.78-4.49-4.15-18.88-5.04-32.06C4676.12,411.77,4675.23,406.08,4674.04,405.78L4674.04,405.78z
	 M613.67,415.07c-0.89,0-1.48,3-1.48,6.59s1.78,6.59,3.85,6.59c2.07,0,2.67-3,1.48-6.59C616.04,418.07,614.56,415.07,613.67,415.07z
	 M3113.2,415.07c-0.89,0-1.48,3-1.48,6.59s1.78,6.59,3.85,6.59c2.07,0,2.67-3,1.48-6.59
	C3115.87,418.07,3114.09,415.07,3113.2,415.07z M261.55,424.06c-0.89-0.3-0.59,1.2,0.89,5.09c1.48,4.2,3.56,6.59,4.74,5.39
	c1.19-1.2,0-4.79-2.67-7.79C263.03,425.26,262.14,424.36,261.55,424.06z M2761.08,424.06c-0.89-0.3-0.59,1.2,0.89,5.09
	c1.48,4.2,3.56,6.59,4.74,5.39c1.19-1.2,0-4.79-2.67-7.79C2762.86,425.26,2761.67,424.36,2761.08,424.06z M793.88,449.83
	c-1.78,0-5.93,2.4-11.86,6.59c-5.34,3.9-9.48,10.79-9.48,15.58c0,7.49,1.78,8.39,13.63,5.69c7.71-1.5,13.63-1.2,13.34,0.6
	c-0.3,1.8-0.3,4.79,0,6.29c0.3,1.5,4.45,1.8,9.19,0.3c4.74-1.5,6.52-3.3,3.85-4.2c-2.67-0.9-4.74-5.39-4.74-10.19
	c0-5.99-2.67-8.39-10.37-8.39c-8.6,0-9.48-0.9-5.34-6.59C795.36,451.93,795.66,449.83,793.88,449.83L793.88,449.83z M3293.71,449.83
	c-1.78,0-5.93,2.4-11.86,6.59c-5.34,3.9-9.48,10.79-9.48,15.58c0,7.49,1.78,8.39,13.63,5.69c7.71-1.5,13.63-1.2,13.34,0.6
	c-0.3,1.8-0.3,4.79,0,6.29c0.3,1.5,4.45,1.8,9.19,0.3c4.74-1.5,6.52-3.3,3.85-4.2c-2.67-0.9-4.74-5.39-4.74-10.19
	c0-5.99-2.67-8.39-10.37-8.39c-8.6,0-9.48-0.9-5.34-6.59C3294.9,451.93,3295.49,449.83,3293.71,449.83L3293.71,449.83z
	 M744.08,458.22c-7.11,0-7.71,0.9-2.96,4.2c7.71,5.39,11.86,5.39,11.86,0C752.98,460.32,749.12,458.22,744.08,458.22z
	 M3243.91,458.22c-7.11,0-7.71,0.9-2.96,4.2c7.71,5.39,11.86,5.39,11.86,0C3252.51,460.32,3248.66,458.22,3243.91,458.22
	L3243.91,458.22z M574.25,472.01c4.74,0.6,9.48,4.49,15.41,11.69c5.63,6.89,15.41,13.78,22.23,15.58c10.97,2.7,17.19,10.79,8,10.79
	c-2.07,0-3.85,3-3.85,6.59c0,3.6-0.89,6.59-2.37,6.59c-3.85,0-11.86-10.19-14.82-19.18c-1.78-5.09-4.15-6.89-6.52-4.2
	c-2.07,2.1-6.22,11.69-9.19,21.28l-5.34,17.08l-2.07-14.98c-1.78-11.99-0.3-16.48,5.93-22.17c10.08-8.69,4.74-12.89-17.19-13.18
	l-16.3-0.3l9.48-8.09C564.17,473.8,569.51,471.41,574.25,472.01L574.25,472.01z M3073.78,472.01c4.74,0.6,9.48,4.49,15.41,11.69
	c5.63,6.89,15.41,13.78,22.23,15.58c10.97,2.7,17.19,10.79,8,10.79c-2.07,0-3.85,3-3.85,6.59c0,3.6-0.89,6.59-2.37,6.59
	c-3.85,0-11.86-10.19-14.82-19.18c-1.78-5.09-4.15-6.89-6.52-4.2c-2.07,2.1-6.22,11.69-9.19,21.28l-5.34,17.08l-2.07-14.98
	c-1.78-11.99-0.3-16.48,5.93-22.17c10.08-8.69,4.74-12.89-17.19-13.18l-16.3-0.3l9.48-8.09
	C3064,473.8,3069.04,471.41,3073.78,472.01L3073.78,472.01z M2173.62,472.6c-0.59,0.6-0.59,3.3-0.89,8.39
	c-0.3,6.59,1.48,11.99,3.56,11.99c4.45,0,4.45-3.3,0-14.98C2175.1,473.8,2174.21,472.01,2173.62,472.6L2173.62,472.6z
	 M4673.45,472.6c-0.59,0.6-0.59,3.3-0.89,8.39c-0.3,6.59,1.48,11.99,3.56,11.99c4.45,0,4.45-3.3,0-14.98
	C4674.63,473.8,4674.04,472.01,4673.45,472.6L4673.45,472.6z M649.24,479.8c3.56,0,5.34,1.8,3.85,4.2c-1.19,2.4-2.96,4.2-3.85,4.2
	c-0.89,0-2.67-1.8-3.85-4.2C644.2,481.89,645.98,479.8,649.24,479.8z M3149.07,479.8c3.56,0,5.34,1.8,3.85,4.2
	c-1.19,2.4-2.96,4.2-3.85,4.2s-2.67-1.8-3.85-4.2C3143.73,481.89,3145.51,479.8,3149.07,479.8z M1541.69,488.79
	c5.34,0,9.19,2.1,9.19,6.29c0,3.6-2.37,6.59-5.34,6.59s-6.22,3.6-7.11,7.79c-2.37,9.89,9.48,34.46,15.41,32.36
	c2.37-0.9,5.63,0.3,6.82,3c1.48,2.4-0.3,4.49-3.85,4.49c-4.74,0-5.63,2.1-3.85,7.49c5.34,15.58,6.82,31.46,2.96,31.46
	c-2.37,0-6.52,1.2-9.48,2.4c-2.96,1.2-9.48-1.2-14.23-5.39c-7.41-6.59-8-9.59-4.74-19.18c2.96-8.99,2.37-14.98-3.56-27.87
	c-9.78-21.58-9.48-34.16,1.19-42.55C1529.84,490.88,1536.66,488.79,1541.69,488.79L1541.69,488.79z M4041.52,488.79
	c5.34,0,9.19,2.1,9.19,6.29c0,3.6-2.37,6.59-5.34,6.59c-2.96,0-6.22,3.6-7.11,7.79c-2.37,9.89,9.48,34.46,15.41,32.36
	c2.37-0.9,5.63,0.3,6.82,3c1.48,2.4-0.3,4.49-3.85,4.49c-4.74,0-5.63,2.1-3.85,7.49c5.34,15.58,6.82,31.46,2.96,31.46
	c-2.37,0-6.52,1.2-9.48,2.4c-2.96,1.2-9.48-1.2-14.23-5.39c-7.41-6.59-8-9.59-4.74-19.18c2.96-8.99,2.37-14.98-3.56-27.87
	c-9.78-21.58-9.48-34.16,1.19-42.55C4029.67,490.88,4036.19,488.79,4041.52,488.79L4041.52,488.79z M1601.86,497.18
	c2.07,0,3.85,2.7,3.85,5.99c0,7.19-9.48,16.78-13.04,12.89C1589.41,512.46,1596.82,497.18,1601.86,497.18L1601.86,497.18z
	 M4101.4,497.18c2.07,0,3.85,2.7,3.85,5.99c0,7.19-9.48,16.78-13.04,12.89C4089.25,512.46,4096.66,497.18,4101.4,497.18z
	 M2166.8,503.77c-1.78,0-1.78,2.1-1.78,6.29c0,4.49-2.96,10.19-6.52,12.29c-4.15,2.4-5.63,6.89-3.85,11.39
	c2.67,8.09,13.34,6.29,29.05-5.09c11.56-8.39,10.97-10.49-5.04-19.18C2171.84,505.57,2168.58,503.77,2166.8,503.77L2166.8,503.77z
	 M4666.33,503.77c-1.78,0-1.78,2.1-1.78,6.29c0,4.49-2.96,10.19-6.52,12.29c-4.15,2.4-5.63,6.89-3.85,11.39
	c2.67,8.09,13.34,6.29,29.05-5.09c11.56-8.39,10.97-10.49-5.04-19.18C4671.67,505.57,4668.11,503.77,4666.33,503.77L4666.33,503.77z
	 M649.24,516.35c1.19,0,2.07,0.6,2.07,1.5c0,1.8-9.78,8.39-21.64,14.98c-24.6,13.48-28.16,12.29-6.82-2.4
	C636.2,521.45,645.38,516.35,649.24,516.35L649.24,516.35z M3149.07,516.35c1.19,0,2.07,0.6,2.07,1.5c0,1.8-9.78,8.39-21.64,14.98
	c-24.6,13.48-28.16,12.29-6.82-2.4C3135.73,521.45,3145.21,516.35,3149.07,516.35L3149.07,516.35z M2158.8,549.02
	c-3.56,0-5.63,4.2-5.63,10.79c0,5.99-2.67,11.99-5.93,13.48c-3.26,1.5-5.93,5.09-5.93,8.39s-3.26,5.99-7.41,5.99s-8.3,3-9.78,6.59
	c-1.19,3.6-5.04,6.59-8.3,6.59c-3.26,0-11.86,3.3-18.67,7.49s-13.93,6.89-16.01,6.29c-1.78-0.6-2.07,2.4-0.59,6.59
	c1.48,4.2,3.85,11.99,4.74,17.38c2.37,12.59,6.52,12.29,12.15-1.2c2.37-5.99,7.11-10.79,10.67-10.79c4.74,0,5.63-2.4,3.56-9.59
	c-2.67-9.59-2.67-9.59,5.63-1.5c6.52,6.29,9.48,7.19,13.04,3.3c2.67-2.7,9.19-5.09,15.12-5.09c9.48,0,10.97-2.4,17.19-27.87
	C2169.76,557.71,2168.88,549.02,2158.8,549.02L2158.8,549.02z M4658.63,549.02c-3.56,0-5.63,4.2-5.63,10.79
	c0,5.99-2.67,11.99-5.93,13.48c-3.26,1.5-5.93,5.09-5.93,8.39s-3.26,5.99-7.41,5.99c-4.15,0-8.3,3-9.78,6.59
	c-1.19,3.6-5.04,6.59-8.3,6.59s-11.86,3.3-18.67,7.49s-13.93,6.89-16.01,6.29c-1.78-0.6-2.07,2.4-0.59,6.59
	c1.48,4.2,3.85,11.99,4.74,17.38c2.37,12.59,6.52,12.29,12.15-1.2c2.37-5.99,7.11-10.79,10.67-10.79c4.74,0,5.63-2.4,3.56-9.59
	c-2.67-9.59-2.67-9.59,5.63-1.5c6.52,6.29,9.48,7.19,13.04,3.3c2.67-2.7,9.19-5.09,15.12-5.09c9.48,0,10.97-2.4,17.19-27.87
	C4669.3,557.71,4668.41,549.02,4658.63,549.02L4658.63,549.02z M1215.06,553.21c-2.07,0-5.04,1.8-6.22,4.2
	c-1.19,2.4-0.59,4.2,1.48,4.2s5.04-1.8,6.22-4.2C1217.73,555.31,1217.14,553.21,1215.06,553.21L1215.06,553.21z M1245.89,553.21
	c-2.07,0-3.85,1.8-3.85,4.2s1.78,4.2,3.85,4.2s3.85-1.8,3.85-4.2S1247.96,553.21,1245.89,553.21z M3714.6,553.21
	c-2.07,0-5.04,1.8-6.22,4.2c-1.19,2.4-0.59,4.2,1.48,4.2c2.07,0,5.04-1.8,6.22-4.2C3717.56,555.31,3716.67,553.21,3714.6,553.21
	L3714.6,553.21z M3745.42,553.21c-2.07,0-3.85,1.8-3.85,4.2s1.78,4.2,3.85,4.2c2.07,0,3.85-1.8,3.85-4.2
	S3747.5,553.21,3745.42,553.21z M1280.86,579.28c-4.45,0-7.11,1.8-5.63,4.2c1.19,2.4,5.04,4.2,8,4.2s5.63-1.8,5.63-4.2
	S1285.31,579.28,1280.86,579.28z M3780.4,579.28c-4.45,0-7.11,1.8-5.63,4.2c1.19,2.4,5.04,4.2,8,4.2c2.96,0,5.63-1.8,5.63-4.2
	C3788.7,581.08,3784.84,579.28,3780.4,579.28z M1413.95,600.86c-2.07,0-3.85,1.8-3.85,4.2c0,2.4,1.78,4.2,3.85,4.2
	s3.85-1.8,3.85-4.2C1418.1,602.96,1416.32,600.86,1413.95,600.86z M3913.78,600.86c-2.07,0-3.85,1.8-3.85,4.2
	c0,2.4,1.78,4.2,3.85,4.2c2.07,0,3.85-1.8,3.85-4.2C3917.63,602.96,3915.85,600.86,3913.78,600.86z M2071.06,687.16
	c-2.07,0-3.85,1.8-3.85,4.2c0,2.4,1.78,4.2,3.85,4.2c2.07,0,3.85-1.8,3.85-4.2C2075.21,689.26,2073.43,687.16,2071.06,687.16z
	 M4570.89,687.16c-2.07,0-3.85,1.8-3.85,4.2c0,2.4,1.78,4.2,3.85,4.2s3.85-1.8,3.85-4.2
	C4574.75,689.26,4572.97,687.16,4570.89,687.16z M2022.16,712.33c-0.59,0.3-0.89,3-0.89,7.49c0,7.19,0.59,10.49,1.78,7.79
	c1.19-3,1.19-8.69,0-12.89C2022.75,712.93,2022.45,712.03,2022.16,712.33L2022.16,712.33z M4521.69,712.33
	c-0.59,0.3-0.89,3-0.89,7.49c0,7.19,0.59,10.49,1.78,7.79c1.19-2.7,1.19-8.69,0-12.89C4522.28,712.93,4521.99,712.03,4521.69,712.33
	L4521.69,712.33z M649.53,717.72c-2.07,0-1.19,1.8,2.07,4.2s7.71,4.2,9.78,4.2c2.07,0,1.19-1.8-2.07-4.2
	C656.05,719.52,651.61,717.72,649.53,717.72L649.53,717.72z M3149.07,717.72c-2.07,0-1.19,1.8,2.07,4.2s7.71,4.2,9.78,4.2
	c2.07,0,1.19-1.8-2.07-4.2C3155.59,719.52,3151.44,717.72,3149.07,717.72L3149.07,717.72z M606.56,723.72c-1.19,0-2.07,0.3-2.96,0.6
	c-5.93,2.1-6.52,3.9-2.67,8.99c3.26,4.49,5.63,4.79,7.41,1.5c3.26-5.69,34.98,10.49,34.98,17.68c0,5.39,14.52,5.39,17.49,0
	C665.84,743.79,623.15,722.52,606.56,723.72L606.56,723.72z M3106.39,723.72c-1.19,0-2.07,0.3-2.96,0.6
	c-5.93,2.1-6.52,3.9-2.67,8.99c3.26,4.49,5.63,4.79,7.41,1.5c3.26-5.69,34.98,10.49,34.98,17.68c0,5.39,14.52,5.39,17.49,0
	C3165.67,743.79,3122.98,722.52,3106.39,723.72L3106.39,723.72z M88.45,734.8c-2.07,0-3.85,1.8-3.85,4.2c0,2.4,1.78,4.2,3.85,4.2
	c2.07,0,3.85-1.8,3.85-4.2C92.3,736.9,90.52,734.8,88.45,734.8z M2587.98,734.8c-2.07,0-3.85,1.8-3.85,4.2c0,2.4,1.78,4.2,3.85,4.2
	c2.07,0,3.85-1.8,3.85-4.2C2591.84,736.9,2590.06,734.8,2587.98,734.8z M100.01,743.79c-1.48,0.3-2.37,3.3-1.19,8.39
	c1.19,4.79,3.56,8.69,5.63,8.69c4.15,0,4.15-1.5,1.19-10.49C103.86,745.29,101.49,743.2,100.01,743.79L100.01,743.79z
	 M2599.84,743.79c-1.48,0.3-2.37,3.3-1.19,8.39c1.19,4.79,3.56,8.69,5.63,8.69c4.15,0,4.15-1.5,1.19-10.49
	C2603.4,745.29,2601.32,743.2,2599.84,743.79L2599.84,743.79z M1944.5,752.18c-0.89,0-2.67,1.8-4.15,4.2
	c-1.19,2.4-0.59,4.2,1.78,4.2c2.37,0,4.15-1.8,4.15-4.2S1945.39,752.18,1944.5,752.18z M4444.03,752.18c-0.89,0-2.67,1.8-4.15,4.2
	c-1.19,2.4-0.59,4.2,1.78,4.2c2.37,0,4.15-1.8,4.15-4.2C4445.81,753.98,4444.92,752.18,4444.03,752.18z M690.14,760.87
	c-8,0-15.41,1.8-16.89,4.2c-3.26,5.69,17.49,5.69,25.49,0C702.89,762.07,700.81,760.87,690.14,760.87z M3189.67,760.87
	c-8,0-15.41,1.8-16.89,4.2c-3.26,5.69,17.49,5.69,25.49,0C3202.72,762.07,3200.34,760.87,3189.67,760.87z M642.42,766.87
	c-1.78-0.3-3.56,0.6-4.45,2.4c-1.48,2.4,0.3,4.49,3.56,4.49c6.82,0,8-2.7,2.37-6.29C643.61,767.17,643.01,766.87,642.42,766.87z
	 M3142.25,766.87c-1.78-0.3-3.56,0.6-4.45,2.4c-1.48,2.4,0.3,4.49,3.56,4.49c6.82,0,8-2.7,2.37-6.29
	C3143.14,767.17,3142.84,766.87,3142.25,766.87z M2026.9,769.27c-2.96,0-6.82,5.99-8.3,13.48c-2.37,11.99-1.19,15.28,12.45,27.87
	c21.04,19.78,25.79,18.28,7.41-2.7c-11.86-13.48-14.23-18.28-10.67-22.47C2034.01,778.85,2033.42,769.27,2026.9,769.27
	L2026.9,769.27z M4526.43,769.27c-2.96,0-6.82,5.99-8.3,13.48c-2.37,11.99-1.19,15.28,12.45,27.87c21.04,19.78,25.79,18.28,7.41-2.7
	c-11.86-13.48-14.23-18.28-10.67-22.47C4533.55,778.85,4533.25,769.27,4526.43,769.27L4526.43,769.27z M758.61,805.52
	c-0.3,0-0.89,0.3-1.48,0.6c-2.07,1.5-3.85,4.49-3.85,6.59c0,6.29,2.67,4.79,5.34-2.7C759.79,807.32,759.79,805.52,758.61,805.52
	L758.61,805.52z M3258.44,805.52c-0.3,0-0.89,0.3-1.48,0.6c-2.07,1.5-3.85,4.49-3.85,6.59c0,6.29,2.67,4.79,5.34-2.7
	C3259.62,807.32,3259.33,805.52,3258.44,805.52L3258.44,805.52z M2006.45,839.98c-0.59,0-0.89,0.3-1.48,0.6
	c-2.07,1.5-3.85,4.49-3.85,6.89s1.78,3,3.85,1.8c2.07-1.5,3.85-4.49,3.85-6.89C2008.82,840.58,2007.93,839.68,2006.45,839.98
	L2006.45,839.98z M4506.28,839.98c-0.59,0-0.89,0.3-1.48,0.6c-2.07,1.5-3.85,4.49-3.85,6.89s1.78,3,3.85,1.8
	c2.07-1.5,3.85-4.49,3.85-6.89C4508.65,840.58,4507.46,839.68,4506.28,839.98L4506.28,839.98z M1869.51,851.37
	c-0.3,0-0.59,0.3-0.59,0.6c-0.89,2.4,0.3,8.69,2.67,13.78c2.07,5.09,7.71,18.58,12.45,29.97c9.19,22.17,15.71,26.37,15.71,10.49
	C1899.45,895.72,1874.25,851.07,1869.51,851.37L1869.51,851.37z M4369.05,851.37c-0.3,0-0.59,0.3-0.59,0.6
	c-0.89,2.4,0.3,8.69,2.67,13.78c2.07,5.09,7.71,18.58,12.45,29.97c9.19,22.17,15.71,26.37,15.71,10.49
	C4398.98,895.72,4374.08,851.07,4369.05,851.37L4369.05,851.37z M2055.95,856.17c-1.19,0-2.67,0.6-4.74,1.2
	c-5.04,1.5-11.26,2.7-13.93,2.7c-2.67,0-4.74,2.1-4.74,4.49s2.67,4.2,5.93,4.2c3.26,0,5.93,2.1,5.93,4.49
	c0,9.29,13.63,1.5,15.12-8.39C2060.1,858.26,2059.5,855.87,2055.95,856.17L2055.95,856.17z M4555.78,856.17
	c-1.19,0-2.67,0.6-4.74,1.2c-5.04,1.5-11.26,2.7-13.93,2.7c-2.67,0-4.74,2.1-4.74,4.49s2.67,4.2,5.93,4.2s5.93,2.1,5.93,4.49
	c0,9.29,13.63,1.5,15.12-8.39C4559.63,858.26,4559.33,855.87,4555.78,856.17L4555.78,856.17z M1741.17,857.36
	c-4.15,0.3-7.41,9.89-4.15,15.58c1.48,2.4,4.15,4.49,6.22,4.49c5.04,0,4.74-16.18-0.3-19.48
	C1742.36,857.66,1741.76,857.36,1741.17,857.36L1741.17,857.36z M4241,857.36c-4.15,0.3-7.41,9.89-4.15,15.58
	c1.48,2.4,4.15,4.49,6.22,4.49c5.04,0,4.74-16.18-0.3-19.48C4242.19,857.66,4241.59,857.36,4241,857.36L4241,857.36z M1994,879.24
	c-3.56,0.3-8.3,4.79-19.27,15.88c-10.37,10.49-22.82,22.47-27.86,26.37c-10.37,7.79-9.48,17.08,3.85,35.66
	c6.22,8.69,11.56,11.09,23.42,11.09c12.75,0,15.41-1.5,15.41-8.39c0-4.49,3.56-14.98,8-23.07c7.71-14.38,7.11-28.77-1.19-28.77
	c-2.37,0-0.89-3.9,2.96-8.69c6.52-8.09,6.82-9.29,0.89-15.88C1997.85,880.44,1996.07,879.24,1994,879.24L1994,879.24z
	 M4493.83,879.24c-3.56,0.3-8.3,4.79-19.27,15.88c-10.37,10.49-22.82,22.47-27.86,26.37c-10.37,7.79-9.48,17.08,3.85,35.66
	c6.22,8.69,11.56,11.09,23.42,11.09c12.75,0,15.41-1.5,15.41-8.39c0-4.49,3.56-14.98,8-23.07c7.71-14.38,7.11-28.77-1.19-28.77
	c-2.37,0-0.89-3.9,2.96-8.69c6.52-8.09,6.82-9.29,0.89-15.88C4497.39,880.44,4495.9,879.24,4493.83,879.24L4493.83,879.24z
	 M1851.43,891.23c-1.48,0.3,0.3,4.2,6.52,12.89c5.93,8.39,10.37,16.48,10.37,18.28c0,4.2,19.56,37.76,28.75,49.14
	c10.08,12.59,13.63,12.29,18.08-1.5c5.04-14.38,4.74-14.68-1.48-14.68c-2.96,0-15.41-13.48-27.86-30.27s-22.82-30.27-23.71-30.27
	s-4.45-1.2-8-3C1852.91,891.23,1851.73,890.93,1851.43,891.23L1851.43,891.23z M4350.97,891.23c-1.48,0.3,0.3,4.2,6.52,12.89
	c5.93,8.39,10.37,16.48,10.37,18.28c0,4.2,19.56,37.76,28.75,49.14c10.08,12.59,13.63,12.29,18.08-1.5
	c5.04-14.38,4.74-14.68-1.48-14.68c-2.96,0-15.41-13.48-27.86-30.27s-22.82-30.27-23.71-30.27c-0.59,0-4.45-1.2-8-3
	C4352.45,891.23,4351.56,890.93,4350.97,891.23L4350.97,891.23z M2071.66,925.09c-2.07,0-3.85,4.49-3.85,9.59
	c0,7.79,0.89,8.39,3.85,3.3C2076.4,929.58,2076.4,925.09,2071.66,925.09z M4571.19,925.09c-2.07,0-3.85,4.49-3.85,9.59
	c0,7.79,0.89,8.39,3.85,3.3C4576.23,929.58,4576.23,925.09,4571.19,925.09z M2039.94,925.39c-1.48,0-2.96,0.3-4.45,0.9
	c-3.26,1.5-2.07,2.4,2.37,2.7c4.15,0.3,6.52-0.9,5.04-2.4C2042.61,925.99,2041.42,925.69,2039.94,925.39z M4539.77,925.39
	c-1.48,0-2.96,0.3-4.45,0.9c-3.26,1.5-2.07,2.4,2.37,2.7c4.15,0.3,6.52-0.9,5.04-2.4C4542.14,925.99,4540.96,925.69,4539.77,925.39z
	 M2023.64,929.58c-0.59,0-1.48,0.3-2.67,0.6c-7.41,2.1-11.86,26.37-8.6,46.15l2.67,15.58l1.19-14.08
	c1.48-17.08,6.52-17.98,11.86-2.1c3.85,11.69,3.85,11.69,4.15,1.5c0.3-5.69-2.67-14.08-6.22-18.28c-4.74-5.99-5.04-7.79-1.19-7.79
	c3.26,0,2.67-2.4-2.37-6.29c-6.52-5.69-6.82-6.89-1.78-11.09C2024.53,930.18,2025.42,929.28,2023.64,929.58L2023.64,929.58z
	 M4523.47,929.58c-0.59,0-1.48,0.3-2.67,0.6c-7.41,2.1-11.86,26.37-8.6,46.15l2.67,15.58l1.19-14.08
	c1.48-17.08,6.52-17.98,11.86-2.1c3.85,11.69,3.85,11.69,4.15,1.5c0.3-5.69-2.67-14.08-6.22-18.28c-4.74-5.99-5.04-7.79-1.19-7.79
	c3.26,0,2.67-2.4-2.37-6.29c-6.52-5.69-6.82-6.89-1.78-11.09C4524.36,930.18,4525.25,929.28,4523.47,929.58L4523.47,929.58z
	 M2095.66,942.47c-1.19,0,0.59,1.5,4.45,5.09c4.45,4.2,5.93,8.99,4.15,14.08c-2.07,5.99-1.19,7.19,3.26,5.09
	c6.22-2.7,29.94,11.09,35.27,20.08c1.48,2.7,2.07,7.79,0.89,11.69c-1.48,5.09,2.37,8.39,13.93,11.99c13.34,4.49,16.6,4.2,21.93-1.5
	c8-8.69,8.3-8.69,23.71,6.29c15.71,15.28,25.79,17.38,14.52,3.3c-4.15-5.39-9.78-14.98-12.15-21.28
	c-2.96-8.09-13.34-16.48-34.09-27.57c-26.38-14.38-30.53-15.58-38.83-10.79c-10.08,5.99-17.78,3.3-17.78-6.59
	c0-3.3-1.48-6.29-3.56-6.29c-2.07,0-6.82-1.2-10.67-2.4C2097.74,943.07,2096.26,942.47,2095.66,942.47L2095.66,942.47z
	 M4595.2,942.47c-1.19,0,0.59,1.5,4.45,5.09c4.45,4.2,5.93,8.99,4.15,14.08c-2.07,5.99-1.19,7.19,3.26,5.09
	c6.22-2.7,29.94,11.09,35.27,20.08c1.48,2.7,2.07,7.79,0.89,11.69c-1.48,5.09,2.37,8.39,13.93,11.99c13.34,4.49,16.6,4.2,21.93-1.5
	c8-8.69,8.3-8.69,23.71,6.29c15.71,15.28,25.79,17.38,14.52,3.3c-4.15-5.39-9.78-14.98-12.15-21.28
	c-2.96-8.09-13.34-16.48-34.09-27.57c-26.38-14.38-30.53-15.58-38.83-10.79c-10.08,5.99-17.78,3.3-17.78-6.59
	c0-3.3-1.48-6.29-3.56-6.29s-6.82-1.2-10.67-2.4C4597.57,943.07,4595.79,942.47,4595.2,942.47L4595.2,942.47z M2079.66,959.85
	c-1.48,0-2.96,0.9-4.74,3c-3.56,3.9-2.67,5.09,4.74,5.09s8.3-1.2,4.74-5.09C2082.33,961.05,2080.84,959.85,2079.66,959.85z
	 M4579.19,959.85c-1.48,0-2.96,0.9-4.74,3c-3.56,3.9-2.67,5.09,4.74,5.09c7.41,0,8.3-1.2,4.74-5.09
	C4582.16,961.05,4580.67,959.85,4579.19,959.85z M2241.2,961.35c-1.48,0.3-1.48,2.7,0.59,6.59c1.48,2.4,4.45,4.49,6.82,4.49
	c2.67,0,2.37-2.4-0.89-6.59C2245.05,962.24,2242.38,961.05,2241.2,961.35L2241.2,961.35z M4740.73,961.35
	c-1.48,0.3-1.48,2.7,0.59,6.59c1.48,2.4,4.45,4.49,6.82,4.49c2.67,0,2.37-2.4-0.89-6.59
	C4744.58,962.24,4742.21,961.05,4740.73,961.35L4740.73,961.35z M2238.23,972.43c-5.63,0-18.08,8.99-18.08,13.18
	c0,6.89,6.22,4.79,13.63-4.49C2237.94,976.33,2240.01,972.43,2238.23,972.43L2238.23,972.43z M4738.06,972.43
	c-5.63,0-18.08,8.99-18.08,13.18c0,6.89,6.22,4.79,13.63-4.49C4737.77,976.33,4739.54,972.43,4738.06,972.43L4738.06,972.43z
	 M1921.38,993.41c-1.19,0-2.07,0.3-2.07,0.9c0,3.3,18.67,10.79,35.27,13.78c18.97,3.6,21.34,3.3,16.89-1.5
	S1930.27,992.81,1921.38,993.41L1921.38,993.41z M4420.92,993.41c-1.19,0-2.07,0.3-2.07,0.9c0,3.3,18.67,10.79,35.27,13.78
	c18.97,3.6,21.34,3.3,16.89-1.5S4430.1,992.81,4420.92,993.41L4420.92,993.41z M2091.22,1002.7c-2.37,0-2.96,2.1-1.78,4.2
	c1.19,2.4,3.26,4.2,4.15,4.2c0.89,0,1.78-1.8,1.78-4.2S2093.29,1002.7,2091.22,1002.7z M4590.75,1002.7c-2.37,0-2.96,2.1-1.78,4.2
	c1.19,2.4,3.26,4.2,4.15,4.2s1.78-1.8,1.78-4.2S4593.12,1002.7,4590.75,1002.7z M2062.17,1008.39c-2.37-0.3-7.71,3-12.75,8.69
	c-5.93,6.29-8.6,11.69-6.22,11.69c7.11,0,23.12-16.18,19.86-20.08C2062.76,1008.39,2062.47,1008.39,2062.17,1008.39L2062.17,1008.39
	z M4561.71,1008.39c-2.37-0.3-7.71,3-12.75,8.69c-5.93,6.29-8.6,11.69-6.22,11.69c7.11,0,23.12-16.18,19.86-20.08
	C4562.3,1008.39,4562,1008.39,4561.71,1008.39L4561.71,1008.39z M2300.18,1008.39c-1.78,0-4.74,1.8-7.41,4.79
	c-6.82,7.49-3.26,9.29,5.93,2.7c3.26-2.1,4.45-5.39,3.26-6.89C2301.37,1008.39,2300.77,1008.39,2300.18,1008.39L2300.18,1008.39z
	 M4799.71,1008.39c-1.78,0-4.74,1.8-7.41,4.79c-6.82,7.49-3.26,9.29,5.93,2.7c3.26-2.1,4.45-5.39,3.26-6.89
	C4800.9,1008.39,4800.6,1008.39,4799.71,1008.39L4799.71,1008.39z M2020.97,1011.39c-2.07,0-3.85,1.8-3.85,4.2
	c0,2.4,1.78,4.2,3.85,4.2s3.85-1.8,3.85-4.2S2023.05,1011.39,2020.97,1011.39z M4520.8,1011.39c-2.07,0-3.85,1.8-3.85,4.2
	c0,2.4,1.78,4.2,3.85,4.2c2.07,0,3.85-1.8,3.85-4.2S4522.88,1011.39,4520.8,1011.39z M2001.11,1011.99c-1.48,0-2.96,0.3-4.45,0.9
	c-3.26,1.5-2.07,2.4,2.37,2.7c4.15,0.3,6.52-0.9,5.04-2.4C2003.78,1012.29,2002.6,1011.99,2001.11,1011.99L2001.11,1011.99z
	 M4500.94,1011.99c-1.48,0-2.96,0.3-4.45,0.9c-3.26,1.5-2.07,2.4,2.37,2.7c4.15,0.3,6.52-0.9,5.04-2.4
	C4503.31,1012.29,4502.13,1011.99,4500.94,1011.99L4500.94,1011.99z M2106.63,1038.96c-5.33,0-8.3,3-13.34,11.39
	c-4.45,7.19-7.41,15.88-6.52,19.48c1.48,7.79-11.86,8.69-21.93,1.5c-5.63-3.9-8.89-3.3-15.71,3c-4.74,4.49-8.6,10.49-8.6,13.48
	c0,3.3-2.67,4.2-6.52,2.7c-4.45-1.8-5.63-1.2-3.56,2.7c4.45,8.09-7.11,19.48-35.27,34.76c-19.86,10.79-25.19,15.88-25.19,23.37
	c0,5.39,2.07,11.69,4.45,14.38c4.74,5.39,0.89,15.58-4.45,11.99c-1.78-1.2,0,6.29,4.45,17.08c4.45,10.79,8.89,29.37,10.08,41.05
	c2.67,24.57,10.97,31.16,25.49,19.78c4.74-3.6,12.15-6.89,16.3-6.89s13.63-4.2,21.04-9.29c8.89-6.29,20.45-9.29,34.98-9.59
	c19.86-0.6,22.53,0.6,32.31,13.48l10.67,14.08l5.04-10.79c5.93-11.99,13.34-10.19,9.78,2.4c-1.19,4.49-0.59,8.39,1.48,8.39
	c2.07,0,4.74,3.3,5.93,7.49c7.11,23.67,16.6,31.76,32.9,28.47c8-1.5,12.75-0.9,12.75,2.1c0,6.89,5.93,5.99,11.86-1.8
	c2.67-3.6,7.11-6.59,9.78-6.59c6.82,0,25.79-64.43,28.45-95.89c2.07-23.97,1.19-26.97-7.41-35.36
	c-17.49-16.78-38.53-49.44-41.2-64.13c-1.48-7.79-6.52-23.97-11.56-35.66c-8.89-21.28-8.89-21.28-11.56-8.69
	c-5.04,24.57-14.23,53.64-17.19,53.64c-1.48,0-9.78-6.59-18.38-14.68c-14.52-13.78-15.12-15.28-10.67-28.17
	c5.04-14.68,4.45-15.58-12.45-19.48C2110.48,1039.26,2108.41,1038.96,2106.63,1038.96L2106.63,1038.96z M4606.46,1038.96
	c-5.34,0-8.3,3-13.34,11.39c-4.45,7.19-7.41,15.88-6.52,19.48c1.48,7.79-11.86,8.69-21.93,1.5c-5.63-3.9-8.89-3.3-15.71,3
	c-4.74,4.49-8.6,10.49-8.6,13.48c0,3.3-2.67,4.2-6.52,2.7c-4.45-1.8-5.63-1.2-3.56,2.7c4.45,8.09-7.11,19.48-35.27,34.76
	c-19.86,10.79-25.19,15.88-25.19,23.37c0,5.39,2.07,11.69,4.45,14.38c4.74,5.39,0.89,15.58-4.45,11.99c-1.78-1.2,0,6.29,4.45,17.08
	c4.45,10.79,8.89,29.37,10.08,41.05c2.67,24.57,10.97,31.16,25.49,19.78c4.74-3.6,12.15-6.89,16.3-6.89c4.15,0,13.63-4.2,20.75-9.29
	c8.89-6.29,20.45-9.29,34.98-9.59c19.86-0.6,22.53,0.6,32.31,13.48l10.67,14.08l5.04-10.79c5.93-11.99,13.34-10.19,9.78,2.4
	c-1.19,4.49-0.59,8.39,1.48,8.39s4.74,3.3,5.93,7.49c7.11,23.67,16.6,31.76,32.9,28.47c8-1.5,12.75-0.9,12.75,2.1
	c0,6.89,5.93,5.99,11.86-1.8c2.67-3.6,7.11-6.59,9.78-6.59c6.82,0,25.79-64.43,28.45-95.89c2.07-23.97,1.19-26.97-7.41-35.36
	c-17.49-16.78-38.53-49.44-41.2-64.13c-1.48-7.79-6.52-23.97-11.56-35.66c-8.89-21.28-8.89-21.28-11.56-8.69
	c-5.04,24.57-14.23,53.64-17.19,53.64c-1.48,0-9.78-6.59-18.38-14.68c-14.52-13.78-15.12-15.28-10.67-28.17
	c5.04-14.68,4.45-15.58-12.45-19.48C4610.02,1039.26,4608.24,1038.96,4606.46,1038.96L4606.46,1038.96z M1528.06,1048.25
	l-5.93,11.69c-3.26,6.59-10.97,14.68-17.49,18.58c-6.52,3.9-11.86,8.99-11.86,11.99c-0.59,11.69-3.26,31.76-5.63,44.65
	c-1.48,7.49-0.59,17.68,1.78,22.77c5.04,10.19,13.04,11.69,18.97,3.6c5.63-7.79,20.45-78.51,20.16-97.69L1528.06,1048.25
	L1528.06,1048.25z M4027.59,1048.25l-5.93,11.69c-3.26,6.59-10.97,14.68-17.49,18.58c-6.52,3.6-11.86,8.99-11.86,11.99
	c-0.59,11.69-3.26,31.76-5.63,44.65c-1.48,7.49-0.59,17.68,1.78,22.77c5.04,10.19,13.04,11.69,18.97,3.6
	c5.63-7.79,20.45-78.51,20.16-97.69V1048.25L4027.59,1048.25z M2134.49,1054.54c-2.07,0-3.85,2.1-3.85,4.2c0,2.4,1.78,4.2,3.85,4.2
	c2.07,0,3.85-1.8,3.85-4.2C2138.64,1056.64,2136.86,1054.54,2134.49,1054.54z M4634.32,1054.54c-2.07,0-3.85,2.1-3.85,4.2
	c0,2.4,1.78,4.2,3.85,4.2c2.07,0,3.85-1.8,3.85-4.2C4638.18,1056.64,4636.4,1054.54,4634.32,1054.54z M2484.54,1059.03
	c-2.07,0-1.19,1.8,2.07,4.2c3.26,2.4,7.71,4.2,9.78,4.2c2.07,0,1.19-1.8-2.07-4.2C2491.36,1060.83,2486.91,1059.03,2484.54,1059.03z
	 M4984.37,1059.03c-2.07,0-1.19,1.8,2.07,4.2c3.26,2.4,7.71,4.2,9.78,4.2c2.07,0,1.19-1.8-2.07-4.2
	C4990.89,1060.83,4986.45,1059.03,4984.37,1059.03L4984.37,1059.03z M2327.75,1123.76c-3.26,0-4.74,1.8-3.56,4.2
	c1.19,2.4,5.04,4.2,8.3,4.2c3.26,0,4.74-1.8,3.56-4.2C2334.86,1125.56,2331.01,1123.76,2327.75,1123.76z M4827.28,1123.76
	c-3.26,0-4.74,1.8-3.56,4.2c1.19,2.4,5.04,4.2,8.3,4.2s4.74-1.8,3.56-4.2C4834.39,1125.56,4830.54,1123.76,4827.28,1123.76z
	 M2383.17,1264.9c-0.3,0.3,0.89,2.7,3.56,7.49c4.74,8.09,6.22,16.78,4.74,24.87c-1.19,6.89-0.59,12.59,1.48,12.59
	c2.07,0,3.85,3.3,3.85,7.49c0,6.89,0.89,6.59,6.22-1.2c10.08-14.68,13.93-23.67,9.78-23.67c-2.07,0-10.37-7.19-18.38-16.18
	C2387.02,1268.19,2383.47,1264.6,2383.17,1264.9L2383.17,1264.9z M4882.71,1264.9c-0.3,0.3,0.89,2.7,3.56,7.49
	c4.74,8.09,6.22,16.78,4.74,24.87c-1.19,6.89-0.59,12.59,1.48,12.59s3.85,3.3,3.85,7.49c0,6.89,0.89,6.59,6.22-1.2
	c10.08-14.68,13.93-23.67,9.78-23.67c-2.07,0-10.37-7.19-18.38-16.18C4886.56,1268.19,4883.3,1264.6,4882.71,1264.9L4882.71,1264.9z
	 M2198.51,1322.43c-10.37,0-10.67,1.5-5.04,13.18c5.34,10.79,13.93,10.79,16.6,0C2212.45,1325.13,2210.07,1322.43,2198.51,1322.43
	L2198.51,1322.43z M4698.35,1322.43c-10.37,0-10.67,1.5-5.04,13.18c5.34,10.79,13.93,10.79,16.6,0
	C4712.28,1325.13,4709.9,1322.43,4698.35,1322.43L4698.35,1322.43z M2381.39,1323.03c-1.78-0.3-3.56,1.5-5.63,5.39
	c-2.37,4.49-10.97,15.88-19.27,25.77c-16.6,20.08-17.49,23.07-7.71,25.77c3.85,1.2,7.71,2.1,8.89,2.4
	c3.85,0.9,11.56-9.59,11.56-15.88c0-3.3,4.74-12.59,10.37-20.98c8.3-11.99,9.48-16.18,5.33-20.38
	C2383.76,1323.93,2382.58,1323.03,2381.39,1323.03L2381.39,1323.03z M4881.22,1323.03c-1.78-0.3-3.56,1.5-5.63,5.39
	c-2.37,4.49-10.97,15.88-19.27,25.77c-16.6,20.08-17.49,23.07-7.71,25.77c3.85,1.2,7.71,2.1,8.89,2.4
	c3.85,0.9,11.56-9.59,11.56-15.88c0-3.3,4.74-12.59,10.37-20.98c8.3-11.99,9.48-16.18,5.34-20.38
	C4883.3,1323.93,4882.11,1323.03,4881.22,1323.03L4881.22,1323.03z M1661.74,1401.54c-3.85-0.3-5.34,2.4-2.67,7.19
	c3.26,5.69,8.6,5.99,11.56,0.6c1.19-2.1-0.59-5.09-4.15-6.59C1664.7,1401.84,1663.22,1401.54,1661.74,1401.54L1661.74,1401.54z
	 M4161.57,1401.54c-3.85-0.3-5.34,2.4-2.67,7.19c3.26,5.69,8.6,5.99,11.56,0.6c1.19-2.1-0.59-5.09-4.15-6.59
	C4164.53,1401.84,4162.75,1401.54,4161.57,1401.54L4161.57,1401.54z M773.43,1430.61c-2.07,0-3.85,3-3.85,6.59
	c0,3.6,0.59,6.59,1.48,6.59s2.67-3,3.85-6.59C776.39,1433.31,775.8,1430.61,773.43,1430.61z M3273.26,1430.61
	c-2.07,0-3.85,3-3.85,6.59c0,3.6,0.59,6.59,1.48,6.59s2.67-3,3.85-6.59C3275.93,1433.31,3275.33,1430.61,3273.26,1430.61z
	 M668.5,1443.49c-0.89,0-1.78,0.3-2.67,1.2c-1.19,1.5-0.89,5.09,0.59,8.09c2.37,4.49,3.26,4.49,4.74,0
	C672.65,1447.99,670.87,1443.49,668.5,1443.49L668.5,1443.49z M3168.04,1443.49c-0.89,0-1.78,0.3-2.67,1.2
	c-1.19,1.5-0.89,5.09,0.59,8.09c2.37,4.49,3.26,4.49,4.74,0C3172.19,1447.99,3170.41,1443.49,3168.04,1443.49L3168.04,1443.49z
	 M697.55,1452.48c-1.48,0.6-2.07,2.4-2.07,5.99s-2.07,6.59-4.74,6.89s-0.59,2.1,4.74,3.9c5.34,1.8,13.04,3.6,17.19,3.9
	c6.82,0.3,6.82-0.3-1.78-10.49C704.66,1455.18,700.22,1451.88,697.55,1452.48L697.55,1452.48z M3197.38,1452.48
	c-1.48,0.6-2.07,2.4-2.07,5.99s-2.07,6.59-4.74,6.89s-0.59,2.1,4.74,3.9c5.34,1.8,13.04,3.6,17.19,3.9c6.82,0.3,6.82-0.3-1.78-10.49
	C3204.2,1455.18,3199.75,1451.88,3197.38,1452.48L3197.38,1452.48z M919.85,1460.87c-3.26,0-4.74,1.8-3.56,4.2
	c1.19,2.4,5.04,4.2,8.3,4.2c3.26,0,4.74-1.8,3.56-4.2C926.96,1462.67,923.11,1460.87,919.85,1460.87z M3419.68,1460.87
	c-3.26,0-4.74,1.8-3.56,4.2c1.19,2.4,5.04,4.2,8.3,4.2c3.26,0,4.74-1.8,3.56-4.2C3426.5,1462.67,3422.94,1460.87,3419.68,1460.87z
	 M699.62,1477.95c-2.37,0-4.15,1.8-4.15,4.2c0,2.4,0.89,4.2,1.78,4.2c0.89,0,2.67-1.8,4.15-4.2
	C702.89,1480.05,702,1477.95,699.62,1477.95z M3199.46,1477.95c-2.37,0-4.15,1.8-4.15,4.2c0,2.4,0.89,4.2,1.78,4.2
	c0.89,0,2.67-1.8,4.15-4.2C3202.42,1480.05,3201.53,1477.95,3199.46,1477.95z">
</path>
</svg>
